<svg width="64" height="64" viewBox="0 0 64 64" fill="none" xmlns="http://www.w3.org/2000/svg">
<rect opacity="0.4" x="4" y="4" width="56" height="56" rx="12" fill="url(#paint0_linear_54_856)"/>
<path d="M15.9344 45.5656C14.5537 45.5656 13.4344 46.6849 13.4344 48.0656C13.4344 49.4463 14.5537 50.5656 15.9344 50.5656V45.5656ZM36.9888 50.5656C38.3695 50.5656 39.4888 49.4463 39.4888 48.0656C39.4888 46.6849 38.3695 45.5656 36.9888 45.5656V50.5656ZM13.4347 36.1626C13.4347 37.5433 14.554 38.6626 15.9347 38.6626C17.3154 38.6626 18.4347 37.5433 18.4347 36.1626H13.4347ZM15.9347 15.1083L15.6463 12.625L13.4347 15.1082L15.9347 15.1083ZM15.9345 25.6352L13.4345 25.6351L15.6461 28.1185L15.9345 25.6352ZM39.2212 32.3139C38.5999 31.0809 37.0967 30.5851 35.8637 31.2064C34.6306 31.8277 34.1348 33.331 34.7561 34.564L39.2212 32.3139ZM42.2523 36.0721L42.253 38.5721L42.2531 38.5721L42.2523 36.0721ZM37.0203 20.3045L39.5203 20.3116C39.5203 20.2993 39.5202 20.2869 39.5201 20.2745L37.0203 20.3045ZM45.2651 18.7369C45.8663 19.9798 47.3613 20.5 48.6043 19.8987C49.8472 19.2975 50.3673 17.8025 49.7661 16.5595L45.2651 18.7369ZM15.9344 50.5656H36.9888V45.5656H15.9344V50.5656ZM18.4347 36.1626V15.1083H13.4347V36.1626H18.4347ZM15.9345 25.6352C15.6461 28.1185 15.6469 28.1186 15.6477 28.1187C15.648 28.1187 15.6489 28.1188 15.6495 28.1189C15.6508 28.119 15.6523 28.1192 15.654 28.1194C15.6572 28.1198 15.6612 28.1202 15.6657 28.1207C15.6748 28.1217 15.6865 28.123 15.7007 28.1245C15.729 28.1275 15.7673 28.1314 15.8148 28.136C15.9099 28.145 16.0423 28.1567 16.207 28.1685C16.5356 28.1922 16.9962 28.2172 17.5457 28.2246C18.6305 28.2392 20.1291 28.1865 21.6693 27.8908C23.1764 27.6016 24.9482 27.0383 26.388 25.8748C27.9329 24.6265 28.9616 22.7853 28.9616 20.3716H23.9616C23.9616 21.2009 23.6745 21.6392 23.2455 21.9858C22.7115 22.4173 21.8515 22.7646 20.7268 22.9805C19.6352 23.19 18.502 23.237 17.6129 23.2251C17.1756 23.2192 16.8137 23.1993 16.5666 23.1815C16.4434 23.1726 16.3497 23.1643 16.2906 23.1587C16.261 23.1558 16.2402 23.1537 16.2287 23.1524C16.2229 23.1518 16.2195 23.1515 16.2185 23.1513C16.218 23.1513 16.2181 23.1513 16.2188 23.1514C16.2192 23.1514 16.2197 23.1515 16.2204 23.1516C16.2207 23.1516 16.2213 23.1517 16.2215 23.1517C16.2221 23.1518 16.2228 23.1519 15.9345 25.6352ZM28.9616 20.3716C28.9616 17.9579 27.9329 16.1167 26.3881 14.8684C24.9482 13.7049 23.1764 13.1417 21.6694 12.8525C20.1292 12.5569 18.6306 12.5042 17.5459 12.5188C16.9963 12.5262 16.5358 12.5512 16.2072 12.5749C16.0425 12.5868 15.91 12.5984 15.815 12.6075C15.7675 12.612 15.7292 12.6159 15.7009 12.6189C15.6867 12.6205 15.675 12.6217 15.6659 12.6227C15.6614 12.6233 15.6574 12.6237 15.6542 12.6241C15.6525 12.6243 15.651 12.6244 15.6497 12.6246C15.6491 12.6246 15.6482 12.6247 15.6479 12.6248C15.6471 12.6249 15.6463 12.625 15.9347 15.1083C16.2232 17.5916 16.2225 17.5917 16.2218 17.5917C16.2217 17.5918 16.221 17.5918 16.2207 17.5919C16.22 17.5919 16.2195 17.592 16.2191 17.592C16.2184 17.5921 16.2183 17.5921 16.2188 17.5921C16.2198 17.592 16.2232 17.5916 16.229 17.591C16.2405 17.5898 16.2614 17.5876 16.2909 17.5848C16.3501 17.5791 16.4438 17.5708 16.567 17.5619C16.814 17.5441 17.1759 17.5242 17.6132 17.5183C18.5023 17.5064 19.6355 17.5534 20.727 17.7629C21.8517 17.9787 22.7116 18.326 23.2455 18.7574C23.6745 19.104 23.9616 19.5423 23.9616 20.3716H28.9616ZM13.4347 15.1082L13.4345 25.6351L18.4345 25.6352L18.4347 15.1083L13.4347 15.1082ZM36.9887 33.439C34.7561 34.564 34.7568 34.5653 34.7575 34.5666C34.7577 34.5671 34.7584 34.5684 34.7588 34.5693C34.7597 34.5711 34.7607 34.573 34.7617 34.5749C34.7636 34.5787 34.7657 34.5827 34.7678 34.5869C34.7721 34.5952 34.7768 34.6042 34.7819 34.6138C34.7921 34.6332 34.8039 34.6551 34.8175 34.6796C34.8446 34.7285 34.8785 34.7875 34.9198 34.8551C35.0022 34.99 35.1146 35.1606 35.2605 35.3544C35.5514 35.7408 35.9828 36.2287 36.5837 36.7089C37.8168 37.6944 39.6753 38.5728 42.253 38.5721L42.2515 33.5721C40.8931 33.5725 40.1198 33.1344 39.7052 32.803C39.4822 32.6248 39.3357 32.4542 39.2547 32.3467C39.2147 32.2935 39.1926 32.2583 39.187 32.2492C39.1843 32.2448 39.1859 32.2472 39.1916 32.2575C39.1945 32.2626 39.1984 32.2698 39.2034 32.2792C39.2058 32.2839 39.2085 32.2891 39.2115 32.2949C39.213 32.2978 39.2146 32.3008 39.2162 32.304C39.217 32.3056 39.2178 32.3072 39.2187 32.3088C39.2191 32.3097 39.2197 32.3109 39.2199 32.3114C39.2206 32.3126 39.2212 32.3139 36.9887 33.439ZM42.2531 38.5721C44.8244 38.5712 46.899 37.6819 48.2794 36.028C49.5938 34.4532 50.0158 32.499 50.0158 30.8072H45.0158C45.0158 31.7471 44.7741 32.4247 44.4408 32.8241C44.1734 33.1444 43.6163 33.5716 42.2514 33.5721L42.2531 38.5721ZM50.0158 30.8072C50.0158 27.7732 49.31 25.2942 47.2331 23.9454C46.272 23.3212 45.2489 23.1085 44.4029 23.0351C43.5791 22.9635 42.7404 23.0134 42.1203 23.0471C41.4246 23.085 40.949 23.1067 40.5397 23.0718C40.1525 23.0388 40.0277 22.9669 40.0061 22.9529C39.9986 22.948 39.9841 22.9384 39.9585 22.9051C39.9301 22.8682 39.8707 22.779 39.8037 22.6C39.662 22.221 39.5168 21.522 39.5203 20.3116L34.5203 20.2974C34.5116 23.3206 35.2074 25.8016 37.2876 27.1493C38.2485 27.7717 39.2714 27.9818 40.1148 28.0537C40.9361 28.1238 41.7739 28.0734 42.3921 28.0397C43.0859 28.002 43.5616 27.9808 43.9704 28.0163C44.3569 28.0499 44.4845 28.1222 44.5099 28.1387C44.5196 28.145 44.5363 28.1566 44.5641 28.1926C44.5946 28.2322 44.6555 28.3241 44.7238 28.5057C44.8682 28.8894 45.0158 29.593 45.0158 30.8072H50.0158ZM39.5201 20.2745C39.5085 19.3074 39.7434 18.6364 40.0598 18.2512C40.3071 17.9502 40.849 17.5164 42.2523 17.5164V12.5164C39.6654 12.5164 37.5753 13.3986 36.1962 15.0775C34.8861 16.6723 34.5002 18.6453 34.5204 20.3345L39.5201 20.2745ZM42.2523 17.5164C43.646 17.5164 44.4148 17.9594 44.8123 18.2795C45.0277 18.453 45.1664 18.6178 45.2413 18.7195C45.2783 18.7698 45.298 18.8022 45.3018 18.8088C45.3037 18.8119 45.3014 18.8083 45.2953 18.7968C45.2922 18.791 45.2881 18.7832 45.2831 18.7733C45.2806 18.7684 45.2778 18.7629 45.2748 18.7568C45.2733 18.7538 45.2717 18.7506 45.2701 18.7473C45.2693 18.7456 45.2685 18.7439 45.2676 18.7422C45.2672 18.7413 45.2666 18.74 45.2664 18.7396C45.2657 18.7383 45.2651 18.7369 47.5156 17.6482C49.7661 16.5595 49.7654 16.5582 49.7648 16.5568C49.7645 16.5563 49.7639 16.555 49.7634 16.554C49.7625 16.5521 49.7615 16.5502 49.7606 16.5482C49.7586 16.5443 49.7566 16.5401 49.7545 16.5358C49.7502 16.5273 49.7456 16.518 49.7405 16.508C49.7304 16.4882 49.7187 16.4656 49.7053 16.4406C49.6786 16.3905 49.6451 16.3303 49.6043 16.2615C49.523 16.1241 49.412 15.9509 49.2673 15.7545C48.9788 15.3627 48.5498 14.8696 47.9482 14.3852C46.7116 13.3894 44.8487 12.5164 42.2523 12.5164V17.5164Z" fill="url(#paint1_linear_54_856)"/>
<defs>
<linearGradient id="paint0_linear_54_856" x1="32" y1="60" x2="32" y2="4" gradientUnits="userSpaceOnUse">
<stop stop-color="#5570FF"/>
<stop offset="1" stop-color="#4DD3FF"/>
</linearGradient>
<linearGradient id="paint1_linear_54_856" x1="31.7251" y1="34.6011" x2="31.7251" y2="15.0164" gradientUnits="userSpaceOnUse">
<stop stop-color="#5558FF"/>
<stop offset="1" stop-color="#00C0FF"/>
</linearGradient>
</defs>
</svg>
