<svg width="64" height="64" viewBox="0 0 64 64" fill="none" xmlns="http://www.w3.org/2000/svg">
<path opacity="0.4" d="M27.5543 39.3012C25.7584 42.422 22.2411 44.4078 18.9983 44.9939C17.2871 45.2989 15.5013 45.0075 13.8817 44.3705C12.2442 43.7163 10.778 42.6963 9.59521 41.3885C7.21309 38.7692 6 35.1334 6 31.5416C6 27.9497 7.21309 24.3106 9.59521 21.698C10.7767 20.3894 12.2417 19.3683 13.8783 18.7127C15.5042 18.0682 17.2693 17.8558 19.0017 18.096C22.1665 18.55 24.9587 20.5798 27.0324 23.0941C29.113 25.605 30.5667 28.5902 32 31.545C33.4368 34.4963 34.8904 37.4817 36.9675 39.9926C39.0447 42.5068 41.8368 44.5365 44.9983 44.9906C46.731 45.2297 48.4961 45.0161 50.1217 44.3705C51.7579 43.7158 53.223 42.6959 54.4048 41.3885C56.7869 38.7727 58 35.1368 58 31.545C58 27.9531 56.7869 24.3139 54.4048 21.7014C53.2233 20.3928 51.7583 19.3717 50.1217 18.7161C48.4972 18.071 46.7333 17.8575 45.0017 18.096C41.8368 18.55 39.0447 20.5798 36.9675 23.0941" stroke="url(#paint0_linear_69_118)" stroke-width="8" stroke-linecap="round"/>
<path d="M46.6851 26V38.6252M40.37 32.3149H53M10 32.5488H22.63" stroke="url(#paint1_linear_69_118)" stroke-width="6" stroke-linecap="round" stroke-linejoin="round"/>
<defs>
<linearGradient id="paint0_linear_69_118" x1="32" y1="45.1155" x2="32" y2="18" gradientUnits="userSpaceOnUse">
<stop stop-color="#02AA93"/>
<stop offset="1" stop-color="#67FF80"/>
</linearGradient>
<linearGradient id="paint1_linear_69_118" x1="31.5" y1="38.6252" x2="31.5" y2="26" gradientUnits="userSpaceOnUse">
<stop stop-color="#02AA93"/>
<stop offset="1" stop-color="#67FF80"/>
</linearGradient>
</defs>
</svg>
