<svg width="64" height="64" viewBox="0 0 64 64" fill="none" xmlns="http://www.w3.org/2000/svg">
<path d="M59.7742 41.4433C59.8637 40.8398 59.9236 40.2293 59.9523 39.6133C60.6514 31.3078 55.9616 23.0409 48.6216 19.1446C48.5708 19.1176 48.5222 19.0865 48.4766 19.0514C43.3137 15.076 38.1039 11.1424 32.8273 7.32932C32.7802 7.29532 32.7304 7.2652 32.6777 7.24102C32.2259 7.03406 31.735 6.91121 31.2384 6.88262C27.9805 6.52318 25.7014 10.7734 27.8092 13.2858C28.5107 14.0161 29.3073 14.6424 30.1223 15.2487C30.8758 15.8093 30.497 16.9356 29.5579 16.936C23.5698 16.9381 17.5811 16.9122 11.5941 16.9515C8.35258 17.1125 6.77327 21.5896 9.17401 23.7616C11.0435 25.5759 13.7896 24.74 16.1205 24.9323H18.1459C19.1023 24.9323 19.5123 26.1452 18.7512 26.7245C14.2567 30.1459 9.74803 33.5495 5.27698 37.0002C2.76716 39.1033 4.26121 43.6704 7.52189 43.9011C10.0882 44.166 11.7463 41.867 13.7076 40.6157L16.3048 38.6394C16.9849 38.1219 17.9868 38.6438 18.0383 39.4969C18.6632 49.856 27.9721 58.8929 38.4686 58.9138C48.4371 59.1562 54.3809 53.0041 56.8716 49.1319" stroke="url(#paint0_linear_12_157)" stroke-width="5" stroke-linecap="round"/>
<path opacity="0.45" d="M39.013 25.9319C42.1957 25.9319 45.248 27.1962 47.4985 29.4467C49.749 31.6971 51.0133 34.7494 51.0133 37.9321C51.0133 41.1147 49.749 44.167 47.4985 46.4175C45.248 48.668 42.1957 49.9324 39.013 49.9324C35.8304 49.9324 32.7781 48.668 30.5276 46.4175C28.2771 44.167 27.0128 41.1147 27.0128 37.9321C27.0128 34.7494 28.2771 31.6971 30.5276 29.4467C32.7781 27.1962 35.8304 25.9319 39.013 25.9319Z" fill="url(#paint1_linear_12_157)"/>
<defs>
<linearGradient id="paint0_linear_12_157" x1="4.57678" y1="45.6788" x2="42.3731" y2="4.18755" gradientUnits="userSpaceOnUse">
<stop stop-color="#FF5508"/>
<stop offset="1" stop-color="#FFA208"/>
</linearGradient>
<linearGradient id="paint1_linear_12_157" x1="4.57683" y1="45.6789" x2="42.3731" y2="4.18762" gradientUnits="userSpaceOnUse">
<stop stop-color="#FF5508"/>
<stop offset="1" stop-color="#FFA208"/>
</linearGradient>
</defs>
</svg>
