<svg width="128" height="128" viewBox="0 0 128 128" fill="none" xmlns="http://www.w3.org/2000/svg">
<path opacity="0.4" d="M46.2292 20C43.3856 20 41.45 22.884 42.5276 25.5157L42.6916 25.916C44.002 29.108 45.7204 36.453 45.8432 41.174C45.8752 42.408 45.1608 43.4984 44.1312 44.1792C40.7696 46.4004 38.221 48.5704 36.1439 50.5708C34.6378 52.0212 32.3076 52.168 30.5563 51.0252C26.7216 48.524 20.8025 45.8152 12.3026 45.8152H12C9.79088 45.8152 8 47.606 8 49.8152V50.118C8 56.8188 9.96836 62.4968 11.2744 65.6108C11.7348 66.7084 11.729 67.9452 11.2604 69.0392C9.95064 72.0976 8 77.6476 8 84.5384V84.8408C8 87.05 9.79088 88.8408 12 88.8408H12.3026C20.7841 88.8408 26.7546 86.092 30.61 83.582C32.3383 82.4568 34.6371 82.5844 36.1577 83.9776C40.424 87.8864 45.8496 91.8052 52.3296 95.0648C53.9292 95.8696 54.8416 97.5912 54.736 99.3788C54.6048 101.598 54.7128 104.224 55.4616 107.127L55.5116 107.326C55.9576 109.106 57.5572 110.354 59.3916 110.354H59.6308C64.94 110.354 69.5136 107.716 73.2096 105.38C75.2012 104.116 76.5156 103.103 77.3976 102.375C78.09 101.803 78.9448 101.466 79.8412 101.409C96.158 100.372 106.65 91.3972 112.337 82.5204C118.108 73.5268 119.721 64.5608 119.857 63.7556C119.864 63.712 119.87 63.6748 119.875 63.6312L119.88 63.5912C119.959 62.954 119.883 62.3072 119.659 61.7052L119.605 61.5584C119.602 61.55 119.602 61.552 119.599 61.5436C119.5 61.274 110.05 35.6736 84.7992 33.3009C83.6788 33.1956 82.6324 32.6676 81.8548 31.8539C79.1224 28.9945 75.49 26.5739 70.6584 24.5693C64.084 21.8501 55.8144 20 46.7232 20H46.2292ZM53.744 34.0906C53.468 31.643 55.5012 29.4482 57.9248 29.8884C61.3864 30.517 64.5824 31.3816 67.2936 32.5032C72.7924 34.775 76.6216 38.032 77.512 39.4949L77.5596 39.5744C78.2832 40.7772 79.584 41.5128 80.9876 41.5128H81.1436C100.499 41.5128 108.695 58.014 110.59 62.54C110.871 63.2088 110.929 63.94 110.768 64.6468C110.214 67.0844 108.747 72.234 105.079 77.9512C100.084 85.7304 91.9988 93.1436 76.8408 93.1436H76.7492C75.7692 93.1436 74.8232 93.5036 74.0908 94.1548L74.05 94.1912C74.0288 94.21 74.0088 94.2276 73.9872 94.2456C73.704 94.484 71.5344 96.2892 68.6404 98.1172C68.4472 98.2388 68.2576 98.3484 68.0704 98.4484C66.2808 99.4056 64.0488 97.25 63.9368 95.2236C63.9212 94.9464 63.9676 95.0244 64.0348 94.7552L64.0688 94.62C64.5256 92.7956 63.5136 90.9244 61.7368 90.3076L61.3776 90.1832C50.7244 86.1176 41.6632 78.4548 37.0423 73.1108L36.8112 72.8376C35.3421 71.1016 32.7029 70.992 31.0947 72.6C30.9354 72.7596 30.7642 72.9036 30.5763 73.028C29.7689 73.5624 27.2654 75.1464 23.8121 76.6396C21.0786 77.8216 18.4797 75.3308 19.3806 72.4924C19.873 70.9408 20.2824 69.8088 20.437 69.39C20.4813 69.2704 20.5321 69.1552 20.5892 69.0408C21.1268 67.9656 21.129 66.6952 20.5913 65.6196C20.5326 65.5024 20.4812 65.3852 20.436 65.262C20.2508 64.7564 19.7057 63.2352 19.0908 61.2044C18.2501 58.4288 20.7516 55.9924 23.397 57.1812C27.5669 59.0552 30.2966 61.3328 30.7786 61.7496C30.8316 61.7956 30.88 61.8416 30.9296 61.8912L31.0084 61.97C32.663 63.6244 35.3785 63.5116 36.8901 61.7252L37.0423 61.5456C40.5484 57.5852 49.4576 48.2432 62.5164 45.0788C64.6796 44.5544 66.2316 42.5368 65.916 40.3336L65.8364 39.7783C65.5256 37.6091 63.52 36.0758 61.3892 36.5876C60.426 36.819 59.4884 37.0818 58.57 37.3684C56.344 38.0632 54.0052 36.4079 53.744 34.0906Z" fill="url(#paint0_linear_54_1436)"/>
<path fill-rule="evenodd" clip-rule="evenodd" d="M53.8188 34.2588C53.5428 31.8112 55.576 29.6164 57.9996 30.0566C61.4612 30.6852 64.6572 31.5498 67.3684 32.6714C72.8672 34.9432 76.6964 38.2002 77.5868 39.6631L77.6344 39.7426C78.358 40.9454 79.6588 41.681 81.0624 41.681H81.2184C100.574 41.681 108.77 58.1822 110.665 62.7082C110.946 63.377 111.004 64.1082 110.843 64.815C110.289 67.2526 108.822 72.4022 105.154 78.1194C100.159 85.8986 92.0736 93.3118 76.9156 93.3118H76.824C75.844 93.3118 74.898 93.6718 74.1656 94.323L74.1248 94.3594C74.1036 94.3782 74.0836 94.3958 74.062 94.4138C73.7788 94.6522 71.6092 96.4574 68.7152 98.2854C68.522 98.407 68.3324 98.5166 68.1452 98.6166C66.3556 99.5738 64.1236 97.4182 64.0116 95.3918C64.0018 95.2181 64.0164 95.1839 64.0452 95.1163C64.0623 95.076 64.0845 95.0239 64.1096 94.9234L64.1436 94.7882C64.6004 92.9638 63.5884 91.0926 61.8116 90.4758L61.4524 90.3514C50.7992 86.2858 41.738 78.623 37.1171 73.279L36.886 73.0058C35.4169 71.2698 32.7777 71.1602 31.1695 72.7682C31.0102 72.9278 30.839 73.0718 30.6511 73.1962C29.8437 73.7306 27.3402 75.3146 23.8869 76.8078C21.1534 77.9898 18.5545 75.499 19.4554 72.6606C19.9478 71.109 20.3572 69.977 20.5118 69.5582C20.5561 69.4386 20.6069 69.3234 20.664 69.209C21.2016 68.1338 21.2038 66.8634 20.6661 65.7878C20.6074 65.6706 20.556 65.5534 20.5108 65.4302C20.3256 64.9246 19.7805 63.4034 19.1656 61.3726C18.3249 58.597 20.8264 56.1606 23.4718 57.3494C27.6417 59.2234 30.3714 61.501 30.8534 61.9178C30.9064 61.9638 30.9548 62.0098 31.0044 62.0594L31.0832 62.1382C32.7378 63.7926 35.4533 63.6798 36.9649 61.8934L37.1171 61.7138C40.6232 57.7534 49.5324 48.4114 62.5912 45.247C64.7544 44.7226 66.3064 42.705 65.9908 40.5018L65.9112 39.9465C65.6004 37.7773 63.5948 36.244 61.464 36.7558C60.5008 36.9872 59.5632 37.25 58.6448 37.5366C56.4188 38.2314 54.08 36.5761 53.8188 34.2588ZM91.9749 58.8915C90.2633 58.8915 88.6217 59.5715 87.4113 60.7815C86.2009 61.9919 85.5209 63.6335 85.5209 65.3451C85.5209 67.0567 86.2009 68.6983 87.4113 69.9087C88.6217 71.1191 90.2633 71.7991 91.9749 71.7991C93.6865 71.7991 95.3281 71.1191 96.5385 69.9087C97.7489 68.6983 98.4289 67.0567 98.4289 65.3451C98.4289 63.6335 97.7489 61.9919 96.5385 60.7815C95.3281 59.5715 93.6865 58.8915 91.9749 58.8915Z" fill="url(#paint1_linear_54_1436)"/>
<path d="M57.9996 30.0566L57.9103 30.5486L57.9103 30.5486L57.9996 30.0566ZM53.8188 34.2588L54.3157 34.2028L54.3157 34.2028L53.8188 34.2588ZM67.3684 32.6714L67.1773 33.1335L67.1775 33.1335L67.3684 32.6714ZM77.5868 39.6631L78.0158 39.4063L78.0139 39.4032L77.5868 39.6631ZM77.6344 39.7426L77.2054 39.9995L77.206 40.0004L77.6344 39.7426ZM110.665 62.7082L110.204 62.9013L110.204 62.9019L110.665 62.7082ZM110.843 64.815L110.355 64.704L110.355 64.7042L110.843 64.815ZM105.154 78.1194L105.575 78.3896L105.575 78.3894L105.154 78.1194ZM74.1656 94.323L73.8334 93.9494L73.8327 93.95L74.1656 94.323ZM74.1248 94.3594L74.4566 94.7335L74.4577 94.7325L74.1248 94.3594ZM74.062 94.4138L73.7419 94.0297L73.74 94.0313L74.062 94.4138ZM68.7152 98.2854L68.9816 98.7086L68.9822 98.7082L68.7152 98.2854ZM68.1452 98.6166L67.9096 98.1756L67.9094 98.1757L68.1452 98.6166ZM64.0116 95.3918L64.5109 95.3642L64.5108 95.3637L64.0116 95.3918ZM64.0452 95.1163L64.5052 95.3122L64.5052 95.3122L64.0452 95.1163ZM64.1096 94.9234L63.6247 94.8015L63.6245 94.8023L64.1096 94.9234ZM64.1436 94.7882L64.6285 94.9102L64.6287 94.9097L64.1436 94.7882ZM61.8116 90.4758L61.9756 90.0035L61.9753 90.0034L61.8116 90.4758ZM61.4524 90.3514L61.2741 90.8186L61.2814 90.8213L61.2888 90.8239L61.4524 90.3514ZM37.1171 73.279L36.7354 73.602L36.7389 73.6061L37.1171 73.279ZM36.886 73.0058L37.2678 72.6829L37.2677 72.6828L36.886 73.0058ZM31.1695 72.7682L30.816 72.4147L30.8156 72.415L31.1695 72.7682ZM30.6511 73.1962L30.9271 73.6132L30.9271 73.6131L30.6511 73.1962ZM23.8869 76.8078L23.6885 76.3489L23.6885 76.3489L23.8869 76.8078ZM19.4554 72.6606L19.932 72.8119L19.932 72.8119L19.4554 72.6606ZM20.5118 69.5582L20.043 69.3846L20.0428 69.3851L20.5118 69.5582ZM20.664 69.209L20.2168 68.9854L20.2167 68.9857L20.664 69.209ZM20.6661 65.7878L21.1134 65.5643L21.1132 65.5639L20.6661 65.7878ZM20.5108 65.4302L20.0413 65.6022L20.0414 65.6024L20.5108 65.4302ZM19.1656 61.3726L19.6442 61.2277L19.6442 61.2277L19.1656 61.3726ZM23.4718 57.3494L23.6768 56.8934L23.6768 56.8934L23.4718 57.3494ZM30.8534 61.9178L31.1812 61.5402L31.1805 61.5396L30.8534 61.9178ZM31.0044 62.0594L31.358 61.7059L31.358 61.7059L31.0044 62.0594ZM31.0832 62.1382L30.7297 62.4918L30.7297 62.4918L31.0832 62.1382ZM36.9649 61.8934L36.5835 61.5702L36.5832 61.5705L36.9649 61.8934ZM37.1171 61.7138L36.7427 61.3823L36.7357 61.3906L37.1171 61.7138ZM62.5912 45.247L62.709 45.733L62.709 45.733L62.5912 45.247ZM65.9908 40.5018L66.4858 40.4309L66.4858 40.4309L65.9908 40.5018ZM65.9112 39.9465L65.4163 40.0174L65.4163 40.0175L65.9112 39.9465ZM61.464 36.7558L61.3472 36.2697L61.3472 36.2697L61.464 36.7558ZM58.6448 37.5366L58.4959 37.0593L58.4958 37.0593L58.6448 37.5366ZM87.4113 60.7815L87.0578 60.4279L87.0577 60.4279L87.4113 60.7815ZM87.4113 69.9087L87.7648 69.5551L87.7648 69.5551L87.4113 69.9087ZM96.5385 69.9087L96.1849 69.5551L96.1849 69.5551L96.5385 69.9087ZM96.5385 60.7815L96.892 60.4279L96.892 60.4279L96.5385 60.7815ZM58.089 29.5647C55.2837 29.0552 53.0146 31.5888 53.322 34.3149L54.3157 34.2028C54.0711 32.0337 55.8683 30.1777 57.9103 30.5486L58.089 29.5647ZM67.5596 32.2094C64.8065 31.0705 61.5743 30.1976 58.089 29.5647L57.9103 30.5486C61.3482 31.1729 64.5079 32.0292 67.1773 33.1335L67.5596 32.2094ZM78.0139 39.4032C77.5158 38.5848 76.2697 37.3574 74.5005 36.0667C72.7142 34.7635 70.3475 33.3612 67.5593 32.2093L67.1775 33.1335C69.8881 34.2534 72.1855 35.6156 73.9111 36.8745C75.6538 38.146 76.7674 39.2786 77.1597 39.9231L78.0139 39.4032ZM78.0634 39.4858L78.0158 39.4063L77.1578 39.92L77.2054 39.9995L78.0634 39.4858ZM81.0624 41.181C79.8343 41.181 78.6961 40.5374 78.0629 39.4849L77.206 40.0004C78.02 41.3535 79.4834 42.181 81.0624 42.181V41.181ZM81.2184 41.181H81.0624V42.181H81.2184V41.181ZM111.126 62.5151C109.223 57.969 100.909 41.181 81.2184 41.181V42.181C100.239 42.181 108.317 58.3954 110.204 62.9013L111.126 62.5151ZM111.33 64.9261C111.514 64.1201 111.448 63.2822 111.126 62.5146L110.204 62.9019C110.443 63.4719 110.494 64.0963 110.355 64.704L111.33 64.9261ZM105.575 78.3894C109.283 72.6092 110.768 67.4008 111.33 64.9258L110.355 64.7042C109.81 67.1045 108.361 72.1952 104.733 77.8494L105.575 78.3894ZM76.9156 93.8118C84.5811 93.8118 90.4846 91.9359 95.11 89.0573C99.7314 86.1813 103.05 82.321 105.575 78.3896L104.733 77.8493C102.262 81.697 99.0412 85.433 94.5817 88.2083C90.1262 90.9811 84.4082 92.8118 76.9156 92.8118V93.8118ZM76.824 93.8118H76.9156V92.8118H76.824V93.8118ZM74.4979 94.6967C75.1388 94.1268 75.9666 93.8118 76.824 93.8118V92.8118C75.7214 92.8118 74.6572 93.2168 73.8334 93.9494L74.4979 94.6967ZM74.4577 94.7325L74.4985 94.6961L73.8327 93.95L73.7919 93.9864L74.4577 94.7325ZM74.3821 94.7979C74.41 94.7747 74.4348 94.7528 74.4566 94.7335L73.7931 93.9853C73.7724 94.0036 73.7573 94.0169 73.7419 94.0297L74.3821 94.7979ZM68.9822 98.7082C71.9031 96.8632 74.0921 95.0421 74.384 94.7963L73.74 94.0313C73.4655 94.2624 71.3153 96.0517 68.4482 97.8627L68.9822 98.7082ZM68.3808 99.0577C68.5782 98.9522 68.7781 98.8366 68.9816 98.7086L68.4489 97.8623C68.2659 97.9774 68.0866 98.0811 67.9096 98.1756L68.3808 99.0577ZM63.5124 95.4194C63.5771 96.5908 64.2429 97.758 65.1266 98.5049C66.0087 99.2506 67.2363 99.6698 68.381 99.0575L67.9094 98.1757C67.2645 98.5207 66.4813 98.3407 65.7721 97.7412C65.0644 97.143 64.5581 96.2193 64.5109 95.3642L63.5124 95.4194ZM63.5852 94.9204C63.5704 94.9551 63.5364 95.0312 63.5199 95.1375C63.5056 95.2296 63.507 95.3241 63.5124 95.4199L64.5108 95.3637C64.5088 95.3273 64.5084 95.3054 64.5086 95.2927C64.5088 95.2805 64.5095 95.2818 64.508 95.2911C64.5073 95.2959 64.5061 95.3019 64.5045 95.3085C64.5028 95.3152 64.5011 95.3208 64.4997 95.3248C64.4984 95.3285 64.4977 95.3301 64.4986 95.328C64.4997 95.3252 64.5013 95.3215 64.5052 95.3122L63.5852 94.9204ZM63.6245 94.8023C63.6155 94.8382 63.6082 94.8611 63.603 94.8758C63.5978 94.8905 63.5933 94.9012 63.5852 94.9205L64.5052 95.3122C64.528 95.2587 64.5609 95.18 64.5947 95.0445L63.6245 94.8023ZM63.6587 94.6663L63.6247 94.8015L64.5945 95.0454L64.6285 94.9102L63.6587 94.6663ZM61.6477 90.9482C63.1799 91.4801 64.0525 93.0937 63.6586 94.6668L64.6287 94.9097C65.1484 92.834 63.997 90.7052 61.9756 90.0035L61.6477 90.9482ZM61.2888 90.8239L61.648 90.9483L61.9753 90.0034L61.6161 89.879L61.2888 90.8239ZM36.7389 73.6061C41.4014 78.9982 50.5277 86.7174 61.2741 90.8186L61.6307 89.8843C51.0707 85.8543 42.0746 78.2479 37.4953 72.952L36.7389 73.6061ZM36.5043 73.3287L36.7354 73.6019L37.4989 72.9561L37.2678 72.6829L36.5043 73.3287ZM31.5231 73.1218C32.9244 71.7206 35.2242 71.8161 36.5043 73.3288L37.2677 72.6828C35.6096 70.7235 32.631 70.5999 30.816 72.4147L31.5231 73.1218ZM30.9271 73.6131C31.1468 73.4677 31.3437 73.3015 31.5234 73.1214L30.8156 72.415C30.6767 72.5542 30.5313 72.6759 30.3751 72.7793L30.9271 73.6131ZM24.0854 77.2668C27.5739 75.7583 30.1039 74.158 30.9271 73.6132L30.3752 72.7793C29.5835 73.3033 27.1065 74.8709 23.6885 76.3489L24.0854 77.2668ZM18.9789 72.5094C17.9588 75.7231 20.9265 78.6327 24.0854 77.2668L23.6885 76.3489C21.3804 77.3469 19.1502 75.275 19.932 72.8119L18.9789 72.5094ZM20.0428 69.3851C19.8862 69.8093 19.4741 70.9488 18.9788 72.5094L19.932 72.8119C20.4215 71.2693 20.8283 70.1448 20.9809 69.7314L20.0428 69.3851ZM20.2167 68.9857C20.1525 69.1143 20.0942 69.2461 20.043 69.3846L20.9807 69.7319C21.018 69.6312 21.0613 69.5326 21.1114 69.4323L20.2167 68.9857ZM20.2189 66.0114C20.6859 66.9457 20.6843 68.0504 20.2168 68.9854L21.1112 69.4326C21.7189 68.2173 21.7217 66.7812 21.1134 65.5643L20.2189 66.0114ZM20.0414 65.6024C20.0937 65.7449 20.1527 65.8793 20.2191 66.0117L21.1132 65.5639C21.0621 65.4619 21.0184 65.362 20.9802 65.258L20.0414 65.6024ZM18.6871 61.5175C19.3055 63.5599 19.8539 65.0904 20.0413 65.6022L20.9803 65.2583C20.7974 64.7588 20.2556 63.247 19.6442 61.2277L18.6871 61.5175ZM23.6768 56.8934C22.1646 56.2138 20.6618 56.568 19.6673 57.5117C18.678 58.4503 18.2124 59.9502 18.6871 61.5176L19.6442 61.2277C19.2782 60.0195 19.6429 58.9133 20.3556 58.2371C21.063 57.5659 22.1336 57.2962 23.2669 57.8055L23.6768 56.8934ZM31.1805 61.5396C30.6771 61.1043 27.9062 58.7941 23.6768 56.8934L23.2669 57.8055C27.3772 59.6527 30.0658 61.8977 30.5264 62.296L31.1805 61.5396ZM31.358 61.7059C31.3025 61.6504 31.2453 61.5959 31.1812 61.5402L30.5257 62.2954C30.5675 62.3318 30.6071 62.3693 30.6509 62.413L31.358 61.7059ZM31.4368 61.7847L31.358 61.7059L30.6509 62.413L30.7297 62.4918L31.4368 61.7847ZM36.5832 61.5705C35.2606 63.1335 32.8845 63.2323 31.4368 61.7847L30.7297 62.4918C32.5911 64.353 35.6461 64.2261 37.3466 62.2164L36.5832 61.5705ZM36.7357 61.3906L36.5835 61.5702L37.3464 62.2167L37.4986 62.0371L36.7357 61.3906ZM62.4735 44.7611C49.2575 47.9636 40.2618 57.4074 36.7428 61.3824L37.4915 62.0453C40.9847 58.0995 49.8074 48.8593 62.709 45.733L62.4735 44.7611ZM65.4959 40.5727C65.7704 42.4888 64.4189 44.2895 62.4734 44.7611L62.709 45.733C65.0899 45.1558 66.8425 42.9212 66.4858 40.4309L65.4959 40.5727ZM65.4163 40.0175L65.4959 40.5728L66.4858 40.4309L66.4062 39.8756L65.4163 40.0175ZM61.5808 37.242C63.3915 36.8071 65.1422 38.1044 65.4163 40.0174L66.4062 39.8756C66.0587 37.4502 63.7981 35.681 61.3472 36.2697L61.5808 37.242ZM58.7938 38.0139C59.7028 37.7303 60.6296 37.4705 61.5808 37.242L61.3472 36.2697C60.3721 36.5039 59.4237 36.7698 58.4959 37.0593L58.7938 38.0139ZM53.322 34.3148C53.6154 36.918 56.2433 38.81 58.7938 38.0139L58.4958 37.0593C56.5944 37.6528 54.5447 36.2343 54.3157 34.2028L53.322 34.3148ZM87.7648 61.1351C88.8814 60.0188 90.3959 59.3915 91.9749 59.3915V58.3915C90.1307 58.3915 88.3619 59.1242 87.0578 60.4279L87.7648 61.1351ZM86.0209 65.3451C86.0209 63.7661 86.6482 62.2517 87.7648 61.135L87.0577 60.4279C85.7536 61.7321 85.0209 63.5009 85.0209 65.3451H86.0209ZM87.7648 69.5551C86.6482 68.4385 86.0209 66.9241 86.0209 65.3451H85.0209C85.0209 67.1893 85.7536 68.9581 87.0577 70.2622L87.7648 69.5551ZM91.9749 71.2991C90.3959 71.2991 88.8815 70.6718 87.7648 69.5551L87.0577 70.2622C88.3619 71.5664 90.1307 72.2991 91.9749 72.2991V71.2991ZM96.1849 69.5551C95.0683 70.6718 93.5539 71.2991 91.9749 71.2991V72.2991C93.8191 72.2991 95.5879 71.5664 96.892 70.2622L96.1849 69.5551ZM97.9289 65.3451C97.9289 66.9241 97.3016 68.4385 96.1849 69.5551L96.892 70.2622C98.1962 68.9581 98.9289 67.1893 98.9289 65.3451H97.9289ZM96.1849 61.135C97.3016 62.2517 97.9289 63.7661 97.9289 65.3451H98.9289C98.9289 63.5009 98.1962 61.7321 96.892 60.4279L96.1849 61.135ZM91.9749 59.3915C93.5539 59.3915 95.0683 60.0188 96.185 61.1351L96.892 60.4279C95.5878 59.1242 93.8191 58.3915 91.9749 58.3915V59.3915Z" fill="url(#paint2_linear_54_1436)"/>
<defs>
<linearGradient id="paint0_linear_54_1436" x1="8" y1="110.354" x2="132.48" y2="43.1004" gradientUnits="userSpaceOnUse">
<stop stop-color="#0357D1"/>
<stop offset="1" stop-color="#27CDFC"/>
</linearGradient>
<linearGradient id="paint1_linear_54_1436" x1="8.07483" y1="110.522" x2="132.555" y2="43.2686" gradientUnits="userSpaceOnUse">
<stop stop-color="#0357D1"/>
<stop offset="1" stop-color="#27CDFC"/>
</linearGradient>
<linearGradient id="paint2_linear_54_1436" x1="8.07483" y1="110.522" x2="132.555" y2="43.2686" gradientUnits="userSpaceOnUse">
<stop stop-color="#0357D1"/>
<stop offset="1" stop-color="#27CDFC"/>
</linearGradient>
</defs>
</svg>
