<svg width="24" height="24" viewBox="0 0 24 24" fill="none" xmlns="http://www.w3.org/2000/svg">
<path opacity="0.4" d="M9.5558 21.8H14.4442C17.8773 21.8 19.5944 21.8 20.8275 21.0058C21.358 20.6647 21.8163 20.2225 22.1761 19.7045C23 18.5165 23 16.861 23 13.55C23 10.239 23 8.58459 22.175 7.39549C21.8156 6.87752 21.3577 6.43535 20.8275 6.09419C19.5944 5.29999 17.8773 5.29999 14.4442 5.29999H9.5558C6.1227 5.29999 4.4056 5.29999 3.1725 6.09419C2.64233 6.43537 2.18446 6.87753 1.825 7.39549C1 8.58349 1 10.239 1 13.5478V13.55C1 16.861 1 18.5154 1.8239 19.7045C2.1803 20.2193 2.6379 20.6615 3.1725 21.0058C4.4056 21.8 6.1227 21.8 9.5558 21.8Z" fill="url(#paint0_linear_8_197)"/>
<path fill-rule="evenodd" clip-rule="evenodd" d="M7.60002 3.1C7.60002 2.4928 8.05432 2 8.61532 2H15.3847C15.9457 2 16.4 2.4928 16.4 3.1C16.4 3.7072 15.9457 4.2 15.3847 4.2H8.61532C8.05432 4.2 7.60002 3.7072 7.60002 3.1ZM7.41632 13.55C7.41632 11.1091 9.46892 9.1302 12 9.1302C14.5311 9.1302 16.5837 11.1102 16.5837 13.55C16.5837 15.992 14.5311 17.9698 12 17.9698C9.46892 17.9698 7.41632 15.9909 7.41632 13.55ZM9.25002 13.55C9.25002 12.0859 10.482 10.899 12 10.899C13.518 10.899 14.75 12.0859 14.75 13.55C14.75 15.0152 13.518 16.2021 12 16.2021C10.482 16.2021 9.25002 15.0141 9.25002 13.5511V13.55ZM17.8058 10.0146C17.8058 9.5262 18.2161 9.1302 18.7221 9.1302H19.3337C19.8397 9.1302 20.25 9.5262 20.25 10.0146C20.25 10.503 19.8397 10.899 19.3337 10.899H18.7221C18.2161 10.899 17.8058 10.503 17.8058 10.0146Z" fill="url(#paint1_linear_8_197)"/>
<path fill-rule="evenodd" clip-rule="evenodd" d="M18.7221 9.13019C18.2161 9.13019 17.8058 9.52619 17.8058 10.0146C17.8058 10.503 18.2161 10.899 18.7221 10.899H19.3337C19.8397 10.899 20.25 10.503 20.25 10.0146C20.25 9.52619 19.8397 9.13019 19.3337 9.13019H18.7221Z" fill="url(#paint2_linear_8_197)"/>
<defs>
<linearGradient id="paint0_linear_8_197" x1="12" y1="5.29999" x2="12" y2="21.8" gradientUnits="userSpaceOnUse">
<stop stop-color="#DC18FC"/>
<stop offset="1" stop-color="#8E1EFF"/>
</linearGradient>
<linearGradient id="paint1_linear_8_197" x1="13.8332" y1="2" x2="13.8332" y2="17.9698" gradientUnits="userSpaceOnUse">
<stop stop-color="#DC18FC"/>
<stop offset="1" stop-color="#8E1EFF"/>
</linearGradient>
<linearGradient id="paint2_linear_8_197" x1="19.0279" y1="9.13019" x2="19.0279" y2="10.899" gradientUnits="userSpaceOnUse">
<stop stop-color="#DC18FC"/>
<stop offset="1" stop-color="#8E1EFF"/>
</linearGradient>
</defs>
</svg>
