<svg width="128" height="128" viewBox="0 0 128 128" fill="none" xmlns="http://www.w3.org/2000/svg">
<g opacity="0.4">
<path d="M46.0043 91.4054C43.5691 91.4054 41.5948 93.3797 41.5948 95.8149C41.5948 98.2503 43.5692 100.224 46.0043 100.224H81.1121C83.5472 100.224 85.5216 98.2503 85.5216 95.8149C85.5216 93.3797 83.5473 91.4054 81.1121 91.4054H46.0043Z" fill="url(#paint0_linear_80_130)"/>
<path d="M46.0043 103.043C43.5688 103.043 41.5948 105.018 41.5948 107.453C41.5948 109.888 43.5691 111.862 46.0043 111.862H81.1121C83.5473 111.862 85.5216 109.888 85.5216 107.453C85.5216 105.018 83.5476 103.043 81.1121 103.043H46.0043Z" fill="url(#paint1_linear_80_130)"/>
<path fill-rule="evenodd" clip-rule="evenodd" d="M34.3664 30.1899C31.9312 30.1899 29.9569 32.1642 29.9569 34.5994V49.6727C29.9569 50.225 29.5092 50.6727 28.9569 50.6727H16.9095C14.4743 50.6727 12.5 52.6469 12.5 55.0821V95.8149C12.5 98.2503 14.4744 100.224 16.9095 100.224H28.9569C29.5092 100.224 29.9569 100.672 29.9569 101.224V119.091C29.9569 121.526 31.9312 123.5 34.3664 123.5H92.75C95.1852 123.5 97.1595 121.526 97.1595 119.091V101.224C97.1595 100.672 97.6072 100.224 98.1595 100.224H110.401C112.837 100.224 114.81 98.2499 114.81 95.8149V55.0821C114.81 52.6473 112.837 50.6727 110.401 50.6727H98.1595C97.6072 50.6727 97.1595 50.225 97.1595 49.6727V46.2373C97.1595 44.7635 96.4235 43.3863 95.1954 42.5682L77.739 30.9305C77.0144 30.4473 76.1632 30.1899 75.2931 30.1899H34.3664ZM38.7759 55.0821V40.0089C38.7759 39.4567 39.2236 39.0089 39.7759 39.0089H69.8836C70.4359 39.0089 70.8836 39.4567 70.8836 40.0089V46.2373C70.8836 48.6726 72.8579 50.6468 75.2931 50.6468H87.3405C87.8928 50.6468 88.3405 51.0946 88.3405 51.6468V55.0821C88.3405 55.858 87.7069 56.4916 86.931 56.4916H40.1853C39.4096 56.4916 38.7759 55.8581 38.7759 55.0821ZM22.319 91.4054C21.7667 91.4054 21.319 90.9577 21.319 90.4054V60.4916C21.319 59.9394 21.7667 59.4916 22.319 59.4916H30.3294C30.7141 59.4916 31.061 59.7146 31.2484 60.0505C32.996 63.1833 36.343 65.3106 40.1853 65.3106H86.931C90.7734 65.3106 94.1204 63.1833 95.868 60.0505C96.0554 59.7146 96.4023 59.4916 96.787 59.4916H104.991C105.543 59.4916 105.991 59.9394 105.991 60.4916V90.4054C105.991 90.9577 105.543 91.4054 104.991 91.4054H98.1595C97.6072 91.4054 97.1595 90.9577 97.1595 90.4054V89.9959C97.1595 84.3547 92.5721 79.7675 86.931 79.7675H40.1853C34.5441 79.7675 29.9569 84.3547 29.9569 89.9959V90.4054C29.9569 90.9577 29.5092 91.4054 28.9569 91.4054H22.319ZM38.7759 89.9959C38.7759 89.2202 39.4095 88.5865 40.1853 88.5865H86.931C87.7069 88.5865 88.3405 89.2202 88.3405 89.9959V113.681C88.3405 114.234 87.8928 114.681 87.3405 114.681H39.7759C39.2236 114.681 38.7759 114.234 38.7759 113.681V89.9959Z" fill="url(#paint2_linear_80_130)"/>
</g>
<path d="M28.5474 68.1299C26.1122 68.1299 24.1379 70.104 24.1379 72.5393C24.1379 74.9745 26.1122 76.9488 28.5474 76.9488C30.9826 76.9488 32.9569 74.9745 32.9569 72.5393C32.9569 70.104 30.9826 68.1299 28.5474 68.1299Z" fill="url(#paint3_linear_80_130)"/>
<path d="M40.1853 68.1299C37.7501 68.1299 35.7759 70.1041 35.7759 72.5393C35.7759 74.9744 37.75 76.9488 40.1853 76.9488C42.6207 76.9488 44.5948 74.9745 44.5948 72.5393C44.5948 70.104 42.6206 68.1299 40.1853 68.1299Z" fill="url(#paint4_linear_80_130)"/>
<path d="M45.9248 13.2472C50.5775 9.23511 56.5118 7.01927 62.6555 7C75.1779 7 85.5729 16.3103 86.7041 28.316C94.1151 29.3634 99.8965 35.5688 99.8965 43.1847C99.8965 51.5453 92.9234 58.2069 84.4742 58.2069H43.0153C33.3651 58.2069 25.4141 50.6003 25.4141 41.0666C25.4141 32.8595 31.3075 26.0629 39.1096 24.3405C39.7753 20.3231 42.3589 16.3197 45.9248 13.2472Z" fill="url(#paint5_linear_80_130)"/>
<defs>
<linearGradient id="paint0_linear_80_130" x1="63.6553" y1="122" x2="63.6553" y2="31.6899" gradientUnits="userSpaceOnUse">
<stop stop-color="#5570FF"/>
<stop offset="1" stop-color="#4DD3FF"/>
</linearGradient>
<linearGradient id="paint1_linear_80_130" x1="63.6553" y1="122" x2="63.6553" y2="31.6899" gradientUnits="userSpaceOnUse">
<stop stop-color="#5570FF"/>
<stop offset="1" stop-color="#4DD3FF"/>
</linearGradient>
<linearGradient id="paint2_linear_80_130" x1="63.6553" y1="122" x2="63.6553" y2="31.6899" gradientUnits="userSpaceOnUse">
<stop stop-color="#5570FF"/>
<stop offset="1" stop-color="#4DD3FF"/>
</linearGradient>
<linearGradient id="paint3_linear_80_130" x1="63.6553" y1="122" x2="63.6553" y2="31.6899" gradientUnits="userSpaceOnUse">
<stop stop-color="#5570FF"/>
<stop offset="1" stop-color="#4DD3FF"/>
</linearGradient>
<linearGradient id="paint4_linear_80_130" x1="63.6553" y1="122" x2="63.6553" y2="31.6899" gradientUnits="userSpaceOnUse">
<stop stop-color="#5570FF"/>
<stop offset="1" stop-color="#4DD3FF"/>
</linearGradient>
<linearGradient id="paint5_linear_80_130" x1="62.6555" y1="58.2069" x2="62.6555" y2="7" gradientUnits="userSpaceOnUse">
<stop stop-color="#5570FF"/>
<stop offset="1" stop-color="#4DD3FF"/>
</linearGradient>
</defs>
</svg>
