<svg width="64" height="64" viewBox="0 0 64 64" fill="none" xmlns="http://www.w3.org/2000/svg">
<circle opacity="0.4" cx="32" cy="32" r="28" fill="url(#paint0_linear_80_141)"/>
<path fill-rule="evenodd" clip-rule="evenodd" d="M15.6129 17.0305C15.5952 17.6901 14.9548 18.1519 14.3218 17.9657C12.6631 17.4778 10.9177 16.9942 9.26186 16.5831C8.86167 16.4838 8.44121 16.6431 8.21527 16.9881C5.54997 21.0567 4 25.9218 4 31.1489C4 38.419 6.99825 46.8983 11.8258 51.6864C12.04 51.8988 12.3438 51.9982 12.6314 51.9071C14.1655 51.4213 16.5972 49.7009 19.3506 50.017C23.8079 50.5227 26.2505 50.6938 29.1833 50.476C35.8732 49.9704 40.2917 48.8657 45.1926 46.4698C47.7596 45.2251 48.3042 44.6573 48.8487 43.1559C49.3855 41.7323 49.5799 40.4099 49.3155 40.4099C49.2143 40.4099 48.3742 40.7367 47.3707 41.2111C43.5978 43.0003 40.2917 43.8794 37.4135 43.7315C34.4342 43.5759 29.6188 41.8334 23.8158 39.0408L21.4324 37.947C21.1996 37.8402 21.0166 37.6481 20.9213 37.4103L19.869 34.7856C19.6016 34.1186 20.3488 33.502 20.953 33.891V33.891C24.7177 36.2936 28.7481 38.2514 32.9639 39.7253C37.9581 41.3045 41.8553 41.0867 45.8771 39.0408C47.3007 38.3173 50 36.5515 50 36.2948C50 35.8281 48.6153 31.1918 47.8219 29.0914C45.846 23.8483 44.4536 22.0747 41.1941 20.5189C37.5691 18.7919 33.5551 17.6173 26.2116 15.9448L25.6805 15.8314C22.7196 15.199 19.7865 14.5725 16.7867 14.1458C16.202 14.0626 15.6806 14.5112 15.6648 15.1016L15.6129 17.0305ZM39.7825 25.2611C38.8074 24.4923 37.5991 24.0799 36.3576 24.0921C36.354 24.0922 36.3506 24.0936 36.3481 24.0961V24.0961C36.3456 24.0986 36.3423 24.1 36.3388 24.1001C34.9842 24.1395 33.6887 24.6638 32.6882 25.578C31.0389 27.0715 30.5955 29.8098 31.5446 31.8712C31.9054 32.6769 32.4601 33.3805 33.1592 33.9194C33.8583 34.4583 34.68 34.8156 35.5508 34.9596C36.6859 35.1771 37.8612 35.0145 38.8947 34.497C39.9283 33.9796 40.7625 33.1361 41.2684 32.0968C41.9608 30.6578 42.0697 29.6853 41.7196 28.324C41.4426 27.1118 40.759 26.031 39.7825 25.2611ZM35.5508 29.3507C34.4929 28.355 35.6909 26.9547 37.6045 26.9547C38.5379 26.9547 39.6426 27.4216 39.7827 27.9894C39.9693 28.7439 39.7204 29.3197 38.9736 29.7008C37.8379 30.2842 36.4065 30.1598 35.5508 29.3507Z" fill="url(#paint1_linear_80_141)"/>
<defs>
<linearGradient id="paint0_linear_80_141" x1="35.9077" y1="55.7771" x2="27.4858" y2="5.49468" gradientUnits="userSpaceOnUse">
<stop stop-color="#37CE90"/>
<stop offset="1" stop-color="#9FF66A"/>
</linearGradient>
<linearGradient id="paint1_linear_80_141" x1="30.2099" y1="49.1501" x2="25.4435" y2="14.7169" gradientUnits="userSpaceOnUse">
<stop stop-color="#37CE90"/>
<stop offset="1" stop-color="#9FF66A"/>
</linearGradient>
</defs>
</svg>
