<svg width="192" height="192" viewBox="0 0 192 192" fill="none" xmlns="http://www.w3.org/2000/svg">
<path fill-rule="evenodd" clip-rule="evenodd" d="M88.8671 8.99014C87.3307 7.92305 85.7994 6.85945 83.86 6.64001C84.72 8.67001 85.46 10.74 86.18 12.81C85.0433 12.8705 83.8893 12.8286 82.7336 12.7866C80.2597 12.6968 77.7779 12.6067 75.44 13.52C75.2967 13.5979 75.1413 13.6766 74.9807 13.758C73.8416 14.3353 72.4412 15.0451 73.23 16.5C73.805 16.6628 74.4555 16.784 75.1259 16.9089C77.709 17.3901 80.588 17.9264 80.58 21.11C80.2439 21.133 79.9064 21.1524 79.5684 21.172C77.4017 21.297 75.2136 21.4233 73.25 22.47C73.5062 22.7845 73.8617 23.1114 74.2328 23.4527C75.4551 24.5766 76.8468 25.8565 75.42 27.36C75.1471 27.7251 74.8714 28.0904 74.5949 28.4566L74.5905 28.4624L74.5896 28.4635C71.8991 32.0273 69.1391 35.683 68.26 40.16C66.35 48.16 70.06 56.09 74.43 62.58C77.1027 66.5261 80.0333 70.293 82.9639 74.0599C87.4895 79.8769 92.015 85.6937 95.59 92.17C96.61 94.49 97.51 96.88 98.02 99.37C96.06 98.7114 94.9237 97.0325 93.811 95.3887L93.8109 95.3885C93.5044 94.9357 93.1997 94.4855 92.88 94.06C89.86 89.62 86.43 85.46 82.76 81.53C82.1443 82.1664 81.4687 82.8092 80.7773 83.4672C77.438 86.645 73.7284 90.1752 74.59 95.03C78.1 96.36 81.35 98.35 84.09 100.92C90.81 107.02 95.58 115.82 95.5 125.02C95.56 129.35 92.63 133.96 88.02 134.29C84.3003 134.837 80.9886 133.466 77.6684 132.092C75.4634 131.179 73.2546 130.265 70.92 129.91C72.39 135.18 77.54 138.34 82.2 140.53C86.61 141.58 91.4 141.6 95.55 139.6C103.27 136.06 108.15 128.32 110.47 120.4C112.917 112.719 112.301 104.658 111.696 96.7447C111.643 96.0552 111.591 95.3669 111.54 94.68C113.5 96.66 114.38 99.33 115.04 101.98C118.88 115.48 116.27 130.64 108 142C106.721 143.554 105.353 145.058 103.982 146.564C100.173 150.749 96.3426 154.958 94.35 160.34C90.87 169.05 95.47 179.6 103.17 184.36C102.695 182.229 101.755 180.278 100.813 178.325C100.01 176.659 99.2057 174.992 98.69 173.21C98.05 170.26 97.95 167.06 99.34 164.31C101.27 160.11 105.14 157.36 108.8 154.78C118.38 148.08 124.39 137.25 127.22 126.09C127.432 125.352 127.605 124.593 127.779 123.833C128.258 121.73 128.741 119.613 130.07 117.88C131.752 117.911 132.173 119.404 132.565 120.795C132.676 121.19 132.785 121.577 132.92 121.92C133.246 123.555 133.393 125.217 133.54 126.879C133.739 129.14 133.939 131.4 134.59 133.59C135.41 124.91 134.46 116.12 132.24 107.72C132.188 107.512 132.134 107.302 132.08 107.092C131.455 104.659 130.8 102.108 131.73 99.66C131.78 99.46 131.858 99.1575 131.935 98.855C132.013 98.5525 132.09 98.25 132.14 98.05C131.463 96.206 130.31 94.5213 129.159 92.8402C127.164 89.9264 125.176 87.0233 125.69 83.32C122.89 81.01 120.25 78.43 118.94 74.96C117.092 73.7731 115.104 72.8429 113.118 71.9127L113.117 71.9127C112.041 71.4087 110.964 70.9047 109.91 70.36C103.26 67.09 96.46 63.02 92.53 56.53C90.56 53.52 92.03 49.71 95.05 48.12C95.5157 48.6196 95.9685 49.1395 96.4226 49.6609L96.4227 49.661C97.9774 51.4461 99.5462 53.2474 101.69 54.3C103.706 55.2763 105.902 55.5849 108.098 55.8934C109.343 56.0683 110.588 56.2433 111.8 56.54C114.286 57.0969 116.133 58.8464 117.964 60.581C120.243 62.7402 122.498 64.8763 125.93 64.66C126.163 62.9665 125.001 61.9809 123.849 61.0043C123.416 60.6373 122.985 60.2716 122.63 59.87C122.765 58.3782 123.618 57.0994 124.47 55.8207C125.446 54.3567 126.421 52.8929 126.32 51.11C123.102 46.1908 117.283 44.0739 111.968 42.1404L111.61 42.01C110.08 41.38 108.58 40.68 107.09 39.98C109.82 38.31 113.21 37.48 116.24 38.88C122.69 41.71 129.77 42.76 136.77 42.93C137.26 40.23 137.74 37.52 137.91 34.78C137.82 33.06 137.1 31.34 135.62 30.37C133.814 29.1258 131.692 28.6762 129.571 28.2268C127.311 27.7479 125.053 27.2693 123.18 25.83C120.21 23.7237 118.402 20.6512 116.592 17.5757L116.592 17.5756C115.343 15.453 114.093 13.3289 112.46 11.52C110.857 9.8343 108.772 10.3012 106.72 10.7608C105.801 10.9665 104.889 11.1707 104.03 11.18C102.162 10.4962 100.544 9.35288 98.9269 8.21112C98.3448 7.80004 97.763 7.38916 97.17 7.00001C96.9518 7.31642 96.7369 7.67548 96.5151 8.04611L96.515 8.04626L96.5149 8.04645C95.5169 9.71394 94.3789 11.6154 92.17 10.92C90.9777 10.4561 89.9212 9.72231 88.8671 8.99014ZM103.38 18.42C100.41 21.22 104.26 26.27 107.71 23.97C111.84 21.47 106.94 15.1 103.38 18.42ZM134.482 47.5734L134.482 47.5734C131.534 47.1252 128.589 46.6775 125.61 46.77C127.279 49.117 129.675 50.5993 132.079 52.0863C133.68 53.0765 135.285 54.0688 136.68 55.32C138.751 56.9599 140.06 59.2514 141.352 61.5128C141.62 61.9818 141.887 62.4496 142.16 62.91C142.696 62.832 143.236 62.7216 143.778 62.6109C145.389 62.2816 147.019 61.9486 148.62 62.45C150.223 62.9486 151.303 64.2241 152.36 65.4727C152.681 65.8518 152.999 66.2284 153.33 66.58C155.8 69.26 158.58 72.15 162.36 72.75C164.863 73.1551 167.268 72.2149 169.569 71.3156L169.573 71.3139C169.827 71.2148 170.079 71.1162 170.33 71.02C169.319 69.1024 167.423 68.5422 165.506 67.9757C164.124 67.5674 162.731 67.1558 161.65 66.23C160.767 64.9831 160.439 63.4816 160.111 61.9797C159.719 60.1812 159.326 58.3824 157.98 57.02C156.621 55.2372 154.58 54.7573 152.527 54.2747C150.804 53.8694 149.072 53.4622 147.73 52.28L147.622 52.1935C145.374 50.3984 142.992 48.4965 139.99 48.28C138.147 48.1306 136.314 47.8519 134.482 47.5734ZM53.37 63.72C41.87 61.34 29.91 64.31 19.72 69.77C19.1385 70.1086 18.5296 70.4294 17.9159 70.7527C15.5218 72.0139 13.056 73.3128 11.87 75.86C14.5223 76.3429 17.2546 76.2633 19.9837 76.1837C24.1484 76.0623 28.3057 75.9412 32.16 77.82C32.3874 77.9499 32.6594 78.0716 32.9408 78.1976C34.0452 78.6919 35.2952 79.2513 34.57 80.63C32.1246 82.3304 29.5321 83.8228 26.9393 85.3154C22.6402 87.7902 18.3405 90.2654 14.71 93.69C13.29 94.95 12.26 96.58 11.72 98.4L12.55 97.83C16.13 95.1 19.94 92.5 24.42 91.52C25.6398 91.2341 26.86 90.9356 28.0816 90.6368C33.7399 89.2526 39.4289 87.8609 45.26 87.68C44.95 88.77 44.62 89.86 44.28 90.95C43.9326 91.9471 43.5226 92.933 43.1119 93.9205C41.974 96.6566 40.831 99.4052 41 102.44L41.85 102.11C44.0977 101.399 46.1018 100.198 48.1071 98.9954C49.5722 98.117 51.0379 97.2381 52.6 96.55C59.4 93.31 67.43 92.51 74.59 95.03C73.7284 90.1751 77.4379 86.645 80.7773 83.4672C81.4687 82.8092 82.1442 82.1664 82.76 81.53C74.79 73.16 64.89 66.01 53.37 63.72Z" fill="url(#paint0_linear_80_204)"/>
<path opacity="0.4" fill-rule="evenodd" clip-rule="evenodd" d="M53.9504 20.4339L53.9495 20.4345L53.9435 20.4384C53.8482 20.4995 53.7537 20.5601 53.66 20.62C41.1 28.92 30.35 40.41 24.09 54.18C22.58 57.59 25.43 60.43 28.2 61.9L28.2841 61.8778C30.833 61.2036 33.682 60.4502 34.77 57.74C40.84 46.09 50.05 36.1 61.29 29.28C63.83 28.06 64.89 25.47 65.58 22.91C65.3221 22.5435 65.079 22.1509 64.8338 21.7547L64.8337 21.7547C63.995 20.3999 63.1307 19.0039 61.56 18.47C58.8481 17.2913 56.1913 18.9961 53.9504 20.4339ZM175.99 76.42C172.46 75.96 169.22 79.43 169.9 82.93C171.47 98.69 167.79 114.92 159.36 128.34C149.13 144.8 131.99 156.89 112.93 160.58C112.714 160.621 112.493 160.662 112.269 160.703C109.844 161.146 107.073 161.653 106.02 164.18C104.312 167.066 106.424 169.962 108.093 172.251L108.1 172.26C114.44 172.42 120.6 170.57 126.53 168.53C145.71 161.76 162.09 147.59 171.7 129.68C179.66 115.14 182.66 98.22 181.26 81.77C180.94 79.06 178.81 76.6 175.99 76.42ZM18.6 112.51C17.27 108.76 20.91 104.59 24.8 105.32C27.68 105.59 29.33 108.34 29.97 110.89C33.34 122.57 39.97 133.16 48.53 141.75C58.41 151.15 70.86 157.87 84.26 160.57C86.3073 160.849 87.8436 162.211 89.3284 163.527C89.4391 163.625 89.5496 163.723 89.66 163.82C90.09 167.47 88.34 172.21 83.97 171.92C75.27 170.8 67.03 167.4 59.21 163.55C52.5 159.87 46.29 155.28 40.77 149.98C30.23 139.75 22.43 126.71 18.6 112.51Z" fill="url(#paint1_linear_80_204)"/>
<defs>
<linearGradient id="paint0_linear_80_204" x1="169.86" y1="7.76667" x2="-5.1536" y2="162.661" gradientUnits="userSpaceOnUse">
<stop stop-color="#FE7970"/>
<stop offset="1" stop-color="#DC3282"/>
</linearGradient>
<linearGradient id="paint1_linear_80_204" x1="176.987" y1="95.1728" x2="42.6366" y2="43.7124" gradientUnits="userSpaceOnUse">
<stop stop-color="#FE7970"/>
<stop offset="1" stop-color="#DC3282"/>
</linearGradient>
</defs>
</svg>
