<svg width="128" height="128" viewBox="0 0 128 128" fill="none" xmlns="http://www.w3.org/2000/svg">
<path opacity="0.4" d="M31.0934 5H31.0982H55.1017H55.1066C59.1449 5.00325 62.7718 7.22116 64.7163 10.65L76.0705 31.4544H100.074H100.079C104.117 31.4577 107.744 33.6751 109.688 37.1039L109.689 37.1044L121.688 58.2681C123.667 61.759 123.667 66.059 121.688 69.5499L109.689 90.7135L109.688 90.714C107.744 94.1428 104.117 96.3602 100.079 96.3635H100.074L76.8807 96.1864L64.8814 117.35L64.8811 117.351C62.9366 120.779 59.3101 122.997 55.2718 123H55.2669H31.2634H31.2586C27.2202 122.997 23.5937 120.779 21.6492 117.351L21.6489 117.35L9.64955 96.1863C7.67039 92.6954 7.67044 88.3955 9.6496 84.9046L21.4837 64.2591L9.48437 43.0954C7.50521 39.6045 7.50527 35.3045 9.48443 31.8136L21.484 10.6495C23.4285 7.22066 27.055 5.00325 31.0934 5Z" fill="url(#paint0_linear_60_133)"/>
<path d="M31.0982 11V5H31.0934L31.0982 11ZM55.1017 11L55.1066 5H55.1017V11ZM55.1017 63.9091V69.9091H55.1066L55.1017 63.9091ZM31.0982 63.9091L31.0934 69.9091H31.0982V63.9091ZM76.0705 37.4544V31.4544H76.0657L76.0705 37.4544ZM76.0705 90.3635L76.0657 96.3635H76.0705V90.3635ZM100.074 90.3635V96.3635H100.079L100.074 90.3635ZM104.469 87.7542L109.688 90.714L109.689 90.7135L104.469 87.7542ZM104.469 40.0637L109.689 37.1044L109.688 37.1039L104.469 40.0637ZM100.074 37.4544L100.079 31.4544H100.074V37.4544ZM31.2634 64.0909V58.0909H31.2586L31.2634 64.0909ZM26.8683 114.391L21.6489 117.35L21.6492 117.351L26.8683 114.391ZM31.2634 117L31.2586 123H31.2634V117ZM55.2669 117V123H55.2718L55.2669 117ZM59.662 114.391L64.8811 117.351L64.8814 117.35L59.662 114.391ZM55.2669 64.0909L55.2718 58.0909H55.2669V64.0909ZM31.0934 5C27.055 5.00325 23.4285 7.22066 21.484 10.6495L31.9223 16.5691C31.81 16.7672 31.5268 16.9997 31.103 17L31.0934 5ZM55.1017 5H31.0982V17H55.1017V5ZM64.7163 10.65C62.7718 7.22116 59.1449 5.00325 55.1066 5L55.0969 17C54.6731 16.9997 54.39 16.7672 54.2777 16.5691L64.7163 10.65ZM76.7156 31.8137L64.7163 10.65L54.2777 16.5691L66.2767 37.7322L76.7156 31.8137ZM76.7155 43.0954C78.6947 39.6046 78.6947 35.3046 76.7156 31.8137L66.2767 37.7322C66.2204 37.6328 66.2 37.5361 66.2 37.4545C66.2 37.373 66.2203 37.2763 66.2766 37.1769L76.7155 43.0954ZM64.716 64.2596L76.7155 43.0954L66.2766 37.1769L54.2774 58.3405L64.716 64.2596ZM55.1066 69.9091C59.1449 69.9058 62.7715 67.6884 64.716 64.2596L54.2774 58.3405C54.3897 58.1424 54.6731 57.9094 55.0969 57.9091L55.1066 69.9091ZM31.0982 69.9091H55.1017V57.9091H31.0982V69.9091ZM21.4837 64.2591C23.4282 67.6879 27.055 69.9058 31.0934 69.9091L31.103 57.9091C31.5268 57.9094 31.81 58.1419 31.9223 58.34L21.4837 64.2591ZM9.48437 43.0954L21.4837 64.2591L31.9223 58.34L19.9233 37.1768L9.48437 43.0954ZM9.48443 31.8136C7.50527 35.3045 7.50521 39.6045 9.48437 43.0954L19.9233 37.1768C19.9796 37.2762 20 37.373 20 37.4545C20 37.5361 19.9797 37.6328 19.9234 37.7321L9.48443 31.8136ZM21.484 10.6495L9.48443 31.8136L19.9234 37.7321L31.9223 16.5691L21.484 10.6495ZM76.8946 43.0235C76.7823 43.2216 76.4991 43.4541 76.0753 43.4544L76.0657 31.4544C72.0273 31.4577 68.4008 33.6751 66.4563 37.1039L76.8946 43.0235ZM64.8956 64.1867L76.8946 43.0235L66.4563 37.1039L54.4567 58.2681L64.8956 64.1867ZM64.8956 63.6314C64.952 63.7307 64.9723 63.8274 64.9723 63.909C64.9723 63.9906 64.952 64.0873 64.8956 64.1867L54.4567 58.2681C52.4775 61.759 52.4775 66.0589 54.4567 69.5498L64.8956 63.6314ZM76.8949 84.7949L64.8956 63.6314L54.4567 69.5498L66.456 90.7135L76.8949 84.7949ZM76.0753 84.3635C76.4991 84.3638 76.7826 84.5968 76.8949 84.7949L66.456 90.7135C68.4005 94.1423 72.0273 96.3602 76.0657 96.3635L76.0753 84.3635ZM100.074 84.3635H76.0705V96.3635H100.074V84.3635ZM99.2499 84.7944C99.3623 84.5963 99.6454 84.3638 100.069 84.3635L100.079 96.3635C104.117 96.3602 107.744 94.1428 109.688 90.714L99.2499 84.7944ZM111.249 63.6313L99.2499 84.7944L109.689 90.7135L121.688 69.5499L111.249 63.6313ZM111.249 64.1866C111.193 64.0872 111.172 63.9905 111.172 63.909C111.172 63.8274 111.193 63.7306 111.249 63.6313L121.688 69.5499C123.667 66.059 123.667 61.759 121.688 58.2681L111.249 64.1866ZM99.2497 43.023L111.249 64.1866L121.688 58.2681L109.689 37.1044L99.2497 43.023ZM100.069 43.4544C99.6454 43.4541 99.3621 43.2211 99.2497 43.023L109.688 37.1039C107.744 33.6751 104.117 31.4577 100.079 31.4544L100.069 43.4544ZM76.0705 43.4544H100.074V31.4544H76.0705V43.4544ZM32.0875 69.66C31.9751 69.8581 31.692 70.0906 31.2682 70.0909L31.2586 58.0909C27.2202 58.0942 23.5937 60.3116 21.6492 63.7404L32.0875 69.66ZM20.0885 90.8232L32.0875 69.66L21.6492 63.7404L9.6496 84.9046L20.0885 90.8232ZM20.0885 90.2679C20.1449 90.3672 20.1652 90.4639 20.1652 90.5455C20.1652 90.627 20.1449 90.7238 20.0885 90.8232L9.6496 84.9046C7.67044 88.3955 7.67039 92.6954 9.64955 96.1863L20.0885 90.2679ZM32.0878 111.431L20.0885 90.2679L9.64955 96.1863L21.6489 117.35L32.0878 111.431ZM31.2682 111C31.692 111 31.9754 111.233 32.0878 111.431L21.6492 117.351C23.5937 120.779 27.2202 122.997 31.2586 123L31.2682 111ZM55.2669 111H31.2634V123H55.2669V111ZM54.4428 111.431C54.5552 111.233 54.8383 111 55.2621 111L55.2718 123C59.3101 122.997 62.9366 120.779 64.8811 117.351L54.4428 111.431ZM66.4418 90.2678L54.4428 111.431L64.8814 117.35L76.8807 96.1864L66.4418 90.2678ZM66.4418 90.8231C66.3854 90.7237 66.3651 90.627 66.3651 90.5455C66.3651 90.4639 66.3854 90.3672 66.4418 90.2678L76.8807 96.1864C78.8598 92.6955 78.8599 88.3955 76.8808 84.9047L66.4418 90.8231ZM54.4426 69.6595L66.4418 90.8231L76.8808 84.9047L64.8814 63.7409L54.4426 69.6595ZM55.2621 70.0909C54.8383 70.0906 54.555 69.8576 54.4426 69.6595L64.8814 63.7409C62.9369 60.3121 59.3101 58.0942 55.2718 58.0909L55.2621 70.0909ZM31.2634 70.0909H55.2669V58.0909H31.2634V70.0909Z" fill="url(#paint1_linear_60_133)"/>
<defs>
<linearGradient id="paint0_linear_60_133" x1="14" y1="64" x2="117.172" y2="64" gradientUnits="userSpaceOnUse">
<stop stop-color="#02AA93"/>
<stop offset="1" stop-color="#67FF80"/>
</linearGradient>
<linearGradient id="paint1_linear_60_133" x1="14" y1="64" x2="117.172" y2="64" gradientUnits="userSpaceOnUse">
<stop stop-color="#02AA93"/>
<stop offset="1" stop-color="#67FF80"/>
</linearGradient>
</defs>
</svg>
