<svg width="64" height="64" viewBox="0 0 64 64" fill="none" xmlns="http://www.w3.org/2000/svg">
<path opacity="0.6" fill-rule="evenodd" clip-rule="evenodd" d="M21.8125 13.387C21.8125 12.9103 22.1489 12.4999 22.6164 12.4064L25.0008 11.9296C25.4953 11.8307 25.9861 12.1155 26.1456 12.5939L26.7782 14.4919C27.0917 15.4325 27.9719 16.0669 28.9633 16.0669H35.0367C36.0281 16.0669 36.9083 15.4325 37.2218 14.4919L37.8545 12.5939C38.014 12.1155 38.5047 11.8307 38.9993 11.9296L41.3837 12.4064C41.8511 12.4999 42.1876 12.9103 42.1876 13.387V16.9053C42.1876 17.6754 42.5725 18.3946 43.2132 18.8217L47.7755 21.8633C48.5491 22.3791 49.5571 22.3791 50.3307 21.8633L51.9024 20.8154C52.4029 20.4818 53.0826 20.6623 53.3516 21.2003L53.7874 22.0719C53.9799 22.4569 53.9044 22.9219 53.6001 23.2262L52.1638 24.6625C51.7319 25.0944 51.4892 25.6803 51.4892 26.2912V40.0705C51.4892 40.6228 51.0415 41.0705 50.4892 41.0705H45.4874C44.5089 41.0705 43.7157 41.8638 43.7157 42.8423V44.1013C43.7157 44.6536 43.268 45.1013 42.7157 45.1013H39.8877C39.3354 45.1013 38.8877 44.6536 38.8877 44.1013V42.8423C38.8877 41.8638 38.0945 41.0705 37.1159 41.0705H32H26.8841C25.9056 41.0705 25.1123 41.8638 25.1123 42.8423V44.1013C25.1123 44.6536 24.6646 45.1013 24.1123 45.1013H21.2843C20.7321 45.1013 20.2843 44.6536 20.2843 44.1013V42.8423C20.2843 41.8638 19.4911 41.0705 18.5126 41.0705H13.5108C12.9585 41.0705 12.5108 40.6228 12.5108 40.0705V26.2912C12.5108 25.6803 12.2681 25.0944 11.8362 24.6625L10.3999 23.2262C10.0956 22.9219 10.0201 22.4569 10.2126 22.0719L10.6484 21.2003C10.9174 20.6623 11.5971 20.4818 12.0976 20.8154L13.6693 21.8633C14.443 22.3791 15.4509 22.3791 16.2246 21.8633L20.7868 18.8217C21.4276 18.3946 21.8125 17.6754 21.8125 16.9053V13.387ZM12.5174 44.614C12.5138 44.614 12.5108 44.617 12.5108 44.6207V44.6207C12.5108 44.6213 12.5109 44.6218 12.511 44.6224C12.6081 44.9698 12.9914 46.0518 14.2324 47.2922C15.8756 48.9346 19.218 51.05 25.9437 51.9447H38.1848C44.9517 51.8434 48.1874 49.725 49.7538 47.9835C51.0841 46.5046 51.4212 45.0633 51.4881 44.7026C51.4889 44.6981 51.4892 44.694 51.4892 44.6895V44.6895C51.4892 44.6478 51.4555 44.614 51.4138 44.614H48.2592C47.7069 44.614 47.2592 45.0618 47.2592 45.614V46.873C47.2592 47.8516 46.466 48.6448 45.4874 48.6448H37.1159C36.1374 48.6448 35.3442 47.8516 35.3442 46.873V45.614C35.3442 45.0618 34.8965 44.614 34.3442 44.614H32H29.6558C29.1036 44.614 28.6558 45.0618 28.6558 45.614V46.873C28.6558 47.8516 27.8626 48.6448 26.8841 48.6448H18.5126C17.5341 48.6448 16.7408 47.8516 16.7408 46.873V45.614C16.7408 45.0618 16.2931 44.614 15.7408 44.614H12.5174ZM51.4906 44.9312C51.4899 44.9129 51.4895 44.8918 51.4893 44.8682C51.49 44.9221 51.4937 45.023 51.4906 44.9312ZM29.4749 8.5752C29.1076 7.47323 27.9772 6.81721 26.8381 7.04502L19.2347 8.56572C18.1581 8.78104 17.3831 9.72633 17.3831 10.8243V15.2323C17.3831 15.5667 17.216 15.8789 16.9378 16.0644L15.5017 17.0218C15.1658 17.2457 14.7282 17.2457 14.3923 17.0218L11.6081 15.1657C10.4553 14.3972 8.88992 14.8129 8.27035 16.0521L5.24322 22.1063C4.79986 22.9931 4.97365 24.064 5.67468 24.7651L7.78853 26.8789C7.97606 27.0665 8.08142 27.3208 8.08142 27.586V44.835C8.08081 44.9003 8.08303 44.9686 8.0889 45.0395C8.09411 45.1025 8.10095 45.1522 8.1044 45.176C8.16347 45.585 8.6044 47.9295 11.1012 50.425C13.6015 52.9241 17.9664 55.3775 25.5142 56.3558L25.6559 56.3741H25.7989H38.2011H38.2172L38.2333 56.3739C45.9929 56.2613 50.4999 53.7774 53.047 50.9457C55.5362 48.1783 55.8763 45.3843 55.9071 45.0835C55.9086 45.0688 55.9127 45.028 55.9155 44.9757C55.917 44.9468 55.9183 44.9136 55.9186 44.8771C55.9187 44.8632 55.9187 44.8499 55.9186 44.8375V27.586C55.9186 27.3208 56.024 27.0665 56.2115 26.8789L58.3253 24.7651C59.0263 24.064 59.2001 22.9931 58.7568 22.1063L55.7297 16.0521C55.1101 14.8129 53.5446 14.3972 52.3919 15.1657L49.6078 17.0218C49.2719 17.2457 48.8343 17.2457 48.4984 17.0218L47.0622 16.0644C46.784 15.8789 46.6169 15.5667 46.6169 15.2323V10.8243C46.6169 9.72633 45.842 8.78104 44.7654 8.56572L37.1618 7.04502C36.0229 6.81721 34.8924 7.47323 34.5251 8.5752L33.7322 10.9538C33.5961 11.3621 33.214 11.6375 32.7836 11.6375H31.2165C30.786 11.6375 30.4039 11.3621 30.2678 10.9538L29.4749 8.5752Z" fill="url(#paint0_linear_69_337)"/>
<path d="M17.25 26.25H24.1389C24.6912 26.25 25.1389 26.6977 25.1389 27.25V34.1389C25.1389 34.6912 24.6912 35.1389 24.1389 35.1389H17.25C16.6977 35.1389 16.25 34.6912 16.25 34.1389V27.25C16.25 26.6977 16.6977 26.25 17.25 26.25Z" fill="url(#paint1_linear_69_337)"/>
<path d="M46.25 26.25H39.3611C38.8088 26.25 38.3611 26.6977 38.3611 27.25V34.1389C38.3611 34.6912 38.8088 35.1389 39.3611 35.1389H46.25C46.8023 35.1389 47.25 34.6912 47.25 34.1389V27.25C47.25 26.6977 46.8023 26.25 46.25 26.25Z" fill="url(#paint2_linear_69_337)"/>
<defs>
<linearGradient id="paint0_linear_69_337" x1="10.3838" y1="31.6871" x2="49.4989" y2="31.6871" gradientUnits="userSpaceOnUse">
<stop stop-color="#5570FF"/>
<stop offset="1" stop-color="#4DD3FF"/>
</linearGradient>
<linearGradient id="paint1_linear_69_337" x1="5.26444" y1="34.0374" x2="61.3333" y2="34.0374" gradientUnits="userSpaceOnUse">
<stop stop-color="#5570FF"/>
<stop offset="1" stop-color="#4DD3FF"/>
</linearGradient>
<linearGradient id="paint2_linear_69_337" x1="5.26444" y1="34.0374" x2="61.3333" y2="34.0374" gradientUnits="userSpaceOnUse">
<stop stop-color="#5570FF"/>
<stop offset="1" stop-color="#4DD3FF"/>
</linearGradient>
</defs>
</svg>
