<svg width="32" height="32" viewBox="0 0 32 32" fill="none" xmlns="http://www.w3.org/2000/svg">
<path opacity="0.4" fill-rule="evenodd" clip-rule="evenodd" d="M7.72855 2.08433C7.77629 2.03665 7.83728 2.00797 7.90083 2.00151C7.96437 1.99501 8.03136 2.00942 8.08813 2.04631L12.2718 4.77121C12.1452 4.82828 12.0383 4.88727 12.3059 4.7943L12.9088 5.37594C13.4092 5.85878 13.2752 6.69713 12.7073 7.09836C10.4645 8.68265 9 11.2953 9 14.25C9 19.0825 12.9175 23 17.75 23C21.0217 23 23.8741 21.2043 25.3753 18.5448C25.4176 18.4698 25.5205 18.4558 25.58 18.5179V18.5179C25.7078 18.6534 25.7881 18.7378 25.8644 18.8257C26.0634 19.0549 26.2347 19.3079 27.1468 20.5503L29.9578 24.0859C30.0264 24.1975 30.0103 24.3407 29.9169 24.4334L27.7075 26.6274C27.6112 26.7229 27.4625 26.7368 27.3493 26.6628L23.7472 24.3182C23.43 24.1117 23.0252 24.1055 22.6885 24.2782C22.174 24.542 21.636 24.7672 21.0784 24.9494C20.7318 25.0626 20.4577 25.3376 20.3706 25.6916L19.3634 29.7828C19.3321 29.9108 19.2172 30 19.0859 30H15.9618C15.8271 30 15.709 29.9065 15.6816 29.7746L14.8327 25.7193C14.7554 25.3503 14.4759 25.0598 14.1178 24.9419C13.5872 24.7672 13.0747 24.5537 12.5828 24.305C12.2589 24.1413 11.8726 24.1424 11.5619 24.3298L7.88443 26.5474C7.77117 26.615 7.62728 26.5973 7.53441 26.5053L5.32502 24.3113C5.22887 24.2161 5.2137 24.067 5.28811 23.9541L7.61623 20.4287C7.82428 20.1136 7.83357 19.71 7.66514 19.3721C7.39267 18.8255 7.16554 18.2529 6.98626 17.6593C6.87815 17.3013 6.59798 17.0166 6.2346 16.9284L2.21738 15.9532C2.0901 15.9227 2 15.8088 2 15.6776V12.5766C2 12.442 2.09486 12.3255 2.22696 12.2983L6.39223 11.4372C6.75148 11.3629 7.03769 11.0966 7.16255 10.7517C7.33348 10.2794 7.53572 9.82233 7.76713 9.38253C7.94034 9.05336 7.94199 8.6563 7.74803 8.33892L5.47816 4.62458C5.40968 4.5126 5.42765 4.3695 5.52053 4.27701L7.72855 2.08433ZM12.3059 4.7943C12.5805 4.64577 12.4131 4.70746 12.2718 4.77121L12.3059 4.7943Z" fill="url(#paint0_linear_54_1220)"/>
<path d="M17.8974 7.00073C18.834 6.98724 19.7637 7.1618 20.6315 7.51408C21.4995 7.86635 22.2879 8.38915 22.9499 9.05156C24.2627 10.3643 25 12.1446 25 14.0009C25 15.8572 24.2627 17.6375 22.9499 18.9502C21.637 20.2627 19.8566 21 18 21C16.1435 21 14.3629 20.2627 13.05 18.9502C11.7374 17.6375 11 15.8572 11 14.0009C11 12.1446 11.7374 10.3643 13.05 9.05156C14.3375 7.76352 16.0764 7.02787 17.8974 7.00073ZM18.0889 7.87574C16.6575 7.85752 15.2674 8.341 14.158 9.23839C14.0678 9.31134 14.0633 9.44597 14.1453 9.52798L15.0866 10.4692C15.1625 10.5451 15.2847 10.5474 15.3648 10.476C16.0483 9.86658 16.7934 9.35384 17.5578 8.9674C18.0752 8.70586 18.5941 8.50589 19.1009 8.37178C19.3069 8.31726 19.3238 8.01949 19.1143 7.98015C18.7766 7.9167 18.4335 7.88169 18.0889 7.87574ZM20.7382 9.01908C20.0193 8.97829 19.1907 9.15998 18.3331 9.54653C17.5321 9.90757 16.731 10.4359 15.9975 11.0857C15.9124 11.1611 15.9099 11.2924 15.9903 11.3727L17.8586 13.2408C17.9367 13.3189 18.0633 13.3189 18.1414 13.2408L21.8075 9.57524C21.8975 9.48517 21.8815 9.3346 21.7673 9.27819C21.468 9.13038 21.1219 9.04304 20.7382 9.01908ZM13.5218 10.1419C13.4396 10.0598 13.3047 10.0645 13.2319 10.1551C12.6108 10.9274 12.1856 11.8398 11.9944 12.8144C11.8462 13.57 11.8423 14.344 11.98 15.0963C12.0183 15.3058 12.3156 15.2906 12.3711 15.085C12.5074 14.5799 12.7089 14.0632 12.9713 13.5484C13.3586 12.7885 13.8705 12.0483 14.4776 11.3695C14.5493 11.2894 14.5471 11.167 14.4711 11.091L13.5218 10.1419ZM22.7245 10.2343C22.6685 10.1194 22.5174 10.1028 22.427 10.1932L18.7602 13.8595C18.6821 13.9376 18.6821 14.0642 18.7602 14.1423L20.6301 16.012C20.7105 16.0924 20.8418 16.0898 20.9171 16.0046C21.803 15.0036 22.4557 13.8846 22.772 12.8201C23.0715 11.8126 23.0532 10.9098 22.7245 10.2343ZM15.3699 11.9898C15.2895 11.9094 15.1581 11.912 15.0828 11.9972C14.1969 12.9982 13.5443 14.1171 13.2279 15.1817C12.9285 16.1892 12.9469 17.092 13.2756 17.7675C13.3315 17.8824 13.4827 17.899 13.5731 17.8086L17.2398 14.1423C17.3179 14.0642 17.3179 13.9376 17.2398 13.8595L15.3699 11.9898ZM24.02 12.9053C23.9816 12.6958 23.6844 12.7111 23.6289 12.9167C23.4926 13.4218 23.2911 13.9385 23.0286 14.4534C22.6415 15.2133 22.1295 15.9534 21.5224 16.6323C21.4507 16.7124 21.4529 16.8347 21.5289 16.9107L22.4781 17.8599C22.5603 17.942 22.6952 17.9373 22.768 17.8467C23.3892 17.0744 23.8143 16.162 24.0055 15.1874C24.1538 14.4317 24.1577 13.6576 24.02 12.9053ZM18.1414 14.761C18.0633 14.6829 17.9367 14.6829 17.8586 14.761L14.1938 18.4253C14.1033 18.5158 14.12 18.6671 14.2351 18.7229C14.9106 19.0506 15.8129 19.0683 16.8196 18.769C17.8835 18.4528 19.0017 17.8009 20.0022 16.9161C20.0874 16.8407 20.0901 16.7093 20.0096 16.6289L18.1414 14.761ZM20.9133 17.5326C20.8374 17.4567 20.7153 17.4544 20.6351 17.5258C19.9517 18.1352 19.2066 18.6479 18.4422 19.0344C17.9271 19.2948 17.4107 19.4941 16.906 19.6281C16.6997 19.683 16.6835 19.9815 16.8935 20.0199C17.6454 20.1576 18.4192 20.1538 19.1745 20.0058C20.1523 19.8141 21.0676 19.3873 21.8416 18.7633C21.932 18.6904 21.9366 18.5557 21.8545 18.4736L20.9133 17.5326Z" fill="url(#paint1_linear_54_1220)" stroke="url(#paint2_linear_54_1220)"/>
<defs>
<linearGradient id="paint0_linear_54_1220" x1="16" y1="30" x2="16" y2="2" gradientUnits="userSpaceOnUse">
<stop stop-color="#5570FF"/>
<stop offset="1" stop-color="#4DD3FF"/>
</linearGradient>
<linearGradient id="paint1_linear_54_1220" x1="18" y1="21" x2="18" y2="7" gradientUnits="userSpaceOnUse">
<stop stop-color="#5570FF"/>
<stop offset="1" stop-color="#4DD3FF"/>
</linearGradient>
<linearGradient id="paint2_linear_54_1220" x1="18" y1="21" x2="18" y2="7" gradientUnits="userSpaceOnUse">
<stop stop-color="#5570FF"/>
<stop offset="1" stop-color="#4DD3FF"/>
</linearGradient>
</defs>
</svg>
