<svg width="32" height="32" viewBox="0 0 32 32" fill="none" xmlns="http://www.w3.org/2000/svg">
<path fill-rule="evenodd" clip-rule="evenodd" d="M22.594 12.901C22.594 13.6002 23.154 14.1596 23.854 14.1596C24.554 14.1596 25.128 13.6002 25.128 12.901C25.128 12.2018 24.554 11.6284 23.854 11.6284C23.154 11.6284 22.594 12.2018 22.594 12.901ZM19.878 21.3476C18.884 22.3405 17.512 22.9558 16 22.9558C14.53 22.9558 13.158 22.3825 12.108 21.3476C11.072 20.2988 10.498 18.9283 10.498 17.4599C10.484 16.0056 11.058 14.6351 12.094 13.5862C13.144 12.5374 14.53 11.9641 16 11.9641C17.47 11.9641 18.856 12.5374 19.892 13.5723C20.928 14.6211 21.502 16.0056 21.502 17.4599C21.488 18.9843 20.872 20.3547 19.878 21.3476ZM16 14.0617C15.09 14.0617 14.236 14.4113 13.578 15.0686C12.934 15.7119 12.584 16.5649 12.598 17.4459V17.4599C12.598 18.3689 12.948 19.222 13.592 19.8653C14.236 20.5085 15.09 20.8581 16 20.8581C17.876 20.8581 19.388 19.3338 19.402 17.4599C19.402 16.5509 19.052 15.6979 18.408 15.0546C17.764 14.4113 16.91 14.0617 16 14.0617Z" fill="url(#paint0_linear_5_77)"/>
<path opacity="0.4" d="M23.616 7.53097L23.476 7.22331C23.098 6.42619 22.664 5.50322 22.398 4.97181C21.754 3.71321 20.648 3.01398 19.29 3H12.696C11.338 3.01398 10.246 3.71321 9.602 4.97181C9.322 5.53119 8.846 6.53807 8.454 7.36315L8.37 7.53097C8.328 7.64284 8.216 7.69878 8.104 7.69878C4.73 7.69878 2 10.4397 2 13.796V22.1028C2 25.459 4.73 28.2 8.104 28.2H23.896C27.256 28.2 30 25.459 30 22.1028V13.796C30 10.4397 27.256 7.69878 23.896 7.69878C23.77 7.69878 23.672 7.62886 23.616 7.53097Z" fill="url(#paint1_linear_5_77)"/>
<defs>
<linearGradient id="paint0_linear_5_77" x1="17.8129" y1="22.9558" x2="17.8129" y2="11.6284" gradientUnits="userSpaceOnUse">
<stop stop-color="#FD5900"/>
<stop offset="1" stop-color="#FFDE00"/>
</linearGradient>
<linearGradient id="paint1_linear_5_77" x1="16" y1="28.2" x2="16" y2="3" gradientUnits="userSpaceOnUse">
<stop stop-color="#FD5900"/>
<stop offset="1" stop-color="#FFDE00"/>
</linearGradient>
</defs>
</svg>
