<svg width="64" height="64" viewBox="0 0 64 64" fill="none" xmlns="http://www.w3.org/2000/svg">
<path opacity="0.4" d="M6 50.1442V24.3166C6 24.2062 6.08954 24.1166 6.2 24.1166H7.31999H8.43999C8.55044 24.1166 8.63999 24.2062 8.63999 24.3166V28.9692V30.975C8.63999 31.0854 8.72953 31.175 8.83999 31.175H10.8457H17.8971H19.9028C20.0133 31.175 20.1028 31.0854 20.1028 30.975V28.9692V17.2583C20.1028 17.1479 20.1924 17.0583 20.3028 17.0583H24.9486H26.9543C27.0647 17.0583 27.1543 16.9688 27.1543 16.8583V14.8526V10.2C27.1543 10.0895 27.2438 10 27.3543 10H29.5943C29.7047 10 29.7943 10.0895 29.7943 10.2V21.9109V23.9166C29.7943 24.0271 29.8838 24.1166 29.9943 24.1166H32H39.0514H41.0571C41.1676 24.1166 41.2571 24.0271 41.2571 23.9166V21.9109V17.2583C41.2571 17.1479 41.3467 17.0583 41.4571 17.0583H43.6971C43.8076 17.0583 43.8971 17.1479 43.8971 17.2583V21.9109V23.9166C43.8971 24.0271 43.9867 24.1166 44.0971 24.1166H46.1029H53.1543H55.16C55.2705 24.1166 55.36 24.0271 55.36 23.9166V21.9109V17.2583C55.36 17.1479 55.4496 17.0583 55.56 17.0583H56.68H57.8C57.9105 17.0583 58 17.1479 58 17.2583V50.1442C58 51.5078 57.5435 52.6106 56.5794 53.5757C55.6154 54.5407 54.5147 54.9968 53.1543 54.9968H10.8457C9.48533 54.9968 8.38461 54.5407 7.42057 53.5757C6.45646 52.6106 6 51.5078 6 50.1442Z" fill="url(#paint0_linear_42_132)" stroke="url(#paint1_linear_42_132)" stroke-width="5"/>
<path d="M30.3091 43.4747C30.3091 43.3642 30.3986 43.2747 30.5091 43.2747H33.4859C33.5964 43.2747 33.6859 43.3642 33.6859 43.4747L33.6858 44.9768V47.563C33.6858 47.6734 33.7754 47.763 33.8858 47.763H36.472H37.9815C38.0919 47.763 38.1815 47.8525 38.1815 47.963V50.7104C38.1815 50.8208 38.0919 50.9104 37.9815 50.9104H36.472H27.5229H26.0556C25.9451 50.9104 25.8556 50.8208 25.8556 50.7104V47.963C25.8556 47.8525 25.9451 47.763 26.0556 47.763H27.5229H30.109C30.2194 47.763 30.309 47.6734 30.309 47.563L30.3091 44.9768V43.4747ZM24.5367 34.2631C24.6472 34.2631 24.7367 34.3526 24.7367 34.4631V37.5023C24.7367 37.6128 24.6472 37.7023 24.5367 37.7023H21.6165C21.506 37.7023 21.4165 37.6128 21.4165 37.5023V34.4631C21.4165 34.3526 21.506 34.2631 21.6165 34.2631H24.5367ZM42.5915 37.5023C42.5915 37.6128 42.5019 37.7023 42.3915 37.7023H39.4583C39.3478 37.7023 39.2583 37.6128 39.2583 37.5023V34.4631C39.2583 34.3526 39.3478 34.2631 39.4583 34.2631H42.3915C42.5019 34.2631 42.5915 34.3526 42.5915 34.4631V37.5023Z" stroke="url(#paint2_linear_42_132)" stroke-width="5"/>
<defs>
<linearGradient id="paint0_linear_42_132" x1="32" y1="57.2025" x2="32" y2="0.735959" gradientUnits="userSpaceOnUse">
<stop stop-color="#00B59C"/>
<stop offset="1" stop-color="#9CFFAC"/>
</linearGradient>
<linearGradient id="paint1_linear_42_132" x1="32" y1="57.2025" x2="32" y2="0.735959" gradientUnits="userSpaceOnUse">
<stop stop-color="#00B59C"/>
<stop offset="1" stop-color="#9CFFAC"/>
</linearGradient>
<linearGradient id="paint2_linear_42_132" x1="32.004" y1="58.2242" x2="32.004" y2="31.4769" gradientUnits="userSpaceOnUse">
<stop stop-color="#00B59C"/>
<stop offset="1" stop-color="#9CFFAC"/>
</linearGradient>
</defs>
</svg>
