<svg width="24" height="24" viewBox="0 0 24 24" fill="none" xmlns="http://www.w3.org/2000/svg">
<path opacity="0.4" d="M1 6.445C1 5.4737 1 4.9886 1.077 4.5838C1.24115 3.71462 1.66345 2.9151 2.28882 2.28954C2.91418 1.66397 3.71358 1.24142 4.5827 1.077C4.9886 1 5.4748 1 6.445 1C6.8696 1 7.083 1 7.2876 1.0187C8.16875 1.10145 9.00447 1.44801 9.6856 2.0131C9.844 2.144 9.9936 2.2936 10.295 2.595L10.9 3.2C11.7976 4.0976 12.2464 4.5464 12.7832 4.8445C13.0782 5.00894 13.3912 5.13887 13.716 5.2317C14.3078 5.4 14.9425 5.4 16.2108 5.4H16.6222C19.5174 5.4 20.9661 5.4 21.9066 6.247C21.9935 6.324 22.076 6.4065 22.153 6.4934C23 7.4339 23 8.8826 23 11.7778V14.2C23 18.3481 23 20.4227 21.7108 21.7108C20.4227 23 18.3481 23 14.2 23H9.8C5.6519 23 3.5773 23 2.2892 21.7108C1 20.4227 1 18.3481 1 14.2V6.445Z" fill="url(#paint0_linear_42_73)"/>
<path d="M20.7999 5.66178C20.7999 5.33398 20.7944 5.13928 20.7724 4.96878C20.6774 4.24866 20.3475 3.58 19.8338 3.06649C19.3201 2.55298 18.6513 2.2233 17.9311 2.12858C17.7166 2.09998 17.4614 2.09998 16.9499 2.09998H9.78674C9.91434 2.21438 10.0584 2.35738 10.2949 2.59498L10.8999 3.19998C11.7975 4.09758 12.2463 4.54638 12.7831 4.84448C13.0785 5.009 13.3919 5.13892 13.717 5.23168C14.3077 5.39998 14.9424 5.39998 16.2118 5.39998H16.6221C18.5801 5.39998 19.8748 5.39998 20.7999 5.66178Z" fill="url(#paint1_linear_42_73)"/>
<path fill-rule="evenodd" clip-rule="evenodd" d="M6 18.3846C6 18.0174 6.14585 17.6652 6.40565 17.4055C6.66529 17.1459 7.0174 17 7.38462 17H16.6154C16.9826 17 17.3349 17.1459 17.5945 17.4055C17.8542 17.6652 18 18.0174 18 18.3846C18 18.7519 17.8542 19.104 17.5945 19.3636C17.3349 19.6234 16.9826 19.7693 16.6154 19.7693H7.38462C7.0174 19.7693 6.66529 19.6234 6.40565 19.3636C6.14585 19.104 6 18.7519 6 18.3846Z" fill="url(#paint2_linear_42_73)"/>
<defs>
<linearGradient id="paint0_linear_42_73" x1="1" y1="12" x2="23" y2="12" gradientUnits="userSpaceOnUse">
<stop stop-color="#02AA93"/>
<stop offset="1" stop-color="#67FF80"/>
</linearGradient>
<linearGradient id="paint1_linear_42_73" x1="15.2933" y1="5.66178" x2="15.2933" y2="2.09998" gradientUnits="userSpaceOnUse">
<stop stop-color="#00B59C"/>
<stop offset="1" stop-color="#9CFFAC"/>
</linearGradient>
<linearGradient id="paint2_linear_42_73" x1="12" y1="19.7693" x2="12" y2="17" gradientUnits="userSpaceOnUse">
<stop stop-color="#00B59C"/>
<stop offset="1" stop-color="#9CFFAC"/>
</linearGradient>
</defs>
</svg>
