<svg width="24" height="24" viewBox="0 0 24 24" fill="none" xmlns="http://www.w3.org/2000/svg">
<path opacity="0.45" d="M4.36277 2.82118C3.37283 3.64355 3.11257 5.03398 2.59087 7.81602L1.69957 12.5696C0.966328 16.4818 0.599113 18.4379 1.66867 19.7261C2.73823 21.0144 4.72642 21.0144 8.70755 21.0144H15.2913C19.2724 21.0144 21.2618 21.0144 22.3313 19.7261C23.4009 18.4379 23.0337 16.4818 22.3004 12.5696L21.4091 7.81602C20.8874 5.03517 20.6272 3.64355 19.6372 2.82118C18.6461 2 17.2319 2 14.4 2H9.59884C6.76808 2 5.35389 2 4.36277 2.82118Z" fill="url(#paint0_linear_8_114)"/>
<path d="M12.9916 6.44049C12.993 6.20439 12.7907 6.01843 12.5555 6.03972L11.2488 6.15805C11.0427 6.17671 10.8848 6.34948 10.8848 6.55642V13.9474C10.8848 14.1908 11.1003 14.3777 11.3412 14.3435L12.6284 14.1603C12.8256 14.1322 12.972 13.9634 12.972 13.7643V11.8453C12.972 11.4572 13.4692 11.2965 13.6964 11.6112L15.611 14.2632C15.7107 14.4013 15.8869 14.4611 16.05 14.4123L17.421 14.0019C17.6895 13.9216 17.7942 13.5971 17.6234 13.3749L15.2979 10.35C15.1845 10.2024 15.1878 9.99612 15.306 9.8523L17.5846 7.07874C17.7744 6.84762 17.6528 6.49749 17.3605 6.43395L15.9995 6.13807C15.8501 6.1056 15.6953 6.1611 15.6005 6.28109L13.6935 8.69674C13.4577 8.99548 12.9773 8.8271 12.9796 8.44649L12.9916 6.44049Z" fill="url(#paint1_linear_8_114)"/>
<path d="M8.21247 8.00225C8.21247 8.00239 8.21236 8.00251 8.21223 8.00252C8.18767 8.00502 8.16481 8.01544 8.14747 8.03198L7.31977 8.81498C7.30288 8.83104 7.29213 8.85192 7.28929 8.87441C7.28639 8.89684 7.29156 8.91961 7.30391 8.93898L8.13612 10.2362C8.21982 10.3666 8.21896 10.5329 8.14527 10.6693C8.06882 10.8108 8.00153 10.9565 7.94378 11.1058C7.89101 11.2421 7.77599 11.347 7.63253 11.3752L6.08562 11.6794C6.0614 11.6842 6.03969 11.6966 6.02407 11.7148C6.00846 11.7329 5.99997 11.7556 6 11.7789V12.8864C6 12.9329 6.03383 12.9734 6.08194 12.9844L7.57183 13.3294C7.71762 13.3632 7.83066 13.4761 7.87688 13.6184C7.9387 13.8088 8.01577 13.9944 8.10743 14.1737C8.17896 14.3136 8.17502 14.4824 8.08548 14.6115L7.23254 15.8415C7.21922 15.8609 7.21333 15.884 7.21593 15.9075C7.21853 15.9303 7.22943 15.952 7.24683 15.9683L8.0745 16.752C8.09157 16.7677 8.11376 16.778 8.13759 16.7809C8.16145 16.7832 8.18559 16.7786 8.20612 16.7669L9.57843 15.9785C9.69914 15.9092 9.84662 15.9089 9.97214 15.9691C10.15 16.0544 10.3352 16.1281 10.5267 16.189C10.6705 16.2348 10.7837 16.3498 10.8161 16.4973L11.129 17.9194C11.1395 17.9666 11.1829 18 11.2336 18H12.4043C12.4284 18 12.4517 17.9923 12.4706 17.9783C12.4895 17.964 12.5029 17.9443 12.5085 17.9226L12.8801 16.4851C12.9166 16.344 13.0274 16.2353 13.1664 16.1915C13.3666 16.1284 13.5614 16.0509 13.7491 15.9597C13.8797 15.8961 14.0343 15.8983 14.1577 15.9749L15.5021 16.8083C15.5444 16.8349 15.6004 16.8295 15.6363 16.7955L16.4646 16.0123C16.4815 15.9966 16.4924 15.9755 16.4952 15.9529C16.4981 15.9303 16.4929 15.9077 16.4804 15.8883L16.0194 15.1697C15.9585 15.0748 15.8421 15.0318 15.7341 15.0644V15.0644C15.7212 15.0681 15.7072 15.0681 15.6944 15.0639C15.6815 15.0596 15.6704 15.0516 15.6628 15.0409L15.2123 14.4171C15.0396 14.1779 14.6706 14.2007 14.4812 14.427C14.2875 14.6585 14.0599 14.8641 13.8045 15.0371C13.3686 15.3326 12.8641 15.5251 12.3334 15.598C11.8028 15.6709 11.2613 15.6226 10.7545 15.4569C10.2477 15.2911 9.79023 15.0129 9.42057 14.6454C9.05086 14.2779 8.77967 13.832 8.62978 13.3449C8.47982 12.8578 8.45548 12.3439 8.55883 11.8461C8.66218 11.3483 8.89018 10.8812 9.22371 10.4839C9.50166 10.1529 9.84616 9.87837 10.2364 9.67572C10.3788 9.60178 10.4757 9.45878 10.4757 9.29835V9.12939C10.4757 8.93956 10.2897 8.80539 10.1154 8.88048C10.0299 8.91729 9.94595 8.95682 9.86389 8.99909C9.86345 8.99931 9.86292 8.99914 9.8627 8.99871V8.99871C9.86263 8.99857 9.86252 8.99845 9.86238 8.99836L8.28224 8.0185C8.26176 8.0056 8.23721 7.99976 8.21271 8.00199C8.21257 8.002 8.21247 8.00212 8.21247 8.00225V8.00225Z" fill="url(#paint2_linear_8_114)"/>
<defs>
<linearGradient id="paint0_linear_8_114" x1="12" y1="21.0144" x2="12" y2="2" gradientUnits="userSpaceOnUse">
<stop stop-color="#5558FF"/>
<stop offset="1" stop-color="#00C0FF"/>
</linearGradient>
<linearGradient id="paint1_linear_8_114" x1="14.4424" y1="14.4939" x2="14.4424" y2="6" gradientUnits="userSpaceOnUse">
<stop stop-color="#5558FF"/>
<stop offset="1" stop-color="#00C0FF"/>
</linearGradient>
<linearGradient id="paint2_linear_8_114" x1="11.248" y1="18" x2="11.248" y2="8.00153" gradientUnits="userSpaceOnUse">
<stop stop-color="#5558FF"/>
<stop offset="1" stop-color="#00C0FF"/>
</linearGradient>
</defs>
</svg>
