<svg width="32" height="32" viewBox="0 0 32 32" fill="none" xmlns="http://www.w3.org/2000/svg">
<path opacity="0.4" d="M1.87891 2.7578H4.51562V30.121C4.51562 30.6065 4.90908 31 5.39453 31C5.88 31 6.27345 30.6065 6.27345 30.121V25.668H8.91015C9.14335 25.668 9.36678 25.5755 9.53155 25.4105L11.0321 23.9102H13.878L15.3786 25.4105C15.5434 25.5755 15.7668 25.668 16 25.668H30.121C30.6065 25.668 31 25.2745 31 24.789V7.21095C31 6.72547 30.6065 6.33203 30.121 6.33203H6.27345V1.87891C6.27345 1.39345 5.88 1 5.39453 1H1.87891C1.39345 1 1 1.39345 1 1.87891C1 2.36437 1.39345 2.7578 1.87891 2.7578ZM6.27345 13.3633H8.03125V18.6367H6.27345V13.3633Z" fill="url(#paint0_linear_37_151)"/>
<path d="M14.2422 15.1211C15.388 15.1211 16.3649 14.3864 16.7278 13.3633H22.1523V14.2422C22.1523 14.7276 22.5458 15.1211 23.0312 15.1211H23.9101V18.6367H20.2435C19.8805 17.6136 18.9036 16.8789 17.7578 16.8789C16.304 16.8789 15.1211 18.0618 15.1211 19.5156C15.1211 20.9695 16.304 22.1524 17.7578 22.1524C18.9036 22.1524 19.8805 21.4176 20.2435 20.3945H24.789C25.2745 20.3945 25.668 20.0011 25.668 19.5156V15.1211H26.547C27.0322 15.1211 27.4257 14.7276 27.4257 14.2422V10.7266C27.4257 10.2411 27.0322 9.84766 26.547 9.84766H23.0312C22.5458 9.84766 22.1523 10.2411 22.1523 10.7266V11.6055H16.7278C16.3649 10.5824 15.388 9.84766 14.2422 9.84766C12.7883 9.84766 11.6055 11.0306 11.6055 12.4844C11.6055 13.9382 12.7883 15.1211 14.2422 15.1211ZM17.7578 20.3945C17.2732 20.3945 16.8789 20.0002 16.8789 19.5156C16.8789 19.0311 17.2732 18.6367 17.7578 18.6367C18.2424 18.6367 18.6367 19.0311 18.6367 19.5156C18.6367 20.0002 18.2424 20.3945 17.7578 20.3945ZM23.9101 11.6055H25.668V13.3633H23.9101V11.6055ZM14.2422 11.6055C14.7267 11.6055 15.1211 11.9998 15.1211 12.4844C15.1211 12.969 14.7267 13.3633 14.2422 13.3633C13.7576 13.3633 13.3633 12.969 13.3633 12.4844C13.3633 11.9998 13.7576 11.6055 14.2422 11.6055Z" fill="url(#paint1_linear_37_151)" stroke="url(#paint2_linear_37_151)" stroke-width="0.6"/>
<defs>
<linearGradient id="paint0_linear_37_151" x1="16" y1="31" x2="16" y2="1" gradientUnits="userSpaceOnUse">
<stop stop-color="#02AA93"/>
<stop offset="1" stop-color="#67FF80"/>
</linearGradient>
<linearGradient id="paint1_linear_37_151" x1="19.5156" y1="22.1524" x2="19.5156" y2="9.84766" gradientUnits="userSpaceOnUse">
<stop stop-color="#02AA93"/>
<stop offset="1" stop-color="#67FF80"/>
</linearGradient>
<linearGradient id="paint2_linear_37_151" x1="19.5156" y1="22.1524" x2="19.5156" y2="9.84766" gradientUnits="userSpaceOnUse">
<stop stop-color="#02AA93"/>
<stop offset="1" stop-color="#67FF80"/>
</linearGradient>
</defs>
</svg>
