<svg width="128" height="128" viewBox="0 0 128 128" fill="none" xmlns="http://www.w3.org/2000/svg">
<path opacity="0.4" fill-rule="evenodd" clip-rule="evenodd" d="M87.1826 17.0146C80.062 17.0146 72.9409 17.0151 65.8196 17.0157L64.8842 17.0158C50.9478 17.0168 37.0107 17.0179 23.0763 17.0146C21.4391 17.0146 19.7674 17.1355 18.1446 17.5091C11.4046 18.9511 6.05142 24.3433 6.01042 30.3571L6.01041 30.3621C5.99784 49.1419 5.99784 67.9217 6.00413 86.6964C6.00413 90.2905 7.91906 93.6121 10.815 96.027C13.7146 98.4452 17.6531 100.008 21.8442 100.075H21.8557C38.1008 100.107 54.3489 100.102 70.5965 100.095C72.7878 100.094 74.979 100.093 77.1703 100.093C81.5429 100.091 85.9155 100.089 90.2882 100.089C94.551 100.115 98.6167 98.5847 101.616 96.1576C104.612 93.7341 106.609 90.3576 106.567 86.6777C106.586 75.7113 106.583 64.7452 106.579 53.7798L106.578 51.492C106.576 44.632 106.575 37.7723 106.58 30.9126C106.797 25.1757 102.176 19.8232 95.9378 17.9141C93.1005 16.9764 90.0251 16.9684 87.1826 17.0146ZM6.82157 30.3626L6.81363 30.3626L6.01041 30.3621L6.82157 30.3626Z" fill="url(#paint0_linear_54_497)"/>
<path d="M60.6786 72.161H60.6989C64.0848 72.1759 67.4724 72.1723 70.8625 72.1686L71.0188 72.1685C74.673 72.1645 78.3303 72.1605 81.9867 72.1795C83.1548 72.0837 84.2322 72.623 84.9976 73.4405C85.7706 74.2666 86.2781 75.4251 86.2986 76.6878C86.3795 78.0256 85.8993 79.302 85.1117 80.2108C84.3356 81.1059 83.1889 81.7144 81.9252 81.542C79.7147 81.542 77.5037 81.5437 75.2922 81.5454H75.2908C70.096 81.5493 64.8985 81.5532 59.7032 81.536C58.4782 81.659 57.3877 81.0178 56.6537 80.1425C55.9068 79.252 55.4367 78.0233 55.4861 76.7593C55.5033 75.0622 56.3932 73.3319 57.8578 72.606C58.6408 72.1873 59.4841 72.1792 60.1027 72.1732L60.164 72.1726L60.1657 72.1726C60.3431 72.1707 60.5031 72.169 60.6584 72.1619L60.6786 72.161Z" fill="url(#paint1_linear_54_497)"/>
<path d="M31.958 43.7694L46.5594 58.3708L31.958 72.9722" stroke="url(#paint2_linear_54_497)" stroke-width="12" stroke-linecap="round" stroke-linejoin="round"/>
<path d="M99.2867 110.287C111.831 110.287 122 100.118 122 87.5736C122 75.0294 111.831 64.8604 99.2867 64.8604C86.7425 64.8604 76.5734 75.0294 76.5734 87.5736C76.5734 100.118 86.7425 110.287 99.2867 110.287Z" fill="url(#paint3_linear_54_497)" stroke="url(#paint4_linear_54_497)" stroke-width="6"/>
<path fill-rule="evenodd" clip-rule="evenodd" d="M101.146 71.9588C101.514 71.5393 101.924 71.3376 102.486 71.3504C102.673 71.3547 102.879 71.3844 103.104 71.436L103.101 71.4391C103.4 71.508 103.735 71.6198 104.118 71.7718C105.267 72.2274 105.442 72.6634 105.319 74.801C105.212 76.6623 105.56 77.4109 106.893 78.1851C108.029 78.8442 108.953 78.8232 110.68 78.0964C111.306 77.833 112.002 77.6637 112.232 77.7257C112.729 77.8595 114.193 80.1713 114.187 80.8119C114.185 81.0989 113.716 81.6532 112.885 82.3645C111.264 83.7517 110.919 84.4379 111.136 85.8246C111.397 87.4924 111.887 88.08 113.68 88.8791C115.565 89.719 115.761 90.0722 115.3 91.7784C114.838 93.4867 114.402 93.7376 112.194 93.594C110.732 93.4989 110.266 93.5659 109.656 93.9679C108.065 95.0177 107.597 96.8182 108.452 98.6131C109.351 100.499 109.17 101.079 107.353 102.029C106.145 102.66 105.596 102.612 104.907 101.823C103.966 100.746 103.728 100.499 103.117 99.9851C102.379 99.365 101.487 99.2719 100.205 99.6809C98.9416 100.084 98.7427 100.287 98.1863 101.715C97.5778 103.277 96.7929 103.921 95.6863 103.778C95.262 103.723 94.7363 103.58 94.5171 103.461C94.2975 103.344 93.929 103.151 93.6996 103.033C93.1952 102.775 93.0533 102.024 93.2275 100.559C93.2993 99.9545 93.3005 99.1675 93.2275 98.8095C93.0723 98.0495 91.7654 96.8292 90.8479 96.582C90.2394 96.418 88.218 96.7477 86.9633 97.2157C86.5352 97.3755 86.2572 97.3456 85.924 97.1016C85.3424 96.6758 84.4268 95.0672 84.4 94.4242C84.3791 93.9223 85.0501 93.0157 85.7466 92.6054C86.3857 92.2289 87.1756 91.2349 87.3404 90.5965C87.5681 89.7174 87.2414 88.04 86.732 87.4596C86.4908 87.1847 85.7291 86.721 85.0368 86.4235C84.3446 86.1259 83.5843 85.6626 83.3512 85.3968C82.9696 84.9621 82.9695 84.7614 83.3322 83.4006C83.7979 81.653 84.3614 81.1294 85.4646 81.4266C86.6247 81.7391 88.0767 81.6365 88.7694 81.1921C89.6145 80.6499 90.4558 79.1476 90.4424 78.1978C90.437 77.8136 90.2049 76.9435 89.9322 76.2649C89.2725 74.6233 89.45 74.0847 90.9113 73.2516C92.4494 72.3749 92.9871 72.3577 93.6141 73.1597C94.9916 74.9216 95.3929 75.2815 96.244 75.5108C97.9784 75.9781 99.9428 74.9656 100.363 73.391C100.478 72.9618 100.831 72.3178 101.146 71.9588ZM105.776 87.5736C105.776 91.1577 102.871 94.0631 99.2867 94.0631C95.7027 94.0631 92.7972 91.1577 92.7972 87.5736C92.7972 83.9896 95.7027 81.0841 99.2867 81.0841C102.871 81.0841 105.776 83.9896 105.776 87.5736Z" fill="url(#paint5_linear_54_497)"/>
<defs>
<linearGradient id="paint0_linear_54_497" x1="56.2937" y1="99.2888" x2="56.2937" y2="17.8114" gradientUnits="userSpaceOnUse">
<stop stop-color="#5570FF"/>
<stop offset="1" stop-color="#4DD3FF"/>
</linearGradient>
<linearGradient id="paint1_linear_54_497" x1="56.2937" y1="99.2888" x2="56.2937" y2="17.8114" gradientUnits="userSpaceOnUse">
<stop stop-color="#5570FF"/>
<stop offset="1" stop-color="#4DD3FF"/>
</linearGradient>
<linearGradient id="paint2_linear_54_497" x1="39.2587" y1="72.9722" x2="39.2587" y2="43.7694" gradientUnits="userSpaceOnUse">
<stop stop-color="#5570FF"/>
<stop offset="1" stop-color="#4DD3FF"/>
</linearGradient>
<linearGradient id="paint3_linear_54_497" x1="99.2867" y1="110.287" x2="99.2867" y2="64.8604" gradientUnits="userSpaceOnUse">
<stop stop-color="#FDA700"/>
<stop offset="1" stop-color="#FFDE00"/>
</linearGradient>
<linearGradient id="paint4_linear_54_497" x1="99.2867" y1="110.287" x2="99.2867" y2="64.8604" gradientUnits="userSpaceOnUse">
<stop stop-color="#FDA700"/>
<stop offset="1" stop-color="#FFDE00"/>
</linearGradient>
<linearGradient id="paint5_linear_54_497" x1="99.2863" y1="103.797" x2="99.2863" y2="71.3499" gradientUnits="userSpaceOnUse">
<stop stop-color="#FD4C00"/>
<stop offset="1" stop-color="#FFB800"/>
</linearGradient>
</defs>
</svg>
