<svg width="24" height="24" viewBox="0 0 24 24" fill="none" xmlns="http://www.w3.org/2000/svg">
<path d="M9.96803 4.91109C10.0241 5.02512 10.0611 5.14724 10.0776 5.27278L10.3839 9.82669V9.82669L10.5359 12.1156C10.5375 12.351 10.5744 12.5848 10.6455 12.8096C10.8292 13.2458 11.2709 13.523 11.7515 13.5037L19.0745 13.0247C19.3916 13.0195 19.6978 13.1381 19.9258 13.3544C20.1157 13.5347 20.2384 13.7705 20.277 14.0242L20.29 14.1782C19.987 18.3744 16.9051 21.8743 12.7176 22.7778C8.53011 23.6813 4.23605 21.7727 2.16678 18.0884C1.57023 17.018 1.19762 15.8415 1.07082 14.6279C1.01785 14.2686 0.994528 13.9057 1.00108 13.5428C0.994537 9.04401 4.19822 5.15466 8.68277 4.21703C9.22251 4.13299 9.75163 4.41872 9.96803 4.91109Z" fill="url(#paint0_linear_8_108)"/>
<path opacity="0.4" d="M12.957 1.0009C17.9729 1.12851 22.1885 4.73537 23 9.59352L22.9922 9.62936V9.62936L22.9701 9.6815L22.9732 9.8246C22.9617 10.0142 22.8885 10.1966 22.7623 10.3439C22.6309 10.4974 22.4514 10.6019 22.2537 10.6425L22.1332 10.659L13.6843 11.2065C13.4033 11.2342 13.1235 11.1436 12.9145 10.9571C12.7403 10.8018 12.629 10.5921 12.5975 10.3661L12.0304 1.92957C12.0205 1.90104 12.0205 1.87012 12.0304 1.84159C12.0382 1.60904 12.1405 1.38922 12.3146 1.23125C12.4887 1.07328 12.7201 0.99032 12.957 1.0009Z" fill="url(#paint1_linear_8_108)"/>
<defs>
<linearGradient id="paint0_linear_8_108" x1="10.645" y1="4.20245" x2="10.645" y2="23" gradientUnits="userSpaceOnUse">
<stop stop-color="#00FFE0"/>
<stop offset="1" stop-color="#078AA7"/>
</linearGradient>
<linearGradient id="paint1_linear_8_108" x1="17.5115" y1="1" x2="17.5115" y2="11.2114" gradientUnits="userSpaceOnUse">
<stop stop-color="#00FFE0"/>
<stop offset="1" stop-color="#078AA7"/>
</linearGradient>
</defs>
</svg>
