<svg width="128" height="128" viewBox="0 0 128 128" fill="none" xmlns="http://www.w3.org/2000/svg">
<path opacity="0.4" fill-rule="evenodd" clip-rule="evenodd" d="M14.7287 10.6878C15.063 8.03452 17.3486 5.87602 19.7975 6.02106C27.0457 5.99717 34.2977 6.00254 41.5509 6.00792C44.6599 6.01022 47.7691 6.01253 50.8783 6.01253C53.0784 5.8419 54.9985 7.43731 56.1413 9.38251C59.501 14.6275 62.8666 19.8684 66.2329 25.1088L66.4077 25L74.2238 37.551C79.1966 45.2988 84.1622 53.0513 89.104 60.8195C90.487 62.56 90.448 65.256 89.088 67.005C83.2707 76.0642 77.4123 85.0974 71.554 94.1307L71.5512 94.1349C66.2935 102.242 61.0353 110.35 55.8071 118.476C54.6409 120.183 52.9928 122.017 50.9171 122C46.3054 121.996 41.6923 121.997 37.079 121.998H37.0573C31.0157 121.999 24.9739 122.001 18.9345 121.991C15.475 121.906 12.381 117.017 14.9464 113.758C19.7796 106.118 24.6866 98.5298 29.5931 90.9426L29.5953 90.9393C29.9663 90.3656 30.3373 89.7919 30.7083 89.2182L46.8521 63.6372L37.6619 48.8799C35.4375 45.379 33.2145 41.8766 30.9913 38.3738C26.1031 30.6723 21.2138 22.9691 16.3069 15.2778L16.1979 15.0912C15.4243 13.7684 14.5803 12.3254 14.7287 10.6878ZM67.992 62.8893L67.8174 62.998C67.9995 63.1326 68.0658 63.1075 67.992 62.8893Z" fill="url(#paint0_linear_54_909)"/>
<path d="M38.7287 10.6878C39.063 8.03452 41.3486 5.87602 43.7975 6.02106C54.1525 5.98693 64.5154 6.01253 74.8783 6.01253C77.0784 5.8419 78.9985 7.43731 80.1413 9.38251C91.1261 26.5311 102.173 43.6369 113.104 60.8195C114.487 62.56 114.448 65.256 113.088 67.005C102.049 84.1962 90.8618 101.294 79.8071 118.476C78.6409 120.183 76.9928 122.017 74.9171 122C64.2588 121.991 53.5928 122.008 42.9345 121.991C39.475 121.906 36.381 117.017 38.9464 113.758C46.464 101.874 54.1603 90.1171 61.7556 78.2923C62.9528 76.023 65.8215 74.82 67.9593 76.2532C70.5092 77.5074 70.7424 81.5088 69.2343 83.7696C63.186 93.1373 57.1533 102.514 51.0973 111.873C58.4516 111.592 65.8448 112.077 73.1758 111.642C83.4998 95.6713 93.917 79.7768 104.14 63.7374C93.7304 47.9369 83.6475 31.8804 73.3857 15.9689C66.1791 16.0542 58.9647 16.1736 51.7659 15.9007C57.6043 25.4816 63.8002 34.8067 69.693 44.345C71.0146 46.5718 70.4782 50.0612 68.2237 51.2898C66.1635 52.9023 63.2871 51.6225 62.0277 49.4555C54.79 38.0658 47.5679 26.659 40.3069 15.2778C39.5062 13.9043 38.5733 12.4027 38.7287 10.6878Z" fill="url(#paint1_linear_54_909)" stroke="url(#paint2_linear_54_909)" stroke-width="3"/>
<defs>
<linearGradient id="paint0_linear_54_909" x1="52.0625" y1="122" x2="52.0625" y2="6" gradientUnits="userSpaceOnUse">
<stop stop-color="#FD2E00"/>
<stop offset="1" stop-color="#FF9900"/>
</linearGradient>
<linearGradient id="paint1_linear_54_909" x1="76.0625" y1="122" x2="76.0625" y2="6" gradientUnits="userSpaceOnUse">
<stop stop-color="#FD2E00"/>
<stop offset="1" stop-color="#FF9900"/>
</linearGradient>
<linearGradient id="paint2_linear_54_909" x1="76.0625" y1="122" x2="76.0625" y2="6" gradientUnits="userSpaceOnUse">
<stop stop-color="#FD2E00"/>
<stop offset="1" stop-color="#FF9900"/>
</linearGradient>
</defs>
</svg>
