<svg width="128" height="128" viewBox="0 0 128 128" fill="none" xmlns="http://www.w3.org/2000/svg">
<path opacity="0.4" d="M102 8H26C16.0589 8 8 16.0589 8 26V101C8 110.941 16.0589 119 26 119H102C111.941 119 120 110.941 120 101V26C120 16.0589 111.941 8 102 8Z" fill="url(#paint0_linear_110_180)"/>
<path fill-rule="evenodd" clip-rule="evenodd" d="M30.951 51.125C29.8318 50.9998 28.3502 50.8341 26.974 51.3832C23.9382 52.4039 22.8026 55.3967 23.1071 57.9936C23.413 60.6034 25.2253 63.2484 28.477 63.4813C46.5073 65.115 62.3857 79.3317 65.9198 96.9075L65.9261 96.9396L65.9342 96.9705C66.1067 97.6237 66.2073 98.3547 66.3121 99.1763L66.3339 99.3459C66.4292 100.096 66.5333 100.915 66.71 101.698C67.0934 103.403 67.868 105.17 69.8729 106.181C71.8503 107.348 74.2092 107.137 76.0226 106.149C77.8505 105.154 79.3035 103.269 79.2734 100.917L79.273 100.881L79.2701 100.845C78.2866 88.5965 72.8213 76.7822 64.2754 67.9193C55.6415 58.7637 43.7296 52.7608 31.1996 51.1528L31.1893 51.1514L31.1789 51.1502C31.1051 51.1422 31.0295 51.1338 30.952 51.1251L30.951 51.125ZM29.4015 69.5037C28.1794 69.437 27.0212 69.7246 25.9708 70.3609C24.2035 71.3748 23.2365 73.1974 23.0386 75.038C22.8416 76.8709 23.3924 78.8489 24.8202 80.2299C25.5727 81.0264 26.4948 81.4417 27.3562 81.7111C27.7903 81.8467 28.2287 81.951 28.6343 82.0437L28.7145 82.062C28.7624 82.073 28.8097 82.0839 28.8564 82.0943L28.8803 82.0997L28.8804 82.0998C29.2013 82.1729 29.4975 82.2405 29.7872 82.3182L29.8091 82.3246L29.8312 82.3288C38.8425 84.3543 46.2111 92.0341 47.8999 101.017C48.2607 103.586 49.9974 106.206 52.8955 106.82C54.9819 107.356 57.0768 106.645 58.5345 105.345C59.9954 104.041 60.9286 102.04 60.5304 99.8868C58.2944 84.5114 45.0474 71.4866 29.4783 69.5107L29.4401 69.5059L29.4015 69.5037ZM36.4023 92.0834C38.5515 93.7334 40.0195 96.4159 39.615 99.3688C39.4426 102.565 37.221 105.01 34.5719 106.145C31.9209 107.281 28.6156 107.2 26.1662 105.073C23.5678 103.206 22.6865 100.078 23.1448 97.2696C23.6035 94.4576 25.4365 91.7637 28.495 90.808C31.271 89.6965 34.2523 90.431 36.4023 92.0834Z" fill="url(#paint1_linear_110_180)"/>
<path d="M26.974 51.3832L27.2927 52.331L27.3189 52.3222L27.3446 52.312L26.974 51.3832ZM30.951 51.125L30.8398 52.1188L30.8399 52.1188L30.951 51.125ZM23.1071 57.9936L24.1003 57.8772L24.1003 57.8771L23.1071 57.9936ZM28.477 63.4813L28.5672 62.4854L28.5578 62.4845L28.5484 62.4838L28.477 63.4813ZM65.9198 96.9075L66.9011 96.7148L66.9002 96.7104L65.9198 96.9075ZM65.9261 96.9396L64.9448 97.1322L64.9508 97.1628L64.9587 97.193L65.9261 96.9396ZM65.9342 96.9705L64.9668 97.2239L64.9673 97.2258L65.9342 96.9705ZM66.3121 99.1763L65.3201 99.3028L65.3202 99.3038L66.3121 99.1763ZM66.3339 99.3459L67.3259 99.2199L67.3257 99.2184L66.3339 99.3459ZM66.71 101.698L67.6856 101.479L67.6855 101.478L66.71 101.698ZM69.8729 106.181L70.3811 105.32L70.3527 105.303L70.3231 105.288L69.8729 106.181ZM76.0226 106.149L75.5445 105.271L75.5442 105.271L76.0226 106.149ZM79.2734 100.917L78.2734 100.928L78.2735 100.93L79.2734 100.917ZM79.273 100.881L80.2729 100.87L80.2725 100.835L80.2698 100.801L79.273 100.881ZM79.2701 100.845L78.2733 100.925L78.2733 100.925L79.2701 100.845ZM64.2754 67.9193L63.5478 68.6054L63.5555 68.6134L64.2754 67.9193ZM31.1996 51.1528L31.0649 52.1437L31.0723 52.1447L31.1996 51.1528ZM31.1893 51.1514L31.324 50.1605L31.314 50.1591L31.3041 50.158L31.1893 51.1514ZM31.1789 51.1502L31.2937 50.1568L31.2862 50.156L31.1789 51.1502ZM30.952 51.1251L31.0632 50.1313L31.0631 50.1313L30.952 51.1251ZM25.9708 70.3609L26.4685 71.2283L26.4788 71.2224L26.489 71.2162L25.9708 70.3609ZM29.4015 69.5037L29.4584 68.5053L29.456 68.5052L29.4015 69.5037ZM23.0386 75.038L22.0444 74.9311L22.0444 74.9311L23.0386 75.038ZM24.8202 80.2299L25.5471 79.5431L25.5317 79.5268L25.5155 79.5111L24.8202 80.2299ZM27.3562 81.7111L27.0577 82.6655L27.0581 82.6656L27.3562 81.7111ZM28.6343 82.0437L28.8573 81.0689L28.8571 81.0688L28.6343 82.0437ZM28.7145 82.062L28.938 81.0873L28.9375 81.0872L28.7145 82.062ZM28.8564 82.0943L29.0788 81.1193L29.0742 81.1183L28.8564 82.0943ZM28.8803 82.0997L29.1031 81.1249L29.1026 81.1248L28.8803 82.0997ZM28.8804 82.0998L28.6576 83.0746L28.658 83.0747L28.8804 82.0998ZM29.7872 82.3182L30.0678 81.3583L30.057 81.3552L30.0462 81.3523L29.7872 82.3182ZM29.8091 82.3246L29.5286 83.2844L29.575 83.298L29.6226 83.307L29.8091 82.3246ZM29.8312 82.3288L30.0505 81.3531L30.0342 81.3495L30.0178 81.3463L29.8312 82.3288ZM47.8999 101.017L48.8902 100.878L48.887 100.855L48.8827 100.832L47.8999 101.017ZM52.8955 106.82L53.1444 105.851L53.1237 105.846L53.1028 105.842L52.8955 106.82ZM58.5345 105.345L59.2001 106.091L59.2004 106.091L58.5345 105.345ZM60.5304 99.8868L59.5408 100.031L59.5436 100.05L59.5471 100.069L60.5304 99.8868ZM29.4783 69.5107L29.6042 68.5186L29.603 68.5185L29.4783 69.5107ZM29.4401 69.5059L29.5648 68.5137L29.531 68.5094L29.497 68.5075L29.4401 69.5059ZM39.615 99.3688L38.6243 99.2331L38.6187 99.2739L38.6165 99.3149L39.615 99.3688ZM36.4023 92.0834L35.7929 92.8763L35.7934 92.8766L36.4023 92.0834ZM34.5719 106.145L34.1781 105.226L34.178 105.226L34.5719 106.145ZM26.1662 105.073L26.8219 104.318L26.7871 104.288L26.7497 104.261L26.1662 105.073ZM23.1448 97.2696L24.1318 97.4307L24.1318 97.4306L23.1448 97.2696ZM28.495 90.808L28.7933 91.7625L28.8305 91.7509L28.8667 91.7364L28.495 90.808ZM27.3446 52.312C28.4537 51.8695 29.687 51.9898 30.8398 52.1188L31.0622 50.1312C29.9765 50.0097 28.2467 49.7987 26.6034 50.4544L27.3446 52.312ZM24.1003 57.8771C23.8331 55.5982 24.8354 53.1572 27.2927 52.331L26.6553 50.4353C23.0409 51.6505 21.7721 55.1952 22.1139 58.11L24.1003 57.8771ZM28.5484 62.4838C25.914 62.2952 24.3682 60.1627 24.1003 57.8772L22.1139 58.11C22.4578 61.0441 24.5366 64.2016 28.4055 64.4787L28.5484 62.4838ZM66.9002 96.7104C63.2781 78.6971 47.0347 64.1587 28.5672 62.4854L28.3867 64.4772C45.9798 66.0713 61.4933 79.9662 64.9394 97.1046L66.9002 96.7104ZM66.9074 96.7469L66.901 96.7148L64.9385 97.1001L64.9448 97.1322L66.9074 96.7469ZM66.9015 96.7171L66.8934 96.6862L64.9587 97.193L64.9668 97.2239L66.9015 96.7171ZM67.3041 99.0498C67.2002 98.2355 67.0928 97.4413 66.901 96.7152L64.9673 97.2258C65.1206 97.8061 65.2144 98.4739 65.3201 99.3028L67.3041 99.0498ZM67.3257 99.2184L67.3039 99.0488L65.3202 99.3038L65.342 99.4734L67.3257 99.2184ZM67.6855 101.478C67.521 100.749 67.4222 99.9778 67.3259 99.2199L65.3419 99.4719C65.4362 100.214 65.5455 101.081 65.7345 101.918L67.6855 101.478ZM70.3231 105.288C68.7031 104.471 68.0392 103.051 67.6856 101.479L65.7343 101.917C66.1475 103.755 67.0329 105.869 69.4226 107.074L70.3231 105.288ZM75.5442 105.271C73.9758 106.125 71.9976 106.274 70.3811 105.32L69.3646 107.042C71.7029 108.422 74.4426 108.149 76.501 107.027L75.5442 105.271ZM78.2735 100.93C78.2978 102.83 77.1242 104.411 75.5445 105.271L76.5007 107.027C78.5768 105.897 80.3092 103.708 80.2733 100.904L78.2735 100.93ZM78.273 100.892L78.2734 100.928L80.2733 100.906L80.2729 100.87L78.273 100.892ZM78.2733 100.925L78.2762 100.961L80.2698 100.801L80.2669 100.765L78.2733 100.925ZM63.5555 68.6134C71.9461 77.3152 77.3089 88.9145 78.2733 100.925L80.2669 100.765C79.2643 88.2785 73.6965 76.2492 64.9952 67.2252L63.5555 68.6134ZM31.0723 52.1447C43.3766 53.7237 55.0752 59.6207 63.5479 68.6054L65.0029 67.2332C56.2078 57.9066 44.0826 51.7979 31.3269 50.1609L31.0723 52.1447ZM31.0546 52.1423L31.0649 52.1437L31.3343 50.1619L31.324 50.1605L31.0546 52.1423ZM31.0641 52.1436L31.0745 52.1448L31.3041 50.158L31.2937 50.1568L31.0641 52.1436ZM30.8409 52.1189C30.918 52.1275 30.9955 52.1362 31.0715 52.1444L31.2862 50.156C31.2147 50.1482 31.141 50.14 31.0632 50.1313L30.8409 52.1189ZM30.8399 52.1188L30.8409 52.1189L31.0631 50.1313L31.0621 50.1312L30.8399 52.1188ZM26.489 71.2162C27.3665 70.6846 28.3251 70.4464 29.347 70.5022L29.456 68.5052C28.0338 68.4275 26.6759 68.7646 25.4527 69.5056L26.489 71.2162ZM24.0329 75.1449C24.2029 73.5638 25.0266 72.0555 26.4685 71.2283L25.4732 69.4935C23.3805 70.6941 22.2702 72.831 22.0444 74.9311L24.0329 75.1449ZM25.5155 79.5111C24.3433 78.3774 23.8635 76.7215 24.0329 75.1449L22.0444 74.9311C21.8198 77.0203 22.4416 79.3204 24.125 80.9487L25.5155 79.5111ZM27.6547 80.7567C26.8739 80.5125 26.1342 80.1645 25.5471 79.5431L24.0933 80.9166C25.0113 81.8882 26.1158 82.3709 27.0577 82.6655L27.6547 80.7567ZM28.8571 81.0688C28.4546 80.9768 28.0486 80.8797 27.6544 80.7566L27.0581 82.6656C27.532 82.8137 28.0029 82.9252 28.4115 83.0185L28.8571 81.0688ZM28.9375 81.0872L28.8573 81.0689L28.4114 83.0185L28.4915 83.0368L28.9375 81.0872ZM29.0742 81.1183C29.0309 81.1086 28.9865 81.0984 28.938 81.0873L28.491 83.0367C28.5383 83.0476 28.5885 83.0591 28.6387 83.0703L29.0742 81.1183ZM29.1026 81.1248L29.0787 81.1193L28.6341 83.0693L28.658 83.0747L29.1026 81.1248ZM29.1032 81.1249L29.1031 81.1249L28.6575 83.0746L28.6576 83.0746L29.1032 81.1249ZM30.0462 81.3523C29.7351 81.2689 29.42 81.1972 29.1028 81.1248L28.658 83.0747C28.9825 83.1487 29.26 83.2121 29.5283 83.2841L30.0462 81.3523ZM30.0897 81.3648L30.0678 81.3583L29.5067 83.278L29.5286 83.2844L30.0897 81.3648ZM30.0178 81.3463L29.9957 81.3421L29.6226 83.307L29.6447 83.3112L30.0178 81.3463ZM48.8827 100.832C47.1202 91.4574 39.4519 83.4663 30.0505 81.3531L29.6119 83.3044C38.2331 85.2423 45.302 92.6107 46.9171 101.202L48.8827 100.832ZM53.1028 105.842C50.7313 105.339 49.2107 103.16 48.8902 100.878L46.9096 101.156C47.3107 104.012 49.2636 107.073 52.6883 107.798L53.1028 105.842ZM57.8689 104.599C56.6167 105.715 54.8556 106.291 53.1444 105.851L52.6467 107.789C55.1082 108.421 57.5369 107.575 59.2001 106.091L57.8689 104.599ZM59.5471 100.069C59.8699 101.814 59.1218 103.48 57.8686 104.599L59.2004 106.091C60.8691 104.602 61.9874 102.266 61.5138 99.7049L59.5471 100.069ZM29.3524 70.5027C44.4777 72.4223 57.3698 85.1018 59.5408 100.031L61.52 99.7429C59.2191 83.9209 45.6172 70.5509 29.6042 68.5186L29.3524 70.5027ZM29.3155 70.4981L29.3537 70.5029L29.603 68.5185L29.5648 68.5137L29.3155 70.4981ZM29.3447 70.5021L29.3833 70.5043L29.497 68.5075L29.4584 68.5053L29.3447 70.5021ZM40.6058 99.5045C41.0688 96.1242 39.3828 93.1109 37.0113 91.2902L35.7934 92.8766C37.7203 94.356 38.9702 96.7077 38.6243 99.2331L40.6058 99.5045ZM34.9657 107.064C37.8782 105.816 40.4161 103.085 40.6136 99.4227L38.6165 99.3149C38.4692 102.045 36.5639 104.204 34.1781 105.226L34.9657 107.064ZM25.5106 105.828C28.314 108.263 32.0485 108.314 34.9658 107.064L34.178 105.226C31.7933 106.248 28.9172 106.138 26.8219 104.318L25.5106 105.828ZM22.1579 97.1086C21.6516 100.211 22.6148 103.753 25.5827 105.885L26.7497 104.261C24.5208 102.659 23.7215 99.945 24.1318 97.4307L22.1579 97.1086ZM28.1968 89.8535C24.7059 90.9443 22.6645 94.0028 22.1579 97.1086L24.1318 97.4306C24.5425 94.9124 26.1671 92.5831 28.7933 91.7625L28.1968 89.8535ZM37.0117 91.2905C34.6389 89.4669 31.2893 88.612 28.1233 89.8797L28.8667 91.7364C31.2528 90.781 33.8658 91.3951 35.7929 92.8763L37.0117 91.2905Z" fill="url(#paint2_linear_110_180)"/>
<defs>
<linearGradient id="paint0_linear_110_180" x1="64" y1="119" x2="64" y2="8" gradientUnits="userSpaceOnUse">
<stop stop-color="#5570FF"/>
<stop offset="1" stop-color="#4DD3FF"/>
</linearGradient>
<linearGradient id="paint1_linear_110_180" x1="51.1369" y1="107" x2="51.1369" y2="51" gradientUnits="userSpaceOnUse">
<stop stop-color="#5570FF"/>
<stop offset="1" stop-color="#4DD3FF"/>
</linearGradient>
<linearGradient id="paint2_linear_110_180" x1="51.1369" y1="107" x2="51.1369" y2="51" gradientUnits="userSpaceOnUse">
<stop stop-color="#5570FF"/>
<stop offset="1" stop-color="#4DD3FF"/>
</linearGradient>
</defs>
</svg>
