<svg width="192" height="192" viewBox="0 0 192 192" fill="none" xmlns="http://www.w3.org/2000/svg">
<g opacity="0.4">
<path d="M156.697 49.9911C153.44 50.8076 150.183 51.624 146.9 52.29C144.522 52.8044 142.132 53.253 139.742 53.7015C136.091 54.3865 132.442 55.0714 128.84 55.99C124.52 57.09 121.72 60.85 119.47 64.43C115.236 71.478 110.756 78.379 106.279 85.277L106.274 85.2844C105.039 87.1867 103.805 89.0888 102.576 90.9937C101.429 92.7706 101.871 95.136 103.637 96.2991C105.529 97.5447 107.462 98.7265 109.396 99.9081C111.342 101.097 113.288 102.286 115.19 103.54C116.01 104.04 116.84 104.54 117.67 105.04C120.462 106.728 123.199 108.501 125.937 110.275C128.729 112.084 131.522 113.893 134.37 115.61C138.303 118.062 143.04 116.991 147.275 116.034C147.444 115.996 147.613 115.958 147.78 115.92C149.936 115.396 152.091 114.865 154.246 114.335C160.967 112.681 167.688 111.027 174.45 109.55C174.87 109.435 175.301 109.329 175.736 109.224C177.596 108.77 179.516 108.302 180.91 106.94C182.059 105.776 182.281 104.172 182.497 102.601V102.601C182.643 101.545 182.439 100.439 181.778 99.6025C180.345 97.7878 178.526 96.1609 176.03 96.53C170.311 97.5898 164.66 99.0121 159.009 100.434C153.265 101.88 147.521 103.325 141.706 104.391C140.834 104.55 139.933 104.409 139.163 103.971C137.171 102.839 135.259 101.574 133.347 100.309C131.476 99.0716 129.605 97.8343 127.66 96.72C125.758 95.4667 123.829 94.246 121.9 93.0259C121.213 92.591 120.526 92.1562 119.84 91.72C119.596 91.5705 119.235 91.3441 118.874 91.1173L118.872 91.1164L118.87 91.115V91.115C118.327 90.7741 118.137 90.0677 118.451 89.5083C120.04 86.6746 121.814 83.9567 123.589 81.2381C125.264 78.6721 126.94 76.1051 128.46 73.44C128.688 73.0773 128.91 72.7082 129.133 72.338C129.923 71.0271 130.72 69.7035 131.787 68.6105C132.04 68.3506 132.343 68.1427 132.675 67.9971C134.123 67.3635 135.69 67.0678 137.247 66.7739C137.794 66.6706 138.341 66.5675 138.88 66.45C143.135 65.7857 147.332 64.8266 151.528 63.8675C154.919 63.0927 158.31 62.3179 161.731 61.6983C162.365 61.5837 162.975 61.989 163.125 62.615V62.615C163.225 63.0325 163.325 63.45 163.39 63.73C164.005 66.4706 164.613 69.213 165.221 71.9549L165.222 71.9631C166.006 75.5015 166.79 79.0389 167.59 82.57C167.906 84.311 168.826 85.8044 169.736 87.2802V87.2802C170.031 87.76 170.524 88.0871 171.08 88.1783C171.117 88.1845 171.155 88.1906 171.192 88.1968L171.193 88.197C173.577 88.5887 176.203 89.0201 178.06 87.11C180.737 84.9346 180.044 81.3246 179.467 78.3207C179.424 78.0934 179.381 77.8695 179.34 77.65C178.255 73.4364 177.333 69.1788 176.412 64.921C175.333 59.9356 174.254 54.9494 172.912 50.0336C172.394 48.1356 170.533 46.9384 168.597 47.2882C164.598 48.0105 160.647 49.0009 156.697 49.9911Z" fill="url(#paint0_linear_54_1067)"/>
<path d="M44.0126 74.8482C46.9699 74.1469 49.9562 73.4386 53.01 73.65C55.6617 73.8855 57.8872 75.3764 60.0451 76.8219L60.046 76.8225L60.0514 76.8261C60.3653 77.0364 60.6778 77.2457 60.99 77.45C62.4249 78.3627 63.8591 79.2762 65.2933 80.1897L65.3163 80.2044C73.7046 85.5472 82.0911 90.8889 90.587 96.0595C90.9173 96.2605 91.029 96.6877 90.84 97.025V97.025C90.765 97.1588 90.69 97.2926 90.6237 97.4107C90.5772 97.4933 90.535 97.5682 90.5 97.63C89.1815 99.6731 87.8581 101.713 86.5347 103.753C82.4881 109.991 78.4409 116.23 74.53 122.56C74.1405 123.184 73.7584 123.818 73.3752 124.454C71.5347 127.51 69.6671 130.61 66.82 132.82C64.0768 134.757 60.7504 135.383 57.4882 135.996C56.7429 136.136 56.0009 136.276 55.27 136.43C47.5707 137.786 39.9715 139.593 32.37 141.401C28.5747 142.303 24.7785 143.206 20.9692 144.053C20.3313 144.195 19.6871 143.835 19.4609 143.222V143.222C19.0035 141.982 18.5424 140.731 18.4081 139.418C18.3839 139.18 18.3522 138.943 18.297 138.711C16.0277 129.157 13.8844 119.573 11.7899 109.99C10.8999 107.01 12.5399 103.59 15.4799 102.53C18.9199 101.05 23.1399 103.47 23.82 107.1C24.7232 110.756 25.5299 114.433 26.3366 118.11C26.9971 121.12 27.6575 124.13 28.3709 127.129C28.4169 127.322 28.322 127.521 28.1428 127.607V127.607C27.8514 127.747 27.8225 128.146 28.111 128.291C30.0758 129.283 32.2451 128.747 34.3418 128.23C34.8637 128.101 35.3814 127.973 35.89 127.87C41.5656 126.437 47.3164 125.318 53.063 124.199L53.0669 124.198L53.0698 124.198C54.5807 123.904 56.0912 123.61 57.6 123.31C59.6611 123.155 60.6775 121.451 61.6494 119.822C61.9319 119.348 62.2105 118.881 62.51 118.46C64.1127 115.602 65.9112 112.86 67.7095 110.119C69.5914 107.25 71.4732 104.382 73.13 101.38C73.211 101.199 73.3463 100.914 73.4682 100.657V100.657C73.5791 100.423 73.5012 100.144 73.2857 100.001C70.2517 97.9849 67.1733 96.04 64.095 94.095C60.89 92.07 57.685 90.045 54.53 87.94C54.4245 87.8755 54.3182 87.8099 54.2113 87.7438C52.7265 86.827 51.0996 85.8223 49.29 86.41C45.3815 87.1618 41.5225 88.1443 37.6636 89.1266C34.7992 89.8559 31.9343 90.5852 29.05 91.22C27.5599 91.5313 26.0747 91.9064 24.5879 92.2819C20.8375 93.229 17.0764 94.1788 13.1994 94.1152C12.5082 94.1038 11.8734 93.7486 11.4516 93.2009V93.2009C10.1289 91.4832 8.72418 89.659 9.16004 87.36C9.41004 84.34 12.11 82.22 14.95 81.8C23.84 79.74 32.7 77.6 41.56 75.41C42.3756 75.2365 43.1934 75.0425 44.0126 74.8482Z" fill="url(#paint1_linear_54_1067)"/>
</g>
<path d="M105.65 9.28002C101.79 7.33002 96.65 10.67 97.01 15.02C97.9849 20.9184 99.4565 26.7241 100.928 32.5286C102.361 38.1829 103.794 43.8363 104.767 49.573C104.917 50.4576 104.753 51.3662 104.306 52.144C101.668 56.7307 98.7764 61.1782 95.8867 65.6224C94.912 67.1214 93.9375 68.6202 92.973 70.1239C91.8114 71.9349 89.4313 72.5345 87.5903 71.421C84.566 69.5917 81.5902 67.6819 78.6143 65.772C75.7551 63.9371 72.8956 62.102 69.9929 60.3382C69.0434 59.7612 68.3662 58.8231 68.1359 57.7361C67.6012 55.2128 67.0839 52.6851 66.5666 50.1573C65.3249 44.09 64.0829 38.0213 62.6 32.01V32.01C62.2482 30 63.4925 28.0432 65.483 27.5939C67.4247 27.1556 69.3728 26.743 71.3207 26.3305C75.9092 25.3586 80.4969 24.3869 85 23.08C88.2026 22.2769 88.8982 18.8095 89.4557 16.0311V16.0311C89.4649 15.9852 89.4577 15.9377 89.4347 15.8969C87.8074 13.0003 84.8739 10.2783 81.29 11.42C77.677 12.2564 74.048 13.0403 70.4181 13.8243C63.7691 15.2604 57.1174 16.6971 50.5583 18.4586C48.6331 18.9755 47.4109 20.859 47.7627 22.821C48.5718 27.3327 49.6724 31.7907 50.7737 36.2515C51.8937 40.7882 53.0144 45.3281 53.83 49.93C54.2498 51.5965 54.539 53.3492 54.8302 55.1145C55.6696 60.203 56.5263 65.396 60.58 68.93C65.6007 72.3115 70.7237 75.5425 75.8475 78.774C80.9744 82.0075 86.1025 85.2418 91.1294 88.6276C93.0308 89.9082 95.6248 89.3737 96.8375 87.4283C103.048 77.466 109.347 67.556 115.67 57.67C117.67 54.78 117.82 51.17 117.38 47.8C116.261 42.8712 115.057 37.9597 113.852 33.0474C112.461 27.3753 111.069 21.7018 109.81 16C109.25 13.4 108.43 10.33 105.65 9.28002Z" fill="url(#paint2_linear_54_1067)"/>
<path d="M76.11 133.09C80.8233 125.83 85.4299 118.499 90.0365 111.168C91.6372 108.621 93.238 106.073 94.8431 103.529C96.0138 101.673 98.4628 101.111 100.315 102.287C103.099 104.054 105.864 105.852 108.63 107.65C113.671 110.928 118.713 114.207 123.87 117.3C123.983 117.368 124.097 117.435 124.211 117.504C128.944 120.324 134.358 123.551 135.51 129.4C136.016 131.829 136.512 134.261 137.008 136.693C139.195 147.41 141.383 158.134 144.383 168.665C144.454 168.914 144.507 169.172 144.507 169.432C144.497 172.077 141.911 172.594 139.652 173.046C139.223 173.131 138.806 173.215 138.42 173.31C134.058 174.236 129.71 175.228 125.362 176.22C120.459 177.339 115.558 178.457 110.64 179.48C108.557 180.086 106.574 179.279 104.672 178.504V178.504C104.179 178.304 103.805 177.891 103.625 177.391C103.545 177.167 103.46 176.944 103.376 176.72C102.808 175.206 102.229 173.667 102.75 172.06C103.37 169.52 105.71 167.81 108.19 167.35C111.066 166.672 113.951 166.042 116.836 165.411C119.906 164.741 122.975 164.07 126.031 163.343C128.151 162.838 129.435 160.703 128.95 158.579C127.275 151.254 125.765 143.893 124.256 136.536C124.036 135.467 123.817 134.398 123.597 133.329C123.513 132.919 123.373 132.519 123.131 132.177C121.964 130.526 120.096 129.489 118.251 128.466C117.32 127.95 116.395 127.437 115.57 126.85C112.78 125.17 110.05 123.38 107.33 121.59C105.668 120.472 103.969 119.428 102.272 118.385V118.385C101.503 117.912 100.497 118.123 99.9909 118.87C97.3868 122.713 94.908 126.639 92.4298 130.564C90.8961 132.993 89.3627 135.422 87.8 137.83C86.1588 139.746 86.7436 142.106 87.3029 144.363C87.4559 144.98 87.6069 145.589 87.71 146.18C90.19 155.75 92.55 165.37 94.63 175.04C95.71 179.55 90.49 183.8 86.3 181.85C83.14 180.78 82.32 177.26 81.73 174.38C80.667 169.41 79.4462 164.473 78.2253 159.535C76.9309 154.3 75.6364 149.065 74.53 143.79C73.66 140.18 73.89 136.19 76.11 133.09Z" fill="url(#paint3_linear_54_1067)"/>
<defs>
<linearGradient id="paint0_linear_54_1067" x1="95.9246" y1="182.336" x2="95.9246" y2="8.71059" gradientUnits="userSpaceOnUse">
<stop stop-color="#FD5900"/>
<stop offset="1" stop-color="#FFDE00"/>
</linearGradient>
<linearGradient id="paint1_linear_54_1067" x1="95.9246" y1="182.336" x2="95.9246" y2="8.71059" gradientUnits="userSpaceOnUse">
<stop stop-color="#FD5900"/>
<stop offset="1" stop-color="#FFDE00"/>
</linearGradient>
<linearGradient id="paint2_linear_54_1067" x1="95.9246" y1="182.336" x2="95.9246" y2="8.71059" gradientUnits="userSpaceOnUse">
<stop stop-color="#FD5900"/>
<stop offset="1" stop-color="#FFDE00"/>
</linearGradient>
<linearGradient id="paint3_linear_54_1067" x1="95.9246" y1="182.336" x2="95.9246" y2="8.71059" gradientUnits="userSpaceOnUse">
<stop stop-color="#FD5900"/>
<stop offset="1" stop-color="#FFDE00"/>
</linearGradient>
</defs>
</svg>
