<svg width="32" height="32" viewBox="0 0 32 32" fill="none" xmlns="http://www.w3.org/2000/svg">
<path opacity="0.4" d="M28.25 2H3.75C2.7835 2 2 2.7835 2 3.75V28.25C2 29.2165 2.7835 30 3.75 30H28.25C29.2165 30 30 29.2165 30 28.25V3.75C30 2.7835 29.2165 2 28.25 2Z" fill="url(#paint0_linear_6_78)"/>
<path d="M16.9299 23.3935C16.3477 23.0877 15.6523 23.0877 15.0701 23.3935L12.1705 24.9164C10.7031 25.6871 8.98895 24.4409 9.26935 22.8074L9.82195 19.5881C9.9334 18.9388 9.71795 18.2763 9.24589 17.8167L6.90612 15.5389C5.71791 14.3821 6.37264 12.365 8.01369 12.1266L11.2515 11.6562C11.9026 11.5616 12.4655 11.1529 12.757 10.563L14.207 7.62863C14.9409 6.1433 17.0591 6.1433 17.793 7.62862L19.243 10.563C19.5345 11.1529 20.0974 11.5616 20.7485 11.6562L23.9863 12.1266C25.6274 12.365 26.2821 14.3821 25.0939 15.5389L22.7541 17.8167C22.2821 18.2763 22.0666 18.9388 22.1781 19.5881L22.7307 22.8074C23.0111 24.4409 21.2969 25.6871 19.8295 24.9164L16.9299 23.3935Z" fill="url(#paint1_linear_6_78)"/>
<defs>
<linearGradient id="paint0_linear_6_78" x1="16" y1="30" x2="16" y2="2" gradientUnits="userSpaceOnUse">
<stop stop-color="#FD5900"/>
<stop offset="1" stop-color="#FFDE00"/>
</linearGradient>
<linearGradient id="paint1_linear_6_78" x1="16" y1="26.8" x2="16" y2="4" gradientUnits="userSpaceOnUse">
<stop stop-color="#FD5900"/>
<stop offset="1" stop-color="#FFDE00"/>
</linearGradient>
</defs>
</svg>
