<svg width="32" height="32" viewBox="0 0 32 32" fill="none" xmlns="http://www.w3.org/2000/svg">
<path opacity="0.4" d="M1 2C0.447716 2 0 2.44772 0 3V11C0 11.5523 0.448817 12.0052 0.998342 11.95C1.96908 11.8526 2.92217 11.6135 3.82683 11.2388C5.04009 10.7362 6.14248 9.99965 7.07107 9.07107C7.99965 8.14248 8.73625 7.04009 9.2388 5.82683C9.61352 4.92217 9.85264 3.96908 9.95004 2.99834C10.0052 2.44882 9.55228 2 9 2H1ZM31 30C31.5523 30 32 29.5523 32 29V21C32 20.4477 31.5512 19.9948 31.0016 20.0499C28.7161 20.2792 26.5675 21.2904 24.9289 22.9289C23.2904 24.5675 22.2792 26.7161 22.0499 29.0016C21.9948 29.5512 22.4477 30 23 30H31ZM1.001 30C0.448716 30 0.001 29.5523 0.001 29V21C0.001 20.4477 0.449843 19.9948 0.99937 20.0499C3.28487 20.2792 5.43351 21.2904 7.07207 22.9289C8.71062 24.5675 9.72182 26.7161 9.95107 29.0016C10.0062 29.5512 9.55329 30 9.001 30H1.001Z" fill="url(#paint0_linear_38_93)"/>
<path d="M32 11V3C32 2.44772 31.5523 2 31 2H23C22.4477 2 21.9948 2.44884 22.0499 2.99837C22.2792 5.28387 23.2904 7.43251 24.9289 9.07107C26.5675 10.7096 28.7161 11.7208 31.0016 11.9501C31.5512 12.0052 32 11.5523 32 11Z" fill="url(#paint1_linear_38_93)"/>
<defs>
<linearGradient id="paint0_linear_38_93" x1="16" y1="30" x2="16" y2="2" gradientUnits="userSpaceOnUse">
<stop stop-color="#A93AFF"/>
<stop offset="1" stop-color="#FF81FF"/>
</linearGradient>
<linearGradient id="paint1_linear_38_93" x1="16" y1="30" x2="16" y2="2" gradientUnits="userSpaceOnUse">
<stop stop-color="#A93AFF"/>
<stop offset="1" stop-color="#FF81FF"/>
</linearGradient>
</defs>
</svg>
