<svg width="32" height="32" viewBox="0 0 32 32" fill="none" xmlns="http://www.w3.org/2000/svg">
<path fill-rule="evenodd" clip-rule="evenodd" d="M30.0003 10.3333C30.0003 10.8856 29.5526 11.3333 29.0003 11.3333H21.667C21.1147 11.3333 20.667 10.8856 20.667 10.3333V3C20.667 2.44771 21.1147 2 21.667 2H29.0003C29.5526 2 30.0003 2.44772 30.0003 3V10.3333ZM23.0003 8C23.0003 8.55229 23.448 9 24.0003 9H26.667C27.2193 9 27.667 8.55228 27.667 8V5.33333C27.667 4.78105 27.2193 4.33333 26.667 4.33333H24.0003C23.448 4.33333 23.0003 4.78105 23.0003 5.33333V8ZM18.1663 14.8335C17.6141 14.8335 17.1663 14.3858 17.1663 13.8335V8.8335C17.1663 8.28121 16.7186 7.8335 16.1663 7.8335H8.83301C8.28072 7.8335 7.83301 8.28121 7.83301 8.8335V23.1668C7.83301 23.7191 8.28072 24.1668 8.83301 24.1668H23.1663C23.7186 24.1668 24.1663 23.7191 24.1663 23.1668V15.8335C24.1663 15.2812 23.7186 14.8335 23.1663 14.8335H18.1663ZM10.1663 11.1668C10.1663 10.6145 10.6141 10.1668 11.1663 10.1668H13.833C14.3853 10.1668 14.833 10.6145 14.833 11.1668V13.8335C14.833 14.3858 14.3853 14.8335 13.833 14.8335H11.1663C10.6141 14.8335 10.1663 14.3858 10.1663 13.8335V11.1668ZM14.833 20.8335C14.833 21.3858 14.3853 21.8335 13.833 21.8335H11.1663C10.6141 21.8335 10.1663 21.3858 10.1663 20.8335V18.1668C10.1663 17.6145 10.6141 17.1668 11.1663 17.1668H13.833C14.3853 17.1668 14.833 17.6145 14.833 18.1668V20.8335ZM21.833 20.8335C21.833 21.3858 21.3853 21.8335 20.833 21.8335H18.1663C17.6141 21.8335 17.1663 21.3858 17.1663 20.8335V18.1668C17.1663 17.6145 17.6141 17.1668 18.1663 17.1668H20.833C21.3853 17.1668 21.833 17.6145 21.833 18.1668V20.8335Z" fill="url(#paint0_linear_80_351)" stroke="url(#paint1_linear_80_351)"/>
<path opacity="0.4" d="M15 1.5H4.33333C3.58225 1.50075 2.86164 1.79945 2.33055 2.33055C1.79945 2.86164 1.50075 3.58225 1.5 4.33333V27.6672C1.50075 28.4183 1.79946 29.1383 2.33053 29.6694C2.86164 30.2006 3.58225 30.4993 4.33333 30.5H27.6672C28.4182 30.4993 29.1383 30.2006 29.6695 29.6695C30.2006 29.1383 30.4993 28.4177 30.5 27.6667V17C30.5 16.1716 29.8284 15.5 29 15.5H28.6667C27.8383 15.5 27.1667 16.1716 27.1667 17V26.6667C27.1667 26.9429 26.9429 27.1667 26.6667 27.1667H5.33333C5.05719 27.1667 4.83333 26.9429 4.83333 26.6667V5.33333C4.83333 5.05719 5.05719 4.83333 5.33333 4.83333H15C15.8284 4.83333 16.5 4.16176 16.5 3.33333V3C16.5 2.17158 15.8284 1.5 15 1.5Z" fill="url(#paint2_linear_80_351)"/>
<defs>
<linearGradient id="paint0_linear_80_351" x1="16.0002" y1="2" x2="16.0002" y2="30" gradientUnits="userSpaceOnUse">
<stop stop-color="#FF97CE"/>
<stop offset="1" stop-color="#854FE6"/>
</linearGradient>
<linearGradient id="paint1_linear_80_351" x1="16.0002" y1="2" x2="16.0002" y2="30" gradientUnits="userSpaceOnUse">
<stop stop-color="#FF97CE"/>
<stop offset="1" stop-color="#854FE6"/>
</linearGradient>
<linearGradient id="paint2_linear_80_351" x1="12.3162" y1="2" x2="12.3162" y2="37.3682" gradientUnits="userSpaceOnUse">
<stop stop-color="#FF97CE"/>
<stop offset="1" stop-color="#854FE6"/>
</linearGradient>
</defs>
</svg>
