<svg width="32" height="32" viewBox="0 0 32 32" fill="none" xmlns="http://www.w3.org/2000/svg">
<path opacity="0.4" fill-rule="evenodd" clip-rule="evenodd" d="M10.2951 1.03921C9.51716 0.853059 8.93017 1.34088 8.68706 1.88282C8.44928 2.41292 8.45933 3.16495 9.01663 3.65362V3.65362C9.03688 3.67138 9.05853 3.68747 9.08138 3.70174V3.70174V3.70174C9.44531 3.92908 9.48783 4.50602 9.11876 4.72492C8.23723 5.24779 7.39525 5.85738 6.66118 6.61128C4.3298 8.96648 2.83444 12.2463 2.90601 15.6202C2.90601 15.6203 2.90598 15.6203 2.90594 15.6203V15.6203C2.90591 15.6203 2.90588 15.6203 2.90588 15.6204L2.9064 15.632C2.90745 15.6557 2.90832 15.6833 2.90928 15.714C2.91311 15.8368 2.91846 16.008 2.94378 16.164C2.97801 16.3748 3.05624 16.6299 3.25891 16.8496L3.25994 16.8507C3.60752 17.2252 4.10254 17.3526 4.54316 17.308C4.98281 17.2636 5.438 17.0417 5.71011 16.625L5.72383 16.6039L5.73537 16.5817C5.85166 16.3573 5.88804 16.1297 5.9039 15.9467C5.91158 15.8581 5.91503 15.7705 5.91795 15.6965L5.91795 15.6964V15.6964L5.91823 15.6893C5.92138 15.6094 5.92408 15.5447 5.92959 15.4838L5.93099 15.4683L5.93143 15.4528C5.98008 13.7155 6.52414 11.9942 7.45876 10.5239C7.45876 10.5239 7.45876 10.5239 7.45877 10.5239V10.5239C7.45877 10.5239 7.45877 10.5239 7.45877 10.5239L7.46043 10.5213C8.91606 8.19943 11.3715 6.50826 14.0749 6.07576C14.0749 6.07575 14.075 6.07578 14.075 6.07582V6.07582C14.075 6.07587 14.075 6.07589 14.0751 6.07589L14.0871 6.07365C14.3639 6.02234 14.6253 6.00008 14.9116 5.9757C15.0784 5.96149 15.2537 5.94657 15.4455 5.92475C15.931 5.86952 16.4622 5.77161 16.9682 5.49652V5.49652C17.1245 5.41155 17.2239 5.24992 17.2292 5.07209V5.07209C17.2315 4.99517 17.2404 4.91188 17.2523 4.80321L17.253 4.79702L17.253 4.797C17.264 4.69687 17.2775 4.57437 17.2813 4.44995C17.2891 4.19722 17.2605 3.87288 17.0518 3.57059C16.8436 3.23679 16.5365 3.0653 16.2754 2.95968C16.1437 2.90641 16.01 2.86465 15.8972 2.82977L15.8774 2.82365C15.7669 2.78951 15.6777 2.76192 15.5954 2.73041L15.5794 2.72428L15.563 2.71926C14.8987 2.51576 14.2192 2.28617 13.5319 2.05391C12.4671 1.69411 11.3832 1.32788 10.3071 1.04224C10.3071 1.04223 10.3071 1.04219 10.3071 1.04215V1.04215C10.3071 1.04211 10.3071 1.04207 10.307 1.04206L10.2951 1.03921ZM27.023 24.1146C27.023 24.1146 27.023 24.1146 27.0229 24.1146C25.8678 25.7011 24.3547 26.9719 22.664 27.9153C22.6083 27.9464 22.6152 28.0297 22.6747 28.0528V28.0528C22.9169 28.147 23.1831 28.2807 23.4141 28.5021L23.4375 28.5245L23.4578 28.5497C23.7324 28.8912 23.7613 29.2719 23.7351 29.574C23.7222 29.7223 23.6949 29.8658 23.6709 29.9856L23.658 30.0495C23.6382 30.1476 23.6221 30.2273 23.6112 30.3052V30.3052C23.5859 30.4852 23.4649 30.6374 23.2952 30.7026V30.7026C23.2621 30.7153 23.2259 30.7296 23.1872 30.7449C23.0233 30.8099 22.8144 30.8927 22.6083 30.9431C22.3438 31.0078 22.0273 31.0366 21.6931 30.9235C20.5976 30.6434 19.5048 30.3402 18.4177 30.0387L18.4171 30.0385C17.9078 29.8972 17.3997 29.7563 16.8931 29.6182C16.3315 29.472 15.7939 29.2524 15.2908 28.9716V28.9716C15.1446 28.8899 15.0489 28.7405 15.036 28.5735V28.5735C14.9882 27.9534 15.0703 27.2617 15.5097 26.672V26.672C15.6038 26.5457 15.7519 26.4712 15.9093 26.4708V26.4708C18.4634 26.4643 21.0327 25.6947 22.9306 24.0213L22.9387 24.0142C22.9387 24.0141 22.9388 24.0142 22.9388 24.0142V24.0142C22.9388 24.0142 22.9389 24.0142 22.9389 24.0142C25.1438 22.1536 26.3862 19.2646 26.4193 16.3716C26.3756 15.6729 26.8007 14.8467 27.6538 14.7058C28.4492 14.5474 29.3266 15.115 29.4154 15.9773L29.4166 15.989L29.4172 16.0007C29.5776 18.8791 28.6848 21.7764 27.0263 24.1099L27.023 24.1146C27.023 24.1146 27.023 24.1146 27.023 24.1146V24.1146Z" fill="url(#paint0_linear_12_163)"/>
<path fill-rule="evenodd" clip-rule="evenodd" d="M19.4715 4.19911C21.3075 2.25547 24.4563 1.88622 26.7417 3.24696C27.8307 3.93756 28.7607 4.91879 29.2137 6.14276C29.93 7.96846 29.7042 10.1463 28.5897 11.7669C27.6495 13.1037 26.1487 14.0199 24.5281 14.2439C22.9315 14.4849 21.2682 14.0011 19.998 13.0165C19.6134 12.6951 19.2664 12.3293 18.9484 11.9412C17.2014 9.68646 17.4441 6.20259 19.4715 4.19911ZM25.682 5.02821C24.0187 3.95466 21.6289 4.49656 20.5502 6.14106C19.4032 7.68299 19.6955 10.0113 21.1314 11.2694C21.7109 11.7566 22.4135 12.1105 23.1691 12.2096C25.053 12.5122 27.0205 11.1669 27.4685 9.32236C27.6855 8.31549 27.583 7.19236 26.9897 6.32569C26.653 5.80429 26.1965 5.37181 25.682 5.02821Z" fill="url(#paint1_linear_12_163)" stroke="url(#paint2_linear_12_163)"/>
<path fill-rule="evenodd" clip-rule="evenodd" d="M2.26582 19.95C2.23847 19.4218 2.55813 18.7893 3.17183 18.8577C4.53858 18.8486 5.9053 18.8596 7.27205 18.8705C8.72078 18.8823 10.1695 18.8939 11.6182 18.8816C11.7312 18.8859 11.8472 18.8852 11.9643 18.8845C12.4072 18.8818 12.8656 18.8789 13.232 19.1466C13.4952 19.3227 13.5243 19.6629 13.5277 19.95C13.5468 21.6257 13.544 23.3018 13.5413 24.9782C13.5394 26.1563 13.5375 27.3345 13.5431 28.5128C13.5482 28.9145 13.5123 29.3145 13.4508 29.7128C13.0268 29.9298 12.5653 30.082 12.0815 30.0513C10.7789 30.0433 9.47588 30.0445 8.17268 30.0458C6.6609 30.0473 5.14885 30.0485 3.6368 30.0358C3.31748 30.031 2.9996 29.9928 2.6832 29.9545C2.65745 29.9513 2.63173 29.9483 2.606 29.9453C2.58255 29.8915 2.55815 29.8378 2.53368 29.7838C2.39922 29.488 2.26254 29.1873 2.27266 28.8545C2.25043 25.887 2.23847 22.9177 2.26582 19.95ZM7.75838 20.848C6.60718 20.849 5.4559 20.8502 4.3052 20.8424C4.3238 22.6944 4.3207 24.5476 4.3176 26.4008C4.31673 26.9305 4.31583 27.46 4.31545 27.9895C4.50325 27.991 4.69093 27.9923 4.87855 27.9933C5.34838 27.9965 5.81783 27.9993 6.28818 28.0068C8.02155 28.0153 9.75495 28.0203 11.4883 28.005C11.4832 25.6168 11.4798 23.2288 11.49 20.8407C11.1088 20.8458 10.7293 20.8475 10.3481 20.8492C9.48508 20.8463 8.62175 20.8471 7.75838 20.848Z" fill="url(#paint3_linear_12_163)" stroke="url(#paint4_linear_12_163)"/>
<defs>
<linearGradient id="paint0_linear_12_163" x1="16.1696" y1="31" x2="16.1696" y2="0.99884" gradientUnits="userSpaceOnUse">
<stop stop-color="#A93AFF"/>
<stop offset="1" stop-color="#FF81FF"/>
</linearGradient>
<linearGradient id="paint1_linear_12_163" x1="23.7026" y1="14.3051" x2="23.7026" y2="2.43451" gradientUnits="userSpaceOnUse">
<stop stop-color="#A93AFF"/>
<stop offset="1" stop-color="#FF81FF"/>
</linearGradient>
<linearGradient id="paint2_linear_12_163" x1="23.7026" y1="14.3051" x2="23.7026" y2="2.43451" gradientUnits="userSpaceOnUse">
<stop stop-color="#A93AFF"/>
<stop offset="1" stop-color="#FF81FF"/>
</linearGradient>
<linearGradient id="paint3_linear_12_163" x1="7.89679" y1="30.0552" x2="7.89679" y2="18.8526" gradientUnits="userSpaceOnUse">
<stop stop-color="#A93AFF"/>
<stop offset="1" stop-color="#FF81FF"/>
</linearGradient>
<linearGradient id="paint4_linear_12_163" x1="7.89679" y1="30.0552" x2="7.89679" y2="18.8526" gradientUnits="userSpaceOnUse">
<stop stop-color="#A93AFF"/>
<stop offset="1" stop-color="#FF81FF"/>
</linearGradient>
</defs>
</svg>
