<svg width="128" height="128" viewBox="0 0 128 128" fill="none" xmlns="http://www.w3.org/2000/svg">
<path opacity="0.4" d="M52.9775 109.21L48.8557 101.739L9.80768 30.9904L9.45689 30.3564C8.41877 28.4756 7.91847 26.3452 8.01082 24.199C8.10317 22.0526 8.78468 19.9731 9.98044 18.1883C11.1763 16.4036 12.8404 14.9825 14.7902 14.0808C16.7402 13.179 18.9007 12.8315 21.0351 13.0762L109.633 23.2362C111.618 23.464 113.51 24.1959 115.132 25.3622C116.753 26.5285 118.049 28.0903 118.896 29.899C119.743 31.7077 120.113 33.7031 119.97 35.6954C119.829 37.6875 119.179 39.6101 118.083 41.2801L73.0057 109.977C72.0998 111.356 70.9128 112.528 69.5224 113.417C68.132 114.307 66.5695 114.891 64.9372 115.134C63.3051 115.377 61.6399 115.272 60.051 114.827C58.4619 114.383 56.9849 113.606 55.7165 112.55C54.6045 111.616 53.6757 110.484 52.9775 109.21Z" fill="url(#paint0_linear_37_396)"/>
<path d="M53.3113 98.099C52.7719 97.765 52.3277 97.298 52.0214 96.743L18.8177 36.5832C17.2462 33.7359 19.5488 30.3031 22.7794 30.6768L86.4382 38.0412C87.4811 38.1621 88.4758 38.5479 89.3275 39.1618C90.1792 39.7757 90.8597 40.5974 91.3041 41.5486C91.7485 42.4999 91.9422 43.549 91.8666 44.5962C91.7909 45.6434 91.4486 46.6538 90.8721 47.5313L62.1143 91.3127L58.3277 97.005C57.9763 97.533 57.4948 97.962 56.9296 98.25C56.3644 98.538 55.7345 98.675 55.1007 98.649C54.467 98.622 53.8507 98.433 53.3113 98.099Z" stroke="url(#paint1_linear_37_396)" stroke-width="10" stroke-linecap="round" stroke-linejoin="round"/>
<defs>
<linearGradient id="paint0_linear_37_396" x1="120" y1="69.4571" x2="8.00004" y2="69.4571" gradientUnits="userSpaceOnUse">
<stop stop-color="#FFCD1A"/>
<stop offset="1" stop-color="#FD9C0C"/>
</linearGradient>
<linearGradient id="paint1_linear_37_396" x1="53.4739" y1="98.6521" x2="53.4739" y2="29.7844" gradientUnits="userSpaceOnUse">
<stop stop-color="#FD4C00"/>
<stop offset="1" stop-color="#FFB800"/>
</linearGradient>
</defs>
</svg>
