<svg width="24" height="24" viewBox="0 0 24 24" fill="none" xmlns="http://www.w3.org/2000/svg">
<path d="M12.1157 1.09284C12.3014 0.969052 12.5433 0.969052 12.7289 1.09284L13.9659 1.91742C14.166 2.05085 14.2568 2.29838 14.1906 2.52962L13.6986 4.24686C13.6308 4.48399 13.4139 4.64742 13.1673 4.64742H11.6774C11.4307 4.64742 11.2139 4.48399 11.1459 4.24686L10.654 2.52962C10.5878 2.29838 10.6787 2.05085 10.8788 1.91742L12.1157 1.09284Z" fill="url(#paint0_linear_80_167)"/>
<path d="M10.764 4.20508H14.0807V7.52184H10.764V4.20508Z" fill="url(#paint1_linear_80_167)"/>
<path opacity="0.4" d="M9.26354 7.52197H15.5812C16.2812 7.52197 16.8447 8.0972 16.8447 8.8118V21.7104C16.8447 22.425 16.2812 23.0002 15.5812 23.0002H9.26354C8.56354 23.0002 8 22.425 8 21.7104V8.8118C8 8.0972 8.56354 7.52197 9.26354 7.52197Z" fill="url(#paint2_linear_80_167)"/>
<path d="M14.0807 5.31055H10.764V6.41613H14.0807V5.31055Z" fill="url(#paint3_linear_80_167)"/>
<path d="M12.4224 14.2671C13.6436 14.2671 14.6335 13.2771 14.6335 12.0559C14.6335 10.8347 13.6436 9.84473 12.4224 9.84473C11.2012 9.84473 10.2112 10.8347 10.2112 12.0559C10.2112 13.2771 11.2012 14.2671 12.4224 14.2671Z" fill="url(#paint4_linear_80_167)"/>
<defs>
<linearGradient id="paint0_linear_80_167" x1="12.4223" y1="4.2366" x2="12.4223" y2="0.888421" gradientUnits="userSpaceOnUse">
<stop stop-color="#FFE59A"/>
<stop offset="1" stop-color="#FFFFD5"/>
</linearGradient>
<linearGradient id="paint1_linear_80_167" x1="12.4224" y1="7.52184" x2="12.4224" y2="4.20508" gradientUnits="userSpaceOnUse">
<stop stop-color="#FDA700"/>
<stop offset="1" stop-color="#FFDE00"/>
</linearGradient>
<linearGradient id="paint2_linear_80_167" x1="12.4224" y1="23.0002" x2="12.4224" y2="7.52197" gradientUnits="userSpaceOnUse">
<stop stop-color="#FD5900"/>
<stop offset="1" stop-color="#FFDE00"/>
</linearGradient>
<linearGradient id="paint3_linear_80_167" x1="12.4224" y1="6.2953" x2="12.4224" y2="5.31055" gradientUnits="userSpaceOnUse">
<stop stop-color="#FFE59A"/>
<stop offset="1" stop-color="#FFFFD5"/>
</linearGradient>
<linearGradient id="paint4_linear_80_167" x1="12.4224" y1="13.7838" x2="12.4224" y2="9.84473" gradientUnits="userSpaceOnUse">
<stop stop-color="#FFE59A"/>
<stop offset="1" stop-color="#FFFFD5"/>
</linearGradient>
</defs>
</svg>
