<svg width="48" height="48" viewBox="0 0 48 48" fill="none" xmlns="http://www.w3.org/2000/svg">
<path opacity="0.4" d="M6.39168 10.1422L3.09168 15.8578C0.891675 19.6682 38.9968 41.6682 41.1968 37.8578L44.4968 32.1422C46.6968 28.3318 8.59168 6.3318 6.39168 10.1422Z" fill="url(#paint0_linear_83_118)"/>
<path opacity="0.7" d="M41.1979 10.1422L44.4979 15.8578C46.6979 19.6682 8.59277 41.6682 6.39277 37.8578L3.09277 32.1422C0.892774 28.3318 38.9979 6.3318 41.1979 10.1422" fill="url(#paint1_linear_83_118)"/>
<path d="M20.4947 2H27.0947C31.4947 2 31.4947 46 27.0947 46H20.4947C16.0947 46 16.0947 2 20.4947 2Z" fill="url(#paint2_linear_83_118)"/>
<defs>
<linearGradient id="paint0_linear_83_118" x1="3" y1="24" x2="44.5885" y2="24" gradientUnits="userSpaceOnUse">
<stop stop-color="#02AA93"/>
<stop offset="1" stop-color="#67FF80"/>
</linearGradient>
<linearGradient id="paint1_linear_83_118" x1="10.7989" y1="12.9404" x2="27.258" y2="38.5057" gradientUnits="userSpaceOnUse">
<stop stop-color="#8F0CFF"/>
<stop offset="0.516064" stop-color="#AA1DFF"/>
<stop offset="1" stop-color="#B826FF"/>
</linearGradient>
<linearGradient id="paint2_linear_83_118" x1="23.7947" y1="46" x2="23.7947" y2="2" gradientUnits="userSpaceOnUse">
<stop stop-color="#5570FF"/>
<stop offset="1" stop-color="#4DD3FF"/>
</linearGradient>
</defs>
</svg>
