<svg width="64" height="64" viewBox="0 0 64 64" fill="none" xmlns="http://www.w3.org/2000/svg">
<path opacity="0.56" d="M33 4C17.5537 4 5 16.5537 5 32C5 47.4463 17.5537 60 33 60C48.4463 60 61 47.4463 61 32C61 16.5537 48.4463 4 33 4Z" fill="url(#paint0_linear_54_110)"/>
<path d="M28.4389 10.325C31.2327 8.75528 34.5405 9.21141 37.5056 9.96751C44.1251 11.64 49.7821 16.6533 52.3517 23.0144C54.1095 27.3045 54.444 32.1452 53.3958 36.653C52.6497 35.3537 51.5198 34.3911 50.4321 33.404C50.1188 33.1197 49.9096 32.7391 49.8457 32.3209C49.7191 31.4936 49.6192 30.6625 49.3213 29.8728C48.9501 23.6842 45.0265 17.9066 39.4715 15.2561C36.8489 14.1302 33.8267 13.1111 30.9839 13.8836C30.252 13.5532 29.9497 12.8724 29.649 12.1952C29.5427 11.9558 29.3624 11.7541 29.1251 11.643V11.643C28.6446 11.4181 28.3407 10.9389 28.4242 10.415C28.4289 10.3849 28.4338 10.3549 28.4389 10.325Z" fill="#4577FF"/>
<path d="M23.8464 16.4807C24.3685 13.8754 26.106 11.566 28.4389 10.325C28.4338 10.3549 28.4289 10.3849 28.4242 10.415C28.3407 10.9389 28.6446 11.4181 29.1251 11.643V11.643C29.3624 11.7541 29.5427 11.9558 29.649 12.1952C29.9497 12.8724 30.252 13.5532 30.9839 13.8836C28.8875 14.7548 27.6844 17.3806 28.6102 19.5174C29.1241 20.8899 30.3518 21.9295 31.7752 22.2377C37.9094 22.7596 43.7418 25.9443 47.6409 30.7316V30.7316C48.2128 31.4519 49.3725 31.1061 49.3368 30.1871C49.3327 30.0823 49.3275 29.9776 49.3213 29.8728C49.6192 30.6625 49.7191 31.4936 49.8457 32.3209C49.9096 32.7391 50.1188 33.1197 50.4321 33.404C51.5198 34.3911 52.6497 35.3537 53.3958 36.653C52.5929 40.0441 50.9634 43.2077 48.736 45.8692C48.7108 45.8993 48.6847 45.919 48.6467 45.9289V45.9289C48.5233 45.961 48.3923 45.8695 48.3884 45.742C48.3835 45.5774 48.3776 45.394 48.3751 45.2825C48.0814 37.4544 42.453 30.2344 35.0177 27.9989C32.9825 27.2182 30.6862 27.5264 28.7367 26.4785C25.0904 24.7732 22.9859 20.4338 23.8464 16.4807Z" fill="#4577FF"/>
<path d="M11.2232 23.5773C11.606 22.5097 12.0675 21.4667 12.6065 20.4664C13.4657 18.8718 15.742 19.5913 16.2303 21.3355C17.1871 24.7535 19.0647 27.9084 21.6807 30.3042C24.6744 33.0739 28.5654 34.923 32.6317 35.2394C36.2168 35.7325 39.3084 38.6337 40.0547 42.1964C40.9684 46.0879 38.9943 50.4191 35.4419 52.2189C33.9083 50.8053 32.6276 48.9274 30.4415 48.5124C32.4359 48.8986 34.5813 47.7275 35.3113 45.8167C36.2168 43.7538 35.1482 41.128 33.113 40.2281C32.2075 39.7596 31.1634 39.8459 30.1886 39.6446C25.7389 38.8268 21.5624 36.6612 18.2628 33.5423C17.739 33.0307 17.2253 32.502 16.7384 31.9497C16.0078 31.1209 14.5312 31.5 14.6615 32.5972V32.5972C14.119 31.3726 13.8865 29.8892 12.7894 29.0139C12.0022 28.2866 11.211 27.5633 10.33 26.951C10.5339 25.8046 10.8602 24.6827 11.2232 23.5773Z" fill="#4577FF"/>
<path d="M10.33 26.951C11.211 27.5633 12.0022 28.2866 12.7894 29.0139C13.8865 29.8892 14.119 31.3726 14.6615 32.5972C15.2121 40.8239 22.268 47.9617 30.4415 48.5124C32.6276 48.9274 33.9083 50.8053 35.4419 52.2189C34.6955 52.6216 33.8798 52.8764 33.06 53.0736C31.8336 53.2035 30.6073 53.0319 29.3845 53.0713C29.2763 53.0748 29.1678 53.0718 29.0603 53.0586C22.6295 52.2688 16.7089 48.3675 13.2951 42.8416C10.3545 38.1735 9.31846 32.3753 10.33 26.951Z" fill="#4577FF"/>
<defs>
<linearGradient id="paint0_linear_54_110" x1="33" y1="60" x2="33" y2="4" gradientUnits="userSpaceOnUse">
<stop stop-color="#5570FF"/>
<stop offset="1" stop-color="#4DD3FF"/>
</linearGradient>
</defs>
</svg>
