<svg width="128" height="128" viewBox="0 0 128 128" fill="none" xmlns="http://www.w3.org/2000/svg">
<path opacity="0.4" fill-rule="evenodd" clip-rule="evenodd" d="M120 64C120 94.9279 94.9279 120 64 120C33.0721 120 8 94.9279 8 64C8 33.0721 33.0721 8 64 8C94.9279 8 120 33.0721 120 64Z" fill="url(#paint0_linear_69_227)"/>
<path d="M84.4907 30.6103C83.799 28.7345 81.2778 28.4222 80.1493 30.0726L65.4695 51.5429C64.4902 52.9751 62.3762 52.9719 61.4013 51.5365L47.797 31.5054C46.6624 29.8348 44.1097 30.1661 43.4391 32.071L24.1402 86.8917C23.7044 88.1296 24.3165 89.4916 25.5313 89.9879L39.3727 95.641C40.8558 96.2468 42.5132 95.2968 42.74 93.7109L47.3054 61.798C47.6237 59.5726 50.5132 58.9035 51.7774 60.7625L61.3831 74.888C62.3585 76.3223 64.4716 76.3248 65.4505 74.893L76.8083 58.2801C78.0075 56.5262 80.7161 57.0133 81.2289 59.0751L88.9248 90.0169C89.3119 91.573 91.0597 92.3495 92.4739 91.5936L102.699 86.1275C103.782 85.5481 104.273 84.2581 103.848 83.1052L84.4907 30.6103Z" fill="url(#paint1_linear_69_227)"/>
<defs>
<linearGradient id="paint0_linear_69_227" x1="114.926" y1="9.92496" x2="12.5505" y2="117.55" gradientUnits="userSpaceOnUse">
<stop stop-color="#D800BD"/>
<stop offset="0.408098" stop-color="#F92D7A"/>
<stop offset="0.590073" stop-color="#FF4A52"/>
<stop offset="1" stop-color="#FFB243"/>
</linearGradient>
<linearGradient id="paint1_linear_69_227" x1="101.845" y1="28.1569" x2="77.0205" y2="99.7751" gradientUnits="userSpaceOnUse">
<stop stop-color="#FE0F7C"/>
<stop offset="1" stop-color="#DF0066"/>
</linearGradient>
</defs>
</svg>
