<svg width="128" height="128" viewBox="0 0 128 128" fill="none" xmlns="http://www.w3.org/2000/svg">
<rect opacity="0.4" x="8" y="8" width="112" height="112" rx="32" fill="url(#paint0_linear_54_1415)"/>
<path d="M63.9639 23C53.3648 23 43.1998 24.5506 35.7052 27.3108C28.2105 30.071 24 33.8146 24 37.718V90.2821C24 94.1853 28.2105 97.9294 35.7052 100.69C43.1998 103.45 53.3648 105 63.9639 105C74.563 105 84.7277 103.45 92.2225 100.69C99.7177 97.9294 103.928 94.1853 103.928 90.2821V37.718C103.928 33.8146 99.7177 30.071 92.2225 27.3108C84.7277 24.5506 74.563 23 63.9639 23ZM63.9639 30.359C72.7965 30.359 81.2677 31.1343 87.5126 32.5144C93.758 33.8945 97.267 35.7662 97.267 37.718C97.267 39.6697 93.758 41.5415 87.5126 42.9216C81.2677 44.3016 72.7965 45.077 63.9639 45.077C55.1314 45.077 46.6605 44.3016 40.415 42.9216C34.1693 41.5415 30.6607 39.6697 30.6607 37.718C30.6607 35.7662 34.1693 33.8945 40.415 32.5144C46.6605 31.1343 55.1314 30.359 63.9639 30.359ZM30.6607 45.8243C34.297 47.8537 39.2418 49.5198 45.0533 50.6735C50.8647 51.8272 57.3619 52.4327 63.9639 52.4359C70.5625 52.4344 77.0572 51.831 82.8682 50.6798C88.6793 49.5286 93.6265 47.8654 97.267 45.8388V64.0001C97.267 65.9518 93.758 67.8237 87.5126 69.2037C81.2677 70.5837 72.7965 71.3591 63.9639 71.3591C55.1314 71.3591 46.6605 70.5837 40.415 69.2037C34.1693 67.8237 30.6607 65.9518 30.6607 64.0001V45.8243ZM30.6607 72.1065C34.297 74.1359 39.2418 75.8018 45.0533 76.9556C50.8647 78.1093 57.3619 78.7148 63.9639 78.718C70.5625 78.7168 77.0572 78.1131 82.8682 76.962C88.6793 75.8108 93.6265 74.1476 97.267 72.1209V90.2821C97.267 92.2343 93.758 94.1056 87.5126 95.4857C81.2677 96.8658 72.7965 97.6409 63.9639 97.6409C55.1314 97.6409 46.6605 96.8658 40.415 95.4857C34.1693 94.1056 30.6607 92.2343 30.6607 90.2821V72.1065Z" fill="url(#paint1_linear_54_1415)" stroke="url(#paint2_linear_54_1415)" stroke-width="4"/>
<defs>
<linearGradient id="paint0_linear_54_1415" x1="24.4021" y1="103.598" x2="103.598" y2="24.4017" gradientUnits="userSpaceOnUse">
<stop stop-color="#0072FF"/>
<stop offset="1" stop-color="#00E5A1"/>
</linearGradient>
<linearGradient id="paint1_linear_54_1415" x1="35.7052" y1="92.9916" x2="93.6691" y2="36.4923" gradientUnits="userSpaceOnUse">
<stop stop-color="#0072FF"/>
<stop offset="1" stop-color="#00E5A1"/>
</linearGradient>
<linearGradient id="paint2_linear_54_1415" x1="35.7052" y1="92.9916" x2="93.6691" y2="36.4923" gradientUnits="userSpaceOnUse">
<stop stop-color="#0072FF"/>
<stop offset="1" stop-color="#00E5A1"/>
</linearGradient>
</defs>
</svg>
