<svg width="32" height="32" viewBox="0 0 32 32" fill="none" xmlns="http://www.w3.org/2000/svg">
<path opacity="0.4" d="M30 26.8889C30 27.714 29.6722 28.5053 29.0888 29.0888C28.5053 29.6722 27.714 30 26.8889 30H5.11111C4.28599 30 3.49467 29.6722 2.91122 29.0888C2.32778 28.5053 2 27.714 2 26.8889V5.11111C2 4.28599 2.32778 3.49467 2.91122 2.91122C3.49467 2.32778 4.28599 2 5.11111 2H26.8889C27.714 2 28.5053 2.32778 29.0888 2.91122C29.6722 3.49467 30 4.28599 30 5.11111V26.8889Z" fill="url(#paint0_linear_42_97)"/>
<path d="M21.1455 8.71779C21.1455 9.77739 20.4391 10.7283 19.326 10.7283C18.2121 10.7283 17.3418 9.91323 15.7108 9.91323C14.5425 9.91323 13.4829 10.5381 13.4829 11.6801C13.4829 14.4785 22.56 12.6854 22.56 19.6959C22.56 23.5819 19.3532 26 15.603 26C13.5101 26 9 25.511 9 22.9562C9 21.8966 9.7064 21.0272 10.8203 21.0272C12.0973 21.0272 13.6188 22.0868 15.3856 22.0868C17.1788 22.0868 18.1578 21.0815 18.1578 19.7493C18.1578 16.5434 9.08151 18.4724 9.08151 12.1683C9.08151 8.36372 12.206 6 15.8203 6C17.3418 6.00088 21.1455 6.57143 21.1455 8.71779Z" fill="url(#paint1_linear_42_97)"/>
<defs>
<linearGradient id="paint0_linear_42_97" x1="16" y1="30" x2="16" y2="2" gradientUnits="userSpaceOnUse">
<stop stop-color="#FD5900"/>
<stop offset="1" stop-color="#FFDE00"/>
</linearGradient>
<linearGradient id="paint1_linear_42_97" x1="15.78" y1="26" x2="15.78" y2="6" gradientUnits="userSpaceOnUse">
<stop stop-color="#FD4C00"/>
<stop offset="1" stop-color="#FFB800"/>
</linearGradient>
</defs>
</svg>
