<svg width="24" height="24" viewBox="0 0 24 24" fill="none" xmlns="http://www.w3.org/2000/svg">
<path opacity="0.5" d="M12 23C18.0751 23 23 18.0751 23 12C23 5.92487 18.0751 1 12 1C5.92487 1 1 5.92487 1 12C1 18.0751 5.92487 23 12 23Z" fill="url(#paint0_radial_107_135)"/>
<path d="M18.0027 11.069L18.7351 10.4213C18.6479 10.3228 18.5416 10.2431 18.4228 10.1867C18.304 10.1303 18.175 10.0985 18.0436 10.0931C17.9122 10.0878 17.781 10.109 17.658 10.1555C17.535 10.202 17.4226 10.2729 17.3277 10.3639L18.0027 11.069ZM15.2126 12.3917C15.0341 12.573 14.9333 12.8167 14.9317 13.0711C14.93 13.3255 15.0276 13.5705 15.2037 13.7541C15.3798 13.9377 15.6206 14.0453 15.8748 14.0542C16.1291 14.0631 16.3768 13.9726 16.5653 13.8018L15.2126 12.3917ZM19.0674 13.7444C19.1509 13.8459 19.2539 13.9296 19.3704 13.9904C19.4869 14.0511 19.6145 14.0878 19.7455 14.0982C19.8765 14.1085 20.0082 14.0924 20.1328 14.0507C20.2574 14.009 20.3723 13.9425 20.4707 13.8554C20.569 13.7683 20.6488 13.6622 20.7052 13.5435C20.7616 13.4249 20.7936 13.296 20.7991 13.1648C20.8046 13.0335 20.7836 12.9024 20.7373 12.7795C20.691 12.6565 20.6204 12.5441 20.5296 12.449L19.0674 13.7444ZM8.15963 15.6914C8.07252 15.5971 7.96769 15.5209 7.85112 15.4671C7.73455 15.4133 7.60854 15.383 7.48026 15.378C7.35199 15.3729 7.22397 15.3931 7.10351 15.4375C6.98306 15.4819 6.87252 15.5496 6.77823 15.6367C6.68393 15.7238 6.60771 15.8286 6.55393 15.9452C6.50014 16.0618 6.46984 16.1878 6.46476 16.3161C6.45968 16.4443 6.47991 16.5724 6.5243 16.6928C6.5687 16.8133 6.63638 16.9238 6.72349 17.0181L8.15832 15.6914H8.15963ZM11.9207 19.287C15.812 19.287 18.9788 16.1554 18.9788 12.2757H17.024C17.024 15.0607 14.7473 17.3322 11.9207 17.3322V19.287ZM18.9788 12.2757V11.069H17.024V12.2757H18.9788ZM17.3251 10.3639L15.2113 12.3917L16.564 13.8018L18.6778 11.7753L17.3251 10.3639ZM17.2703 11.7179L19.0674 13.7444L20.5296 12.449L18.7351 10.4213L17.2703 11.7179ZM6.72349 17.0181C7.3863 17.7352 8.1893 18.307 9.08429 18.6975C9.97927 19.088 10.9455 19.2888 11.922 19.287V17.3322C11.2149 17.3339 10.5152 17.1889 9.8672 16.9062C9.21913 16.6236 8.63679 16.2095 8.15702 15.6901L6.72349 17.0194V17.0181ZM5.95981 12.5181L5.23002 13.1671C5.31737 13.2654 5.42366 13.3451 5.54253 13.4014C5.66141 13.4577 5.79041 13.4894 5.92183 13.4946C6.05324 13.4998 6.18436 13.4785 6.30733 13.4318C6.4303 13.3852 6.54259 13.3142 6.63748 13.2232L5.95981 12.5181ZM8.74737 11.1967C8.93436 11.0169 9.04229 10.7703 9.04742 10.511C9.05256 10.2517 8.95447 10.0009 8.77474 9.81392C8.59501 9.62693 8.34836 9.519 8.08906 9.51387C7.82975 9.50874 7.57902 9.60683 7.39204 9.78655L8.74737 11.1967ZM4.88988 9.84129C4.71551 9.6556 4.47555 9.54532 4.22108 9.53392C3.96661 9.52253 3.71775 9.61093 3.52749 9.7803C3.33722 9.94966 3.2206 10.1867 3.20244 10.4407C3.18429 10.6948 3.26604 10.9459 3.43029 11.1406L4.88988 9.84259V9.84129ZM15.8277 7.87736C16.006 8.06201 16.2499 8.16908 16.5065 8.17542C16.7632 8.18176 17.012 8.08687 17.1993 7.91124C17.3866 7.73562 17.4972 7.49337 17.5073 7.23684C17.5174 6.98031 17.4262 6.73009 17.2534 6.54027L15.8277 7.87736ZM12.064 4.30005C8.16354 4.30005 4.98241 7.42775 4.98241 11.3113H6.93722C6.93722 8.52896 9.22174 6.25486 12.064 6.25486V4.30005ZM6.63748 13.2232L8.74737 11.1967L7.39204 9.78655L5.28345 11.8131L6.63748 13.2232ZM6.68961 11.8678L4.89118 9.84259L3.42898 11.1406L5.23002 13.1671L6.68961 11.8678ZM17.2547 6.54157C16.5892 5.83267 15.7852 5.26804 14.8926 4.88268C13.9999 4.49733 13.0376 4.29946 12.0653 4.30136V6.25617C13.5549 6.25617 14.8933 6.88171 15.829 7.87866L17.2534 6.54027L17.2547 6.54157Z" fill="url(#paint1_radial_107_135)"/>
<defs>
<radialGradient id="paint0_radial_107_135" cx="0" cy="0" r="1" gradientUnits="userSpaceOnUse" gradientTransform="translate(0.999999 -14) rotate(65.7907) scale(70.7195 47.9388)">
<stop stop-color="#FFF44F"/>
<stop offset="0.06" stop-color="#FFE847"/>
<stop offset="0.168" stop-color="#FFC830"/>
<stop offset="0.304" stop-color="#FF980E"/>
<stop offset="0.356" stop-color="#FF8B16"/>
<stop offset="0.455" stop-color="#FF672A"/>
<stop offset="0.57" stop-color="#FF3647"/>
<stop offset="0.737" stop-color="#E31587"/>
</radialGradient>
<radialGradient id="paint1_radial_107_135" cx="0" cy="0" r="1" gradientUnits="userSpaceOnUse" gradientTransform="translate(11 -8) rotate(82.3332) scale(26.2345 20.7917)">
<stop stop-color="#FFF44F"/>
<stop offset="0.06" stop-color="#FFE847"/>
<stop offset="0.168" stop-color="#FFC830"/>
<stop offset="0.304" stop-color="#FF980E"/>
<stop offset="0.356" stop-color="#FF8B16"/>
<stop offset="0.455" stop-color="#FF672A"/>
<stop offset="0.648348" stop-color="#FF3647"/>
<stop offset="0.85988" stop-color="#E31587"/>
</radialGradient>
</defs>
</svg>
