<svg width="128" height="128" viewBox="0 0 128 128" fill="none" xmlns="http://www.w3.org/2000/svg">
<path opacity="0.4" d="M26.8434 29.6558L99.3421 35.0932L100.701 72.7019L88.4673 110.311L13.7031 86.2954L10.0781 56.3897L26.8434 29.6558Z" fill="url(#paint0_linear_54_1128)"/>
<path d="M120.693 55.48C119.553 49.6438 117.374 44.0597 114.259 38.9938C113.389 37.4279 112.244 35.9489 111.268 34.5521C104.743 25.4028 99.5812 22.3239 98.5853 21.7778C97.7017 21.1424 96.7955 20.5379 95.8693 19.9654C87.445 14.7116 82.0076 13.9866 82.0076 13.9866C78.6319 12.5893 75.106 11.587 71.5001 10.9997C65.4296 10.2747 60.3547 10.3665 55.9178 10.9997C56.6427 9.72855 57.2758 9.27906 57.4547 9.18722C57.5707 9.18722 57.5368 9.18722 57.4547 9.18722C55.2798 9.36606 52.6553 10.816 50.3015 12.266C51.9303 9.09539 55.3764 7.28776 55.8259 7.01226H55.9178C53.1966 6.83344 45.4973 8.55407 38.8854 15.891C18.32 24.4989 6 43.3485 6 63.9044C6 79.4868 12.0706 90.7191 18.6825 98.1475C24.9318 104.943 31.8192 108.568 35.0816 109.564C35.4199 109.699 36.1691 109.743 36.1691 109.743C36.2561 109.472 31.998 102.677 30.0985 94.523C33.9023 98.4185 38.4311 101.41 43.506 101.952C44.0473 102.048 41.6935 99.148 39.1561 95.3398L42.5973 96.519L80.3788 109.109C76.662 112.914 71.679 116.63 64.8834 119.888C64.8834 119.888 80.1081 118.621 87.6238 110.197C84.545 117.264 76.1207 121.072 76.1207 121.072C82.2783 120.164 98.5853 115.359 108.915 102.406C120.693 87.7322 124.226 73.9624 120.693 55.4752V55.48ZM90.6156 89.8154C89.4362 95.5186 86.9907 101.865 81.4663 107.935L14.695 85.7361C12.7955 79.6704 11.8917 72.6042 12.433 64.3587C13.6075 66.5336 17.1406 68.3461 19.3156 68.4331C14.2407 57.1088 16.2368 49.3176 20.0405 44.1557C21.7051 46.5989 23.3661 49.0446 25.0236 51.4926V50.9513C25.1154 50.2263 25.2073 49.6801 25.3861 49.1388C23.6655 46.6014 22.2155 44.4264 21.1329 42.8895C23.0023 40.7899 25.2052 39.0132 27.6529 37.6309C27.7399 38.6313 27.9236 39.5351 28.1943 40.6226C28.5568 42.1645 28.6486 44.4264 28.4649 46.2389V46.1519C28.4649 46.5144 28.3779 46.8769 28.2861 47.2394C28.1943 47.6019 27.1986 48.5974 26.9279 51.2268C26.6524 54.0348 27.6529 55.5767 28.6486 56.7512C29.823 55.6637 31.998 52.9474 35.9854 51.4056C39.9729 49.7768 42.5973 47.423 47.6722 44.8855C50.664 43.3437 53.8346 43.5274 57.822 43.7062C64.9752 44.9774 74.4 47.5149 83.1868 47.9644C85.1782 52.6768 85.9902 59.4674 85.9902 59.6511C85.9902 60.2842 86.0868 60.8304 86.0868 61.3717C70.4996 67.2635 52.2058 73.9672 44.5016 75.9584C43.8685 76.1421 37.1647 66.4466 30.9105 57.2055C30.8235 57.3892 30.6398 57.4762 30.548 57.568C30.3692 57.7517 30.1855 57.9305 30.0985 58.1142H29.5524C36.2561 67.9885 43.4141 78.2204 44.1391 78.2204C50.9346 75.7796 71.2246 68.8005 85.995 63.7304C85.8983 74.871 83.1868 79.0373 83.1868 79.0373C83.1868 79.0373 86.8988 77.5873 90.7026 73.7835C90.7026 76.8623 89.8906 84.8372 83.4527 92.5365C83.4527 92.5365 86.807 91.6326 90.6107 89.8202L90.6156 89.8154Z" fill="url(#paint1_linear_54_1128)"/>
<defs>
<linearGradient id="paint0_linear_54_1128" x1="55.5206" y1="93.9982" x2="61.6548" y2="35.3044" gradientUnits="userSpaceOnUse">
<stop stop-color="#B400CF"/>
<stop offset="1" stop-color="#339DFF"/>
</linearGradient>
<linearGradient id="paint1_linear_54_1128" x1="64.1675" y1="98.0007" x2="73.7307" y2="15.1865" gradientUnits="userSpaceOnUse">
<stop stop-color="#B400CF"/>
<stop offset="1" stop-color="#339DFF"/>
</linearGradient>
</defs>
</svg>
