<svg width="128" height="128" viewBox="0 0 128 128" fill="none" xmlns="http://www.w3.org/2000/svg">
<path opacity="0.4" fill-rule="evenodd" clip-rule="evenodd" d="M109.819 32.4418H75.7873C74.0865 32.4418 73.2348 30.371 74.4374 29.1599L86.1456 17.3691C87.1318 16.376 87.1374 14.7677 86.1583 13.7676C85.1693 12.7574 83.5526 12.7516 82.5565 13.7547L65.3501 31.0824C64.6045 31.8332 63.3958 31.8332 62.6503 31.0824L45.4423 13.7533C44.445 12.7489 42.8279 12.7489 41.8305 13.7533C40.8322 14.7587 40.8333 16.3894 41.8333 17.3933L53.5509 29.1578C54.7564 30.3681 53.9053 32.4418 52.2031 32.4418H18.1819C15.4815 32.4418 12.8917 33.5221 10.9822 35.4451C9.07272 37.368 8 39.976 8 42.6954V104.217C8 109.856 12.5818 114.47 18.1819 114.47H109.819C115.191 114.47 119.627 110.222 119.978 104.897H120V104.217V93.9633V68.3293V49.3761V42.6954C120 39.976 118.928 37.368 117.018 35.4451C115.109 33.5221 112.519 32.4418 109.819 32.4418Z" fill="url(#paint0_linear_54_1136)"/>
<path fill-rule="evenodd" clip-rule="evenodd" d="M38.6325 54.1624C40.7473 54.1624 42.4616 55.8767 42.4616 57.9915V92.453C42.4616 94.5677 40.7473 96.2821 38.6325 96.2821C36.5178 96.2821 34.8035 94.5677 34.8035 92.453V57.9915C34.8035 55.8767 36.5178 54.1624 38.6325 54.1624ZM60.6496 57.7806V92.0258C60.6496 93.4957 62.2377 94.4174 63.514 93.6881L93.4785 76.5655C94.7647 75.8305 94.7647 73.9759 93.4785 73.2409L63.514 56.1183C62.2377 55.389 60.6496 56.3106 60.6496 57.7806Z" fill="url(#paint1_linear_54_1136)"/>
<defs>
<linearGradient id="paint0_linear_54_1136" x1="64" y1="114.47" x2="64" y2="13" gradientUnits="userSpaceOnUse">
<stop stop-color="#FD5900"/>
<stop offset="1" stop-color="#FFDE00"/>
</linearGradient>
<linearGradient id="paint1_linear_54_1136" x1="38.6325" y1="96.2821" x2="38.6325" y2="54.1624" gradientUnits="userSpaceOnUse">
<stop stop-color="#FD2E00"/>
<stop offset="1" stop-color="#FF9900"/>
</linearGradient>
</defs>
</svg>
