<svg width="24" height="24" viewBox="0 0 24 24" fill="none" xmlns="http://www.w3.org/2000/svg">
<path opacity="0.5" d="M4.24421 11.573C4.70621 9.264 4.93721 8.11 5.76621 7.43C6.59621 6.75 7.77321 6.75 10.1282 6.75H14.2902C16.6452 6.75 17.8222 6.75 18.6512 7.43C19.4812 8.11 19.7112 9.264 20.1742 11.573L20.7742 14.573C21.4382 17.893 21.7702 19.553 20.8702 20.652C19.9702 21.75 18.2762 21.75 14.8902 21.75H9.52921C6.14321 21.75 4.44921 21.75 3.54921 20.652C2.64921 19.554 2.98121 17.894 3.64521 14.573L4.24421 11.573Z" fill="url(#paint0_linear_54_1011)"/>
<path fill-rule="evenodd" clip-rule="evenodd" d="M10.0112 4.96093C9.48379 5.53961 9.18747 6.32448 9.18747 7.14286V7.97554C9.18747 8.27308 8.94626 8.51429 8.64872 8.51429V8.51429H8.64823C8.53703 8.51429 8.42729 8.51429 8.319 8.51432C7.76416 8.51451 7.31247 8.06531 7.31247 7.51048V7.14286C7.31247 5.77889 7.80633 4.47078 8.68541 3.50631C9.56448 2.54184 10.7568 2 12 2C13.2432 2 14.4355 2.54184 15.3145 3.50631C16.1936 4.47078 16.6875 5.77889 16.6875 7.14286V7.51048C16.6875 8.06531 16.2358 8.51451 15.6809 8.51432C15.5726 8.51429 15.4629 8.51429 15.3517 8.51429H15.3512V8.51429C15.0537 8.51429 14.8125 8.27308 14.8125 7.97554V7.14286C14.8125 6.32448 14.5162 5.53961 13.9887 4.96093C13.4613 4.38224 12.7459 4.05714 12 4.05714C11.254 4.05714 10.5387 4.38224 10.0112 4.96093ZM8.25 14C8.94036 14 9.5 13.386 9.5 12.6286C9.5 11.8712 8.94036 11.2571 8.25 11.2571C7.55964 11.2571 7 11.8712 7 12.6286C7 13.386 7.55964 14 8.25 14ZM15.75 14C16.4404 14 17 13.386 17 12.6286C17 11.8712 16.4404 11.2571 15.75 11.2571C15.0596 11.2571 14.5 11.8712 14.5 12.6286C14.5 13.386 15.0596 14 15.75 14Z" fill="url(#paint1_linear_54_1011)"/>
<defs>
<linearGradient id="paint0_linear_54_1011" x1="20.5849" y1="7.00781" x2="7.29255" y2="24.1673" gradientUnits="userSpaceOnUse">
<stop stop-color="#D800BD"/>
<stop offset="0.408098" stop-color="#F92D7A"/>
<stop offset="0.590073" stop-color="#FF4A52"/>
<stop offset="1" stop-color="#FFB243"/>
</linearGradient>
<linearGradient id="paint1_linear_54_1011" x1="16.5469" y1="2.20625" x2="5.65988" y2="11.744" gradientUnits="userSpaceOnUse">
<stop stop-color="#D800BD"/>
<stop offset="0.408098" stop-color="#F92D7A"/>
<stop offset="0.590073" stop-color="#FF4A52"/>
<stop offset="1" stop-color="#FFB243"/>
</linearGradient>
</defs>
</svg>
