<svg width="192" height="192" viewBox="0 0 192 192" fill="none" xmlns="http://www.w3.org/2000/svg">
<path opacity="0.4" fill-rule="evenodd" clip-rule="evenodd" d="M108 20.5H90L45.5 138H33C23.0589 138 15 146.059 15 156C15 165.941 23.0589 174 33 174H147C156.941 174 165 165.941 165 156C165 146.059 156.941 138 147 138H153L108 20.5Z" fill="url(#paint0_linear_36_260)"/>
<path d="M124.475 107.196C125.013 108.695 125.553 110.203 126.112 111.724C117.109 111.737 108.099 111.734 99.0877 111.73H99.0753C86.4026 111.725 73.7273 111.721 61.0671 111.76C57.2894 111.584 54.2755 114.356 53.3199 117.552C52.1649 120.696 50.9808 123.848 49.7939 127.009L49.7929 127.012C47.7505 132.45 45.6996 137.911 43.7733 143.386L43.7691 143.398L43.765 143.41C42.9482 145.831 43.7494 148.245 45.1773 149.89C46.5698 151.494 48.7648 152.609 51.1666 152.31C68.5078 152.289 85.8156 152.311 103.126 152.333H103.147C119.408 152.354 135.671 152.374 151.967 152.36C152.565 152.374 153.179 152.368 153.756 152.362L153.767 152.362C153.911 152.361 154.053 152.359 154.192 152.358C154.92 152.352 155.595 152.356 156.244 152.4C157.54 152.489 158.594 152.736 159.485 153.289L159.539 153.323L159.596 153.353C161.192 154.208 162.151 156.048 162.185 158.155C162.219 160.266 161.314 162.174 159.772 163.11L159.729 163.137L159.687 163.165C158.268 164.128 156.388 164.27 154.033 164.27C135.053 164.246 116.1 164.254 97.1501 164.263H97.1476C76.8486 164.272 56.5531 164.281 36.233 164.25L36.2139 164.25L36.1947 164.25C33.2058 164.303 30.5077 161.835 30.4799 159.01L30.4779 158.808L30.4354 158.61C30.2207 157.61 30.6142 156.678 31.3545 154.925L31.3975 154.823C32.0532 153.269 32.9946 150.959 31.9061 148.389C30.9946 145.577 28.5262 143.898 26.0231 143.429C23.4829 142.953 20.5261 143.654 18.6747 146.061L18.6115 146.143L18.5572 146.231C13.3029 154.76 14.0413 167.162 21.8165 174.274C26.7874 179.124 33.8078 180.321 39.953 180.24C54.0931 180.24 68.2288 180.227 82.3631 180.214C103.568 180.195 124.769 180.176 145.978 180.2L145.998 180.2L146.018 180.2C147.083 180.18 148.228 180.184 149.402 180.188C151.227 180.194 153.125 180.201 154.911 180.118C157.957 179.975 161.101 179.57 164.167 178.411L164.178 178.407C172.376 175.252 177.876 166.654 177.478 157.931C177.159 150.802 174.056 142.984 167.544 138.775C165.449 137.392 163.165 136.926 161.03 136.769C159.719 136.673 158.266 136.693 156.949 136.711C156.251 136.72 155.591 136.729 155.011 136.72L154.996 136.72L154.982 136.72C141.912 136.708 128.847 136.719 115.784 136.73C98.1105 136.746 80.4407 136.761 62.7671 136.718C62.8728 136.457 62.9788 136.196 63.0849 135.935L63.1884 135.68C64.2767 133.002 65.3803 130.286 66.386 127.547C75.4698 127.528 84.5647 127.544 93.664 127.56C108.396 127.585 123.14 127.611 137.866 127.49L137.885 127.49L137.904 127.489C140.59 127.417 142.758 125.778 143.966 123.767C145.157 121.783 145.59 119.147 144.486 116.766C144.027 115.518 143.565 114.271 143.103 113.024C140.844 106.933 138.552 100.845 136.262 94.7627C134.879 91.0893 133.497 87.4178 132.123 83.7486L131.64 82.4574L130.261 82.45C120.47 82.397 110.672 82.3787 100.877 82.3603C94.9808 82.3493 89.0858 82.3382 83.1937 82.3196C83.7371 80.8234 84.2556 79.3452 84.77 77.8787C85.8591 74.7735 86.9298 71.721 88.1784 68.6621C92.56 68.4878 96.9596 68.5002 101.403 68.5299C101.832 68.5327 102.261 68.5358 102.69 68.5388C107.125 68.57 111.605 68.6015 116.084 68.4588L116.105 68.4582L116.127 68.457C118.84 68.3119 120.897 66.5961 121.995 64.5488C123.074 62.5368 123.373 59.9487 122.348 57.6633C120.65 53.1441 118.961 48.6149 117.271 44.0825C113.63 34.3198 109.985 24.5425 106.221 14.8198C104.874 10.8606 100.358 8.73379 96.4402 10.1815C94.5904 10.7919 93.4405 12.1096 92.6759 13.392C92.0931 14.3695 91.6415 15.5031 91.2847 16.3985C91.1949 16.6241 91.111 16.8347 91.0326 17.0238L91.0155 17.065L91.0002 17.1069C89.9772 19.9221 88.8924 22.7644 87.8009 25.6241L87.8005 25.6252C86.0609 30.1832 84.3043 34.7856 82.7544 39.3922L82.7324 39.4575L82.715 39.5242C81.7293 43.2953 83.9333 46.4042 86.6318 47.8473C89.314 49.2816 93.119 49.4109 95.7141 46.6222L95.788 46.5428L95.8529 46.4558C97.2505 44.5829 98.1376 42.4925 98.8532 40.503C98.944 40.2505 99.0311 40.003 99.1153 39.7598C100.816 44.1323 102.469 48.5259 104.129 52.9347L104.129 52.936L104.188 53.0907C101.125 53.1019 98.0581 53.081 94.9799 53.06L94.9694 53.0599C90.959 53.0325 86.9284 53.005 82.8978 53.0494C79.3687 52.9253 76.4591 55.4559 75.4802 58.4733C74.3592 61.4646 73.2311 64.4574 72.1022 67.4526L72.1009 67.4559L72.1005 67.4572C69.6008 74.089 67.097 80.7317 64.6566 87.3922C63.6241 89.9021 64.2182 92.5969 65.5871 94.5503C66.9556 96.5029 69.2887 97.9805 72.0375 97.789C77.7294 97.7141 83.34 97.8305 88.9891 97.9477L88.9904 97.9477C92.9601 98.03 96.9492 98.1127 100.999 98.1298C103.779 98.2325 106.6 98.0908 109.317 97.9543C110.195 97.9102 111.062 97.8666 111.912 97.8321C115.097 97.7026 118.149 97.6906 121.125 98.1485C122.311 101.162 123.387 104.161 124.474 107.193L124.475 107.196Z" fill="url(#paint1_linear_36_260)"/>
<defs>
<linearGradient id="paint0_linear_36_260" x1="89.9992" y1="172.2" x2="89.9992" y2="22.3005" gradientUnits="userSpaceOnUse">
<stop stop-color="#FD5900"/>
<stop offset="1" stop-color="#FFF500"/>
</linearGradient>
<linearGradient id="paint1_linear_36_260" x1="96.3409" y1="178.244" x2="96.3409" y2="11.7262" gradientUnits="userSpaceOnUse">
<stop stop-color="#FD5900"/>
<stop offset="1" stop-color="#FFF500"/>
</linearGradient>
</defs>
</svg>
