<svg width="64" height="64" viewBox="0 0 64 64" fill="none" xmlns="http://www.w3.org/2000/svg">
<path opacity="0.8" d="M31.9999 25.4833C24.9911 25.4833 18.4371 28.3608 13.7229 33.5858C13.1381 34.2338 13.1637 35.2263 13.7808 35.8434L18.4086 40.4713C19.0808 41.1437 20.1793 41.103 20.8018 40.3915C23.622 37.1688 27.7035 35.3205 31.9999 35.3205C36.2963 35.3205 40.3778 37.1688 43.198 40.3915C43.8216 41.1043 44.9199 41.1426 45.5913 40.4713L50.2189 35.8434C50.8361 35.2263 50.8617 34.2338 50.2769 33.5858C45.5629 28.3612 39.0092 25.4833 31.9999 25.4833Z" fill="url(#paint0_linear_36_118)"/>
<path d="M22.9598 42.9809C25.1459 40.1965 28.4408 38.5995 31.9999 38.5995C35.559 38.5995 38.8539 40.1965 41.0398 42.9809C41.5522 43.6336 41.4962 44.566 40.9096 45.1527L33.1592 52.9031C32.5193 53.5431 31.4806 53.5434 30.8405 52.9031L23.0901 45.1527C22.5035 44.566 22.4475 43.6336 22.9598 42.9809Z" fill="url(#paint1_linear_36_118)"/>
<path opacity="0.4" d="M59.3602 22.7171C59.4158 22.7598 59.4698 22.8052 59.5207 22.8561C60.135 23.4703 60.1582 24.4497 59.5937 25.0937C59.5841 25.105 59.5736 25.116 59.5635 25.1271C59.549 25.1429 59.5359 25.1594 59.5206 25.1746L54.8446 29.8507C54.1847 30.5107 53.1078 30.4871 52.4771 29.7996C47.1753 24.0202 39.9029 20.8372 31.9998 20.8372C24.0967 20.8372 16.8244 24.0202 11.5226 29.7996C10.8955 30.4831 9.81889 30.5144 9.1551 29.8507L4.47914 25.1746C3.84989 24.5454 3.83076 23.5045 4.47914 22.8561C8.10984 19.2254 11.6471 16.3835 16.9861 14.0789C21.7195 12.036 26.7708 11 31.9998 11C42.2241 11 52.0641 15.032 59.3602 22.7171Z" fill="url(#paint2_linear_36_118)"/>
<defs>
<linearGradient id="paint0_linear_36_118" x1="20.0791" y1="39.1253" x2="30.9774" y2="16.1345" gradientUnits="userSpaceOnUse">
<stop stop-color="#FE0844"/>
<stop offset="1" stop-color="#FEB302"/>
</linearGradient>
<linearGradient id="paint1_linear_36_118" x1="26.0138" y1="51.6379" x2="39.3984" y2="36.8028" gradientUnits="userSpaceOnUse">
<stop stop-color="#FE0844"/>
<stop offset="1" stop-color="#FEB302"/>
</linearGradient>
<linearGradient id="paint2_linear_36_118" x1="14.15" y1="28.0487" x2="26.1874" y2="-2.37724" gradientUnits="userSpaceOnUse">
<stop stop-color="#FE0844"/>
<stop offset="1" stop-color="#FEB302"/>
</linearGradient>
</defs>
</svg>
