<svg width="24" height="24" viewBox="0 0 24 24" fill="none" xmlns="http://www.w3.org/2000/svg">
<path opacity="0.4" d="M18.1094 7.27579C20.8055 7.27579 23 9.54156 23 12.3264L23 17.8619C23 20.6399 20.811 22.9 18.1204 22.9L5.8928 22.9C3.1956 22.9 1 20.6353 1 17.8505L1 12.315C1 9.53702 3.1901 7.27579 5.8818 7.27579L6.9158 7.27579L18.1094 7.27579Z" fill="url(#paint0_linear_11_162)"/>
<path d="M12.9497 18.5374L18.4233 12.5821C18.9877 11.9666 18.9877 10.976 18.4195 10.3626C17.8513 9.75116 16.9349 9.75319 16.3705 10.3667L14.0676 12.872C13.8209 13.1404 13.3731 12.9659 13.3731 12.6013L13.3731 2.56933C13.3731 1.70314 12.7239 1 11.9224 1C11.1227 1 10.4754 1.70314 10.4754 2.56933L10.4754 12.6018C10.4754 12.9663 10.0278 13.1409 9.78103 12.8726L7.47618 10.3667C6.9117 9.75319 5.99537 9.75116 5.42713 10.3626C5.14301 10.6703 5.00001 11.0718 5.00001 11.4754C5.00001 11.8748 5.14301 12.2763 5.42337 12.5821L10.8969 18.5374C11.1697 18.8329 11.5385 19 11.9224 19C12.3081 19 12.6769 18.8329 12.9497 18.5374Z" fill="url(#paint1_linear_11_162)"/>
<defs>
<linearGradient id="paint0_linear_11_162" x1="1" y1="15.0879" x2="23" y2="15.0879" gradientUnits="userSpaceOnUse">
<stop stop-color="#02AA93"/>
<stop offset="1" stop-color="#67FF80"/>
</linearGradient>
<linearGradient id="paint1_linear_11_162" x1="5.00001" y1="10" x2="18.8462" y2="10" gradientUnits="userSpaceOnUse">
<stop stop-color="#02AA93"/>
<stop offset="1" stop-color="#67FF80"/>
</linearGradient>
</defs>
</svg>
