<svg width="128" height="128" viewBox="0 0 128 128" fill="none" xmlns="http://www.w3.org/2000/svg">
<path opacity="0.4" d="M11 38C11 22.536 23.536 10 39 10H89C104.464 10 117 22.536 117 38V90C117 105.464 104.464 118 89 118H39C23.536 118 11 105.464 11 90V38Z" fill="url(#paint0_linear_68_219)"/>
<path opacity="0.5" d="M32.3436 36C31.5821 36.0959 31.0083 36.7393 31 37.5068V64.9644C31 65.7705 31.691 66.4807 32.4972 66.4807H46.2212V71.5577H36.0769V76.6346H53.8433V61.3942H37.1998C36.6378 61.3698 36.1877 60.9198 36.1633 60.3577V42.123C36.1441 41.6432 36.4896 41.1729 36.9503 41.0865C37.0299 41.0767 37.1105 41.0767 37.1902 41.0865H65.4444C65.9626 41.0865 66.4713 41.5664 66.4713 42.1134V48.6974H71.625V37.5071C71.5953 36.6875 70.9378 36.0299 70.1182 36.0003" fill="url(#paint1_linear_68_219)"/>
<path d="M57.7475 51.2406C57.3779 51.29 57.0377 51.4682 56.7866 51.7438C56.5356 52.0194 56.3898 52.3748 56.3751 52.7473V80.1953C56.3751 80.9919 57.1044 81.7117 57.9106 81.7117H71.6058V89.3127H81.7693V81.7117H95.4837C95.8813 81.6974 96.2587 81.533 96.5401 81.2517C96.8214 80.9704 96.9857 80.5929 97 80.1953V52.7473C96.9835 52.3504 96.8185 51.9743 96.5376 51.6934C96.2567 51.4125 95.8805 51.2475 95.4837 51.231M62.3445 56.3175C62.4081 56.3074 62.4729 56.3074 62.5365 56.3175H90.8386C91.1054 56.327 91.3586 56.4373 91.5474 56.626C91.7362 56.8148 91.8464 57.068 91.8559 57.3348V75.6175C91.8464 75.8842 91.7362 76.1375 91.5474 76.3262C91.3586 76.515 91.1054 76.6252 90.8386 76.6348H62.5269C62.2601 76.6252 62.0068 76.515 61.8181 76.3262C61.6293 76.1375 61.5191 75.8842 61.5096 75.6175V57.3348C61.5108 57.0941 61.5943 56.861 61.7461 56.6742C61.898 56.4875 62.1091 56.3678 62.3445 56.3175ZM61.452 86.779V91.8655H91.9231V86.779" fill="url(#paint2_linear_68_219)"/>
<defs>
<linearGradient id="paint0_linear_68_219" x1="64" y1="118" x2="64" y2="10" gradientUnits="userSpaceOnUse">
<stop stop-color="#5570FF"/>
<stop offset="1" stop-color="#4DD3FF"/>
</linearGradient>
<linearGradient id="paint1_linear_68_219" x1="51.3125" y1="76.6346" x2="51.3125" y2="36" gradientUnits="userSpaceOnUse">
<stop stop-color="#5570FF"/>
<stop offset="1" stop-color="#4DD3FF"/>
</linearGradient>
<linearGradient id="paint2_linear_68_219" x1="76.6875" y1="91.8655" x2="76.6875" y2="51.231" gradientUnits="userSpaceOnUse">
<stop stop-color="#5570FF"/>
<stop offset="1" stop-color="#4DD3FF"/>
</linearGradient>
</defs>
</svg>
