<svg width="64" height="64" viewBox="0 0 64 64" fill="none" xmlns="http://www.w3.org/2000/svg">
<path opacity="0.4" fill-rule="evenodd" clip-rule="evenodd" d="M32.5217 3C32.7008 2.94099 32.8922 2.90906 33.0911 2.90906H41.3536C41.884 2.90906 42.3927 3.11977 42.7678 3.49484L56.1417 16.8687C56.5167 17.2438 56.7275 17.7525 56.7275 18.2829V59.0909C56.7275 60.1954 55.832 61.0909 54.7275 61.0909H7.81836C7.04116 61.0909 6.3675 60.6475 6.03646 60H6V59.9248C5.88338 59.671 5.81836 59.3885 5.81836 59.0909V44.7272C5.81836 44.4429 5.88363 44.1738 6 43.9341V7C6 4.79086 7.79086 3 10 3H32.5217Z" fill="url(#paint0_linear_54_524)"/>
<path fill-rule="evenodd" clip-rule="evenodd" d="M11 3C9.89543 3 9 3.89543 9 5V35.6266C9 37.224 10.7803 38.1767 12.1094 37.2907L18.7996 32.8305C19.4714 32.3826 20.3467 32.3826 21.0185 32.8305L27.7087 37.2907C29.0378 38.1767 30.8181 37.224 30.8181 35.6266V5C30.8181 3.89543 29.9227 3 28.8181 3H11ZM19.9091 13.9091H25.2946C26.097 13.9091 26.5701 14.8051 26.1033 15.4578C22.9402 19.8807 19.2351 24.0127 14.7569 27.1051C14.0125 27.6191 13.0825 26.9082 13.3334 26.0391C14.4686 22.1064 15.7135 18.1267 18.2184 14.8635C18.6619 14.3919 19.2249 13.9167 19.9091 13.9091Z" fill="url(#paint1_linear_54_524)"/>
<defs>
<linearGradient id="paint0_linear_54_524" x1="31.2729" y1="2.90906" x2="31.2729" y2="61.0909" gradientUnits="userSpaceOnUse">
<stop stop-color="#F75050"/>
<stop offset="1" stop-color="#A00909"/>
</linearGradient>
<linearGradient id="paint1_linear_54_524" x1="34.4545" y1="3" x2="34.4545" y2="61.1818" gradientUnits="userSpaceOnUse">
<stop stop-color="#F75050"/>
<stop offset="1" stop-color="#A00909"/>
</linearGradient>
</defs>
</svg>
