<svg width="16" height="16" viewBox="0 0 16 16" fill="none" xmlns="http://www.w3.org/2000/svg">
<path d="M8.5 1C8.22386 1 8 1.22386 8 1.5V14.5C8 14.7761 8.22386 15 8.5 15H14.5C14.7761 15 15 14.7761 15 14.5V1.5C15 1.22386 14.7761 1 14.5 1H8.5ZM9.16667 5C9.16667 4.72386 9.39052 4.5 9.66667 4.5H13.3333C13.6095 4.5 13.8333 4.72386 13.8333 5V13.3333C13.8333 13.6095 13.6095 13.8333 13.3333 13.8333H9.66667C9.39052 13.8333 9.16667 13.6095 9.16667 13.3333V5Z" fill="url(#paint0_linear_23_125)"/>
<path opacity="0.4" fill-rule="evenodd" clip-rule="evenodd" d="M1.5 1C1.22386 1 1 1.22386 1 1.5V14.5C1 14.7761 1.22386 15 1.5 15H6.33333C6.60948 15 6.83333 14.7761 6.83333 14.5V1.5C6.83333 1.22386 6.60948 1 6.33333 1H1.5ZM2.16669 5C2.16669 4.72386 2.39054 4.5 2.66669 4.5H5.16669C5.44283 4.5 5.66669 4.72386 5.66669 5V13.3333C5.66669 13.6095 5.44283 13.8333 5.16669 13.8333H2.66669C2.39054 13.8333 2.16669 13.6095 2.16669 13.3333V5Z" fill="url(#paint1_linear_23_125)"/>
<defs>
<linearGradient id="paint0_linear_23_125" x1="7.39122" y1="14.624" x2="8.97294" y2="1.97355" gradientUnits="userSpaceOnUse">
<stop stop-color="#8D01A2"/>
<stop offset="1" stop-color="#FF33DB"/>
</linearGradient>
<linearGradient id="paint1_linear_23_125" x1="7.39122" y1="14.624" x2="8.97294" y2="1.97355" gradientUnits="userSpaceOnUse">
<stop stop-color="#8D01A2"/>
<stop offset="1" stop-color="#FF33DB"/>
</linearGradient>
</defs>
</svg>
