<svg width="64" height="64" viewBox="0 0 64 64" fill="none" xmlns="http://www.w3.org/2000/svg">
<path opacity="0.4" d="M57 22.3925V48.25C56.996 51.8955 55.5461 55.3906 52.9683 57.9683C50.3905 60.5461 46.8955 61.996 43.25 62H20.75C17.1045 61.996 13.6094 60.5461 11.0317 57.9683C8.4539 55.3906 7.00397 51.8955 7 48.25V15.75C7.00397 12.1045 8.4539 8.60948 11.0317 6.03171C13.6094 3.45395 17.1045 2.00402 20.75 2.00005H36.6075C38.4139 1.99517 40.2033 2.34863 41.8721 3.03995C43.541 3.73127 45.0562 4.74673 46.33 6.02755L52.9725 12.67C54.2533 13.9438 55.2687 15.459 55.9601 17.1279C56.6514 18.7967 57.0048 20.5862 57 22.3925ZM49.5 48.25V24.5H39.5C38.1739 24.5 36.9021 23.9732 35.9644 23.0356C35.0268 22.0979 34.5 20.8261 34.5 19.5V9.50004H20.75C19.0924 9.50004 17.5027 10.1585 16.3306 11.3306C15.1585 12.5027 14.5 14.0924 14.5 15.75V48.25C14.5 49.9076 15.1585 51.4973 16.3306 52.6694C17.5027 53.8415 19.0924 54.5 20.75 54.5H43.25C44.9076 54.5 46.4973 53.8415 47.6694 52.6694C48.8415 51.4973 49.5 49.9076 49.5 48.25Z" fill="url(#paint0_linear_36_161)"/>
<path d="M41.7159 41.607C41.5115 41.277 41.2211 40.947 40.8446 40.738C40.5434 40.584 40.3497 40.331 40.1776 40.034C39.629 39.088 39.9517 37.845 40.8661 37.284C41.9418 36.657 42.2861 35.26 41.6621 34.171L40.9414 32.873C40.3282 31.784 38.9835 31.399 37.9185 32.037C36.9719 32.565 35.7563 32.213 35.2077 31.278C35.0356 30.97 34.9387 30.64 34.9603 30.31C34.9925 29.881 34.8634 29.474 34.6698 29.144C34.2718 28.462 33.551 28 32.755 28H31.2382C30.4529 28.022 29.7321 28.462 29.3341 29.144C29.1297 29.474 29.0114 29.881 29.0329 30.31C29.0544 30.64 28.9576 30.97 28.7855 31.278C28.2368 32.213 27.0213 32.565 26.0854 32.037C25.0096 31.399 23.6757 31.784 23.0518 32.873L22.331 34.171C21.7178 35.26 22.0621 36.657 23.1271 37.284C24.0414 37.845 24.3642 39.088 23.8263 40.034C23.6434 40.331 23.4498 40.584 23.1486 40.738C22.7828 40.947 22.4601 41.277 22.288 41.607C21.89 42.289 21.9115 43.147 22.3095 43.862L23.0518 45.182C23.4498 45.886 24.192 46.326 24.9666 46.326C25.3323 46.326 25.7626 46.216 26.1069 45.996C26.3758 45.809 26.6985 45.743 27.0535 45.743C28.1185 45.743 29.0114 46.656 29.0329 47.745C29.0329 49.01 30.0226 50 31.2704 50H32.7335C33.9706 50 34.9603 49.01 34.9603 47.745C34.9925 46.656 35.8854 45.743 36.9504 45.743C37.2946 45.743 37.6173 45.809 37.897 45.996C38.2413 46.216 38.6608 46.326 39.0373 46.326C39.8011 46.326 40.5434 45.886 40.9414 45.182L41.6944 43.862C42.0817 43.125 42.114 42.289 41.7159 41.607Z" fill="url(#paint1_linear_36_161)"/>
<defs>
<linearGradient id="paint0_linear_36_161" x1="32" y1="62" x2="32" y2="2" gradientUnits="userSpaceOnUse">
<stop stop-color="#A93AFF"/>
<stop offset="1" stop-color="#FF81FF"/>
</linearGradient>
<linearGradient id="paint1_linear_36_161" x1="32" y1="50" x2="32" y2="28" gradientUnits="userSpaceOnUse">
<stop stop-color="#A93AFF"/>
<stop offset="1" stop-color="#FF81FF"/>
</linearGradient>
</defs>
</svg>
