<svg width="64" height="64" viewBox="0 0 64 64" fill="none" xmlns="http://www.w3.org/2000/svg">
<path d="M51.6411 57.641C51.2105 58.0719 50.6993 58.4136 50.1366 58.6468C49.574 58.8799 48.9709 59 48.3617 59C47.7527 59 47.1497 58.8799 46.587 58.6468C46.0244 58.4136 45.5131 58.0719 45.0825 57.641L39.3719 51.9276C39.0699 51.6255 38.6108 51.5519 38.2178 51.7192C36.5406 52.4332 34.7358 52.8071 32.9082 52.8164C30.1574 52.8164 27.4684 52.0008 25.1812 50.4725C22.894 48.9443 21.1114 46.772 20.0588 44.2307C19.006 41.6893 18.7306 38.8928 19.2673 36.1949C19.804 33.4969 21.1285 31.0187 23.0737 29.0736C25.0188 27.1285 27.497 25.8039 30.1949 25.2672C32.8928 24.7306 35.6893 25.006 38.2307 26.0587C40.7721 27.1114 42.9442 28.8941 44.4725 31.1813C46.0007 33.4685 46.8165 36.1575 46.8165 38.9083C46.8071 40.7357 46.4331 42.5406 45.7191 44.2177C45.5518 44.6107 45.6254 45.0699 45.9275 45.3718L51.6411 51.0826C52.0718 51.5131 52.4137 52.0243 52.6468 52.587C52.88 53.1496 52.9999 53.7528 52.9999 54.3618C52.9999 54.971 52.88 55.574 52.6468 56.1367C52.4137 56.6993 52.0718 57.2105 51.6411 57.641ZM32.9082 43.5444C33.8252 43.5444 34.7215 43.2724 35.4838 42.763C36.2463 42.2535 36.8405 41.5295 37.1915 40.6824C37.5423 39.8353 37.6341 38.9031 37.4552 38.0038C37.2764 37.1045 36.8348 36.2784 36.1865 35.6301C35.538 34.9817 34.712 34.5401 33.8127 34.3612C32.9134 34.1823 31.9812 34.2742 31.1341 34.6251C30.287 34.9759 29.5629 35.5702 29.0535 36.3325C28.544 37.095 28.2721 37.9913 28.2721 38.9083C28.2721 40.1378 28.7606 41.317 29.63 42.1864C30.4995 43.0559 31.6787 43.5444 32.9082 43.5444Z" fill="url(#paint0_linear_99_233)"/>
<path opacity="0.4" d="M38.1213 13.8787C37.5587 13.3161 36.7957 13 36 13H22C21.2044 13 20.4413 13.3161 19.8787 13.8787C19.3161 14.4412 19 15.2043 19 16C19 16.7956 19.3161 17.5587 19.8787 18.1213C20.4413 18.6839 21.2044 19 22 19H36C36.7957 19 37.5587 18.6839 38.1213 18.1213C38.684 17.5587 39 16.7956 39 16C39 15.2043 38.684 14.4412 38.1213 13.8787Z" fill="url(#paint1_linear_99_233)"/>
<path opacity="0.4" d="M17.7496 54.4985H27.7493C28.7439 54.4985 29.6977 54.8936 30.4009 55.5968C31.1041 56.3001 31.4992 57.2539 31.4992 58.2484C31.4992 59.2429 31.1041 60.1967 30.4009 60.9C29.6977 61.6032 28.7439 61.9983 27.7493 61.9983H17.7496C14.1042 61.9943 10.6092 60.5444 8.03155 57.9667C5.45386 55.3891 4.00397 51.8941 4 48.2487V15.7496C4.00397 12.1042 5.45386 8.60924 8.03155 6.03155C10.6092 3.45386 14.1042 2.00397 17.7496 2H45.2488C47.5694 2 49.7949 2.92185 51.4358 4.56274C53.0767 6.20364 53.9986 8.42917 53.9986 10.7498V28.2493C53.9986 29.2438 53.6035 30.1976 52.9003 30.9008C52.197 31.6041 51.2432 31.9992 50.2487 31.9992C49.2542 31.9992 48.3004 31.6041 47.5971 30.9008C46.8939 30.1976 46.4988 29.2438 46.4988 28.2493V10.7498C46.4988 10.4182 46.3671 10.1003 46.1327 9.86589C45.8983 9.63148 45.5803 9.49979 45.2488 9.49979H17.7496C16.0921 9.49979 14.5024 10.1582 13.3303 11.3303C12.1582 12.5024 11.4998 14.0921 11.4998 15.7496V48.2487C11.4998 49.9062 12.1582 51.4959 13.3303 52.668C14.5024 53.8401 16.0921 54.4985 17.7496 54.4985Z" fill="url(#paint2_linear_99_233)"/>
<defs>
<linearGradient id="paint0_linear_99_233" x1="-15.9808" y1="-14.4493" x2="60.4029" y2="57.7115" gradientUnits="userSpaceOnUse">
<stop stop-color="#F9D423"/>
<stop offset="0.515624" stop-color="#FF4E50"/>
<stop offset="0.991304" stop-color="#8A2387"/>
</linearGradient>
<linearGradient id="paint1_linear_99_233" x1="8.36404" y1="1.47232" x2="57.7918" y2="48.1674" gradientUnits="userSpaceOnUse">
<stop stop-color="#F9D423"/>
<stop offset="0.515624" stop-color="#FF4E50"/>
<stop offset="0.991304" stop-color="#8A2387"/>
</linearGradient>
<linearGradient id="paint2_linear_99_233" x1="3.20501" y1="2.59039" x2="64.988" y2="60.9577" gradientUnits="userSpaceOnUse">
<stop stop-color="#F9D423"/>
<stop offset="0.515624" stop-color="#FF4E50"/>
<stop offset="0.991304" stop-color="#8A2387"/>
</linearGradient>
</defs>
</svg>
