<svg width="64" height="64" viewBox="0 0 64 64" fill="none" xmlns="http://www.w3.org/2000/svg">
<path opacity="0.4" d="M57 22.3925V48.25C56.996 51.8955 55.5461 55.3906 52.9683 57.9683C50.3905 60.5461 46.8955 61.996 43.25 62H20.75C17.1045 61.996 13.6094 60.5461 11.0317 57.9683C8.4539 55.3906 7.00397 51.8955 7 48.25V15.75C7.00397 12.1045 8.4539 8.60948 11.0317 6.03171C13.6094 3.45395 17.1045 2.00402 20.75 2.00005H36.6075C38.4139 1.99517 40.2033 2.34863 41.8721 3.03995C43.541 3.73127 45.0562 4.74673 46.33 6.02755L52.9725 12.67C54.2533 13.9438 55.2687 15.459 55.9601 17.1279C56.6514 18.7967 57.0048 20.5862 57 22.3925ZM49.5 48.25V24.5H39.5C38.1739 24.5 36.9021 23.9732 35.9644 23.0356C35.0268 22.0979 34.5 20.8261 34.5 19.5V9.50004H20.75C19.0924 9.50004 17.5027 10.1585 16.3306 11.3306C15.1585 12.5027 14.5 14.0924 14.5 15.75V48.25C14.5 49.9076 15.1585 51.4973 16.3306 52.6694C17.5027 53.8415 19.0924 54.5 20.75 54.5H43.25C44.9076 54.5 46.4973 53.8415 47.6694 52.6694C48.8415 51.4973 49.5 49.9076 49.5 48.25Z" fill="url(#paint0_linear_76_95)"/>
<path d="M28.1477 27.2065V36.6001C28.1477 37.9054 27.0895 38.9637 25.7841 38.9637H24.3708C23.9215 38.9637 23.4826 39.0891 23.1092 39.324C22.7357 39.559 22.4447 39.8927 22.2729 40.2833C22.101 40.6738 22.056 41.1036 22.1436 41.5182C22.2312 41.9329 22.4475 42.3137 22.765 42.6127L29.9488 49.3741C30.3747 49.7749 30.9523 50 31.5546 50C32.1568 50 32.7344 49.7749 33.1603 49.3741L40.3442 42.6127C40.6618 42.3137 40.8779 41.9329 40.9655 41.5182C41.0531 41.1036 41.008 40.6738 40.8362 40.2833C40.6645 39.8927 40.3734 39.559 39.9999 39.324C39.6266 39.0891 39.1875 38.9637 38.7384 38.9637H37.325C36.0196 38.9637 34.9614 37.9054 34.9614 36.6001V27.2065C34.9614 26.3561 34.6023 25.5404 33.9635 24.9391C33.3246 24.3378 32.4582 24 31.5546 24C30.6511 24 29.7844 24.3378 29.1455 24.9391C28.5066 25.5404 28.1477 26.3561 28.1477 27.2065Z" fill="url(#paint1_linear_76_95)"/>
<defs>
<linearGradient id="paint0_linear_76_95" x1="32" y1="62" x2="32" y2="2" gradientUnits="userSpaceOnUse">
<stop stop-color="#00B59C"/>
<stop offset="1" stop-color="#9CFFAC"/>
</linearGradient>
<linearGradient id="paint1_linear_76_95" x1="31.5546" y1="50" x2="31.5546" y2="24" gradientUnits="userSpaceOnUse">
<stop stop-color="#00B59C"/>
<stop offset="1" stop-color="#9CFFAC"/>
</linearGradient>
</defs>
</svg>
