<svg width="64" height="64" viewBox="0 0 64 64" fill="none" xmlns="http://www.w3.org/2000/svg">
<path opacity="0.4" d="M57 22.3925V48.25C56.996 51.8955 55.5461 55.3906 52.9683 57.9683C50.3905 60.5461 46.8955 61.996 43.25 62H20.75C17.1045 61.996 13.6094 60.5461 11.0317 57.9683C8.4539 55.3906 7.00397 51.8955 7 48.25V15.75C7.00397 12.1045 8.4539 8.60948 11.0317 6.03171C13.6094 3.45395 17.1045 2.00402 20.75 2.00005H36.6075C38.4139 1.99517 40.2033 2.34863 41.8721 3.03995C43.541 3.73127 45.0562 4.74673 46.33 6.02755L52.9725 12.67C54.2533 13.9438 55.2687 15.459 55.9601 17.1279C56.6514 18.7967 57.0048 20.5862 57 22.3925ZM49.5 48.25V24.5H39.5C38.1739 24.5 36.9021 23.9732 35.9644 23.0356C35.0268 22.0979 34.5 20.8261 34.5 19.5V9.50004H20.75C19.0924 9.50004 17.5027 10.1585 16.3306 11.3306C15.1585 12.5027 14.5 14.0924 14.5 15.75V48.25C14.5 49.9076 15.1585 51.4973 16.3306 52.6694C17.5027 53.8415 19.0924 54.5 20.75 54.5H43.25C44.9076 54.5 46.4973 53.8415 47.6694 52.6694C48.8415 51.4973 49.5 49.9076 49.5 48.25Z" fill="url(#paint0_linear_76_98)"/>
<path d="M35.2507 48.5468V38.4307C35.2507 37.025 36.3903 35.8852 37.7961 35.8852H39.3182C39.802 35.8852 40.2747 35.7502 40.6768 35.4972C41.079 35.2442 41.3924 34.8847 41.5774 34.4641C41.7626 34.0436 41.811 33.5807 41.7167 33.1342C41.6223 32.6876 41.3894 32.2776 41.0475 31.9556L33.3111 24.674C32.8524 24.2425 32.2304 24 31.5818 24C30.9332 24 30.3112 24.2425 29.8525 24.674L22.116 31.9556C21.7742 32.2776 21.5413 32.6876 21.4469 33.1342C21.3526 33.5807 21.4011 34.0436 21.5862 34.4641C21.7711 34.8847 22.0846 35.2442 22.4868 35.4972C22.8888 35.7502 23.3618 35.8852 23.8454 35.8852H25.3675C26.7733 35.8852 27.9129 37.025 27.9129 38.4307V48.5468C27.9129 49.4627 28.2996 50.3411 28.9876 50.9887C29.6756 51.6363 30.6087 52 31.5818 52C32.5548 52 33.4881 51.6363 34.1761 50.9887C34.8642 50.3411 35.2507 49.4627 35.2507 48.5468Z" fill="url(#paint1_linear_76_98)"/>
<defs>
<linearGradient id="paint0_linear_76_98" x1="32" y1="62" x2="32" y2="2" gradientUnits="userSpaceOnUse">
<stop stop-color="#A93AFF"/>
<stop offset="1" stop-color="#FF81FF"/>
</linearGradient>
<linearGradient id="paint1_linear_76_98" x1="31.5818" y1="52" x2="31.5818" y2="24" gradientUnits="userSpaceOnUse">
<stop stop-color="#A93AFF"/>
<stop offset="1" stop-color="#FF81FF"/>
</linearGradient>
</defs>
</svg>
