<svg width="64" height="64" viewBox="0 0 64 64" fill="none" xmlns="http://www.w3.org/2000/svg">
<path opacity="0.4" d="M57 22.3925V48.25C56.996 51.8955 55.5461 55.3906 52.9683 57.9683C50.3905 60.5461 46.8955 61.996 43.25 62H20.75C17.1045 61.996 13.6094 60.5461 11.0317 57.9683C8.4539 55.3906 7.00397 51.8955 7 48.25V15.75C7.00397 12.1045 8.4539 8.60948 11.0317 6.03171C13.6094 3.45395 17.1045 2.00402 20.75 2.00005H36.6075C38.4139 1.99517 40.2033 2.34863 41.8721 3.03995C43.541 3.73127 45.0562 4.74673 46.33 6.02755L52.9725 12.67C54.2533 13.9438 55.2687 15.459 55.9601 17.1279C56.6514 18.7967 57.0048 20.5862 57 22.3925ZM49.5 48.25V24.5H39.5C38.1739 24.5 36.9021 23.9732 35.9644 23.0356C35.0268 22.0979 34.5 20.8261 34.5 19.5V9.50004H20.75C19.0924 9.50004 17.5027 10.1585 16.3306 11.3306C15.1585 12.5027 14.5 14.0924 14.5 15.75V48.25C14.5 49.9076 15.1585 51.4973 16.3306 52.6694C17.5027 53.8415 19.0924 54.5 20.75 54.5H43.25C44.9076 54.5 46.4973 53.8415 47.6694 52.6694C48.8415 51.4973 49.5 49.9076 49.5 48.25Z" fill="url(#paint0_linear_36_161)"/>
<path d="M28.5238 29.1739L38.2094 32.8205C39.6048 33.3458 40.3101 34.9031 39.7848 36.2985L35.345 48.0907C34.8197 49.486 33.2625 50.1914 31.867 49.6661L29.5508 48.794C28.1554 48.2686 27.4499 46.7113 27.9752 45.3159L29.6405 40.8929C30.1659 39.4975 29.4605 37.9403 28.0651 37.4149L25.7494 36.543C24.354 36.0177 23.6484 34.461 24.174 33.065L25.0458 30.7493C25.5712 29.3539 27.1285 28.6485 28.5238 29.1739Z" fill="url(#paint1_linear_36_161)"/>
<defs>
<linearGradient id="paint0_linear_36_161" x1="32.0011" y1="62" x2="32.0011" y2="2" gradientUnits="userSpaceOnUse">
<stop stop-color="#FDA700"/>
<stop offset="1" stop-color="#FFDE00"/>
</linearGradient>
<linearGradient id="paint1_linear_36_161" x1="33.3663" y1="30.997" x2="27.0239" y2="47.8426" gradientUnits="userSpaceOnUse">
<stop stop-color="#FDA700"/>
<stop offset="1" stop-color="#FFDE00"/>
</linearGradient>
</defs>
</svg>
