<svg width="24" height="24" viewBox="0 0 24 24" fill="none" xmlns="http://www.w3.org/2000/svg">
<path d="M21.8421 12.8789H14.8947C14.5877 12.8789 14.2931 12.7569 14.076 12.5398C13.8589 12.3227 13.7368 12.0281 13.7368 11.7211C13.7368 11.414 13.8589 11.1194 14.076 10.9023C14.2931 10.6852 14.5877 10.5632 14.8947 10.5632H21.8421C22.1492 10.5632 22.4437 10.6852 22.6609 10.9023C22.878 11.1194 23 11.414 23 11.7211C23 12.0281 22.878 12.3227 22.6609 12.5398C22.4437 12.7569 22.1492 12.8789 21.8421 12.8789ZM18.3684 16.3526C18.0613 16.3526 17.7668 16.2306 17.5497 16.0135C17.3326 15.7964 17.2105 15.5018 17.2105 15.1947V8.24738C17.2105 7.94028 17.3326 7.64577 17.5497 7.42862C17.7668 7.21148 18.0613 7.08948 18.3684 7.08948C18.6755 7.08948 18.9701 7.21148 19.1872 7.42862C19.4043 7.64577 19.5263 7.94028 19.5263 8.24738V15.1947C19.5263 15.5018 19.4043 15.7964 19.1872 16.0135C18.9701 16.2306 18.6755 16.3526 18.3684 16.3526ZM7.94737 16.3526C9.43763 16.3526 10.5799 16.7147 11.3572 17.1792C11.92 17.5156 11.7226 18.2428 11.0806 18.3756C10.2751 18.5422 9.22421 18.6684 7.94737 18.6684C6.55446 18.6684 5.48593 18.5386 4.70254 18.3752C4.0833 18.246 3.88018 17.5491 4.41687 17.2143C5.20215 16.7243 6.39389 16.3526 7.94737 16.3526ZM7.94737 14.0368C3.60526 14.0368 1 16.3526 1 18.6684C1 19.8263 3.60526 20.9842 7.94737 20.9842C12.0208 20.9842 14.8947 19.8263 14.8947 18.6684C14.8947 16.3526 12.1691 14.0368 7.94737 14.0368Z" fill="url(#paint0_linear_99_209)"/>
<path opacity="0.4" d="M3 7.30006C3 4.53806 5.23601 2.30005 8.00002 2.30005C10.764 2.30005 13 4.53806 13 7.30006C13 10.0621 10.764 12.3 8.00002 12.3C5.23601 12.3 3 10.0621 3 7.30006Z" fill="url(#paint1_linear_99_209)"/>
<defs>
<linearGradient id="paint0_linear_99_209" x1="12" y1="20.9842" x2="12" y2="1.30005" gradientUnits="userSpaceOnUse">
<stop stop-color="#02AA93"/>
<stop offset="1" stop-color="#67FF80"/>
</linearGradient>
<linearGradient id="paint1_linear_99_209" x1="11.5001" y1="19.3001" x2="11.5001" y2="2.30005" gradientUnits="userSpaceOnUse">
<stop stop-color="#02AA93"/>
<stop offset="1" stop-color="#67FF80"/>
</linearGradient>
</defs>
</svg>
