<svg width="16" height="16" viewBox="0 0 16 16" fill="none" xmlns="http://www.w3.org/2000/svg">
<path opacity="0.4" d="M4.35 1C4.1567 1 4 1.1567 4 1.35V3.65C4 3.8433 3.8433 4 3.65 4H1.35C1.1567 4 1 4.1567 1 4.35V5.65C1 5.8433 1.1567 6 1.35 6H3.65C3.8433 6 4 6.1567 4 6.35V9.65C4 9.84327 3.8433 9.99999 3.65 9.99999H1.35C1.1567 9.99999 1 10.1567 1 10.35V11.65C1 11.8433 1.1567 12 1.35 12H3.65C3.8433 12 4 12.1567 4 12.35V14.65C4 14.8433 4.1567 15 4.35 15H5.65C5.8433 15 6 14.8433 6 14.65V12.35C6 12.1567 6.1567 12 6.35 12H9.65C9.84327 12 9.99999 12.1567 9.99999 12.35V14.65C9.99999 14.8433 10.1567 15 10.35 15H11.65C11.8433 15 12 14.8433 12 14.65V12.35C12 12.1567 12.1567 12 12.35 12H14.65C14.8433 12 15 11.8433 15 11.65V10.35C15 10.1567 14.8433 9.99999 14.65 9.99999H12.35C12.1567 9.99999 12 9.84327 12 9.65V6.35C12 6.1567 12.1567 6 12.35 6H14.65C14.8433 6 15 5.8433 15 5.65V4.35C15 4.1567 14.8433 4 14.65 4H12.35C12.1567 4 12 3.8433 12 3.65V1.35C12 1.1567 11.8433 1 11.65 1H10.35C10.1567 1 9.99999 1.1567 9.99999 1.35V3.65C9.99999 3.8433 9.84327 4 9.65 4H6.35C6.1567 4 6 3.8433 6 3.65V1.35C6 1.1567 5.8433 1 5.65 1H4.35ZM6 6.35C6 6.1567 6.1567 6 6.35 6H9.65C9.84327 6 9.99999 6.1567 9.99999 6.35V9.65C9.99999 9.84327 9.84327 9.99999 9.65 9.99999H6.35C6.1567 9.99999 6 9.84327 6 9.65V6.35Z" fill="url(#paint0_linear_54_581)"/>
<path fill-rule="evenodd" clip-rule="evenodd" d="M6.00013 1.35C6.00013 1.1567 5.84342 1 5.65013 1H4.35012C4.15683 1 4.00012 1.1567 4.00012 1.35V14.65C4.00012 14.8433 4.15683 15 4.35012 15H5.65013C5.84342 15 6.00013 14.8433 6.00013 14.65V1.35ZM12 1.35C12 1.1567 11.8433 1 11.65 1H10.35C10.1567 1 9.99999 1.1567 9.99999 1.35V14.65C9.99999 14.8433 10.1567 15 10.35 15H11.65C11.8433 15 12 14.8433 12 14.65V1.35Z" fill="url(#paint1_linear_54_581)"/>
<defs>
<linearGradient id="paint0_linear_54_581" x1="7.39122" y1="14.624" x2="8.97294" y2="1.97355" gradientUnits="userSpaceOnUse">
<stop stop-color="#8D01A2"/>
<stop offset="1" stop-color="#FF33DB"/>
</linearGradient>
<linearGradient id="paint1_linear_54_581" x1="10.5522" y1="1" x2="-0.424455" y2="8.65821" gradientUnits="userSpaceOnUse">
<stop stop-color="#DE00C0"/>
<stop offset="1" stop-color="#8720FF"/>
</linearGradient>
</defs>
</svg>
