<svg width="32" height="32" viewBox="0 0 32 32" fill="none" xmlns="http://www.w3.org/2000/svg">
<path opacity="0.4" d="M4 10C4 10 4 10 4 10C4 10 3 10 3 11V27C3 28 4 28 4 28C4 28 4 28 4 28H22C22 28 22 28 22 28C22 28 23 28 23 27V23C23 22.4477 22.5523 22 22 22H20C19.4477 22 19 22.4477 19 23V23C19 23.5523 18.5523 24 18 24H8C7.44772 24 7 23.5523 7 23V17C7 16.4477 7.44772 16 8 16V16C8.55228 16 9 15.5523 9 15V11C9 10.4477 8.55228 10 8 10H4Z" fill="url(#paint0_linear_38_155)"/>
<path fill-rule="evenodd" clip-rule="evenodd" d="M11 3C10 3 10 4 10 4C10 4 10 4 10 4V20C10 21 11 21 11 21C11 21 11 21 11 21H29C29 21 29 21 29 21C29 21 30 21 30 20V4C30 3 29 3 29 3C29 3 29 3 29 3H11ZM14 10C14 9.44772 14.4477 9 15 9H25C25.5523 9 26 9.44772 26 10V16C26 16.5523 25.5523 17 25 17H15C14.4477 17 14 16.5523 14 16V10Z" fill="url(#paint1_linear_38_155)"/>
<defs>
<linearGradient id="paint0_linear_38_155" x1="2.99707" y1="18.7333" x2="22.9956" y2="18.7333" gradientUnits="userSpaceOnUse">
<stop stop-color="#FD3A84"/>
<stop offset="1" stop-color="#FFA68D"/>
</linearGradient>
<linearGradient id="paint1_linear_38_155" x1="9.7109" y1="3.17712" x2="28.1067" y2="24.2422" gradientUnits="userSpaceOnUse">
<stop stop-color="#F9D423"/>
<stop offset="0.515624" stop-color="#FF4E50"/>
<stop offset="0.991304" stop-color="#8A2387"/>
</linearGradient>
</defs>
</svg>
