<svg width="24" height="24" viewBox="0 0 24 24" fill="none" xmlns="http://www.w3.org/2000/svg">
<path opacity="0.5" d="M23 14.2V11.7778C23 8.8826 23 7.4339 22.153 6.4934C22.0753 6.40659 21.9931 6.32397 21.9066 6.2459C20.9661 5.4 19.5174 5.4 16.6222 5.4H16.2108C14.9425 5.4 14.3078 5.4 13.716 5.2317C13.3912 5.13887 13.0782 5.00894 12.7832 4.8445C12.2464 4.5464 11.7976 4.0965 10.9 3.2L10.295 2.595C9.9936 2.2936 9.844 2.144 9.6856 2.012C9.00433 1.4473 8.16863 1.10114 7.2876 1.0187C7.083 1 6.8696 1 6.445 1C5.4737 1 4.9886 1 4.5838 1.077C3.71462 1.24115 2.9151 1.66345 2.28954 2.28882C1.66397 2.91418 1.24142 3.71358 1.077 4.5827C1 4.9886 1 5.4748 1 6.445V14.2C1 18.3481 1 20.4227 2.2892 21.7108C3.5773 23 5.6519 23 9.8 23H14.2C18.3481 23 20.4227 23 21.7108 21.7108C23 20.4227 23 18.3481 23 14.2Z" fill="url(#paint0_linear_26_76)"/>
<path d="M6.39754 14.6737C6.39769 14.4297 6.49466 14.1958 6.66715 14.0233C6.83964 13.8508 7.07355 13.7539 7.31749 13.7537H9.73692C10.2892 13.7537 10.7369 13.306 10.7369 12.7537V10.3343C10.7325 10.2108 10.7531 10.0876 10.7974 9.97217C10.8416 9.85675 10.9087 9.75143 10.9946 9.66249C11.0804 9.57355 11.1833 9.50281 11.2971 9.4545C11.4109 9.40619 11.5332 9.38129 11.6569 9.38129C11.7805 9.38129 11.9028 9.40619 12.0166 9.4545C12.1304 9.50281 12.2333 9.57355 12.3191 9.66249C12.405 9.75143 12.4721 9.85675 12.5163 9.97217C12.5606 10.0876 12.5812 10.2108 12.5768 10.3343V12.7537C12.5768 13.306 13.0245 13.7537 13.5768 13.7537H15.9962C16.2346 13.7621 16.4604 13.8627 16.626 14.0343C16.7917 14.206 16.8843 14.4352 16.8843 14.6737C16.8843 14.9122 16.7917 15.1414 16.626 15.313C16.4604 15.4846 16.2346 15.5852 15.9962 15.5936H13.5768C13.0245 15.5936 12.5768 16.0413 12.5768 16.5936V19.013C12.5684 19.2514 12.4678 19.4772 12.2962 19.6429C12.1246 19.8085 11.8954 19.9011 11.6569 19.9011C11.4183 19.9011 11.1891 19.8085 11.0175 19.6429C10.8459 19.4772 10.7453 19.2514 10.7369 19.013V16.5936C10.7369 16.0413 10.2892 15.5936 9.73692 15.5936H7.31749C7.07355 15.5935 6.83964 15.4965 6.66715 15.324C6.49466 15.1515 6.39769 14.9176 6.39754 14.6737Z" fill="url(#paint1_linear_26_76)" stroke="url(#paint2_linear_26_76)"/>
<defs>
<linearGradient id="paint0_linear_26_76" x1="12" y1="23" x2="12" y2="1" gradientUnits="userSpaceOnUse">
<stop stop-color="#00B59C"/>
<stop offset="1" stop-color="#9CFFAC"/>
</linearGradient>
<linearGradient id="paint1_linear_26_76" x1="11.6409" y1="19.9011" x2="11.6409" y2="9.38129" gradientUnits="userSpaceOnUse">
<stop stop-color="#02AA93"/>
<stop offset="1" stop-color="#67FF80"/>
</linearGradient>
<linearGradient id="paint2_linear_26_76" x1="11.6409" y1="19.9011" x2="11.6409" y2="9.38129" gradientUnits="userSpaceOnUse">
<stop stop-color="#02AA93"/>
<stop offset="1" stop-color="#67FF80"/>
</linearGradient>
</defs>
</svg>
