<svg width="24" height="24" viewBox="0 0 24 24" fill="none" xmlns="http://www.w3.org/2000/svg">
<g opacity="0.4">
<path fill-rule="evenodd" clip-rule="evenodd" d="M8.37361 3.46443C9.31127 2.52677 10.583 2 11.9091 2C13.2351 2 14.5068 2.52677 15.4445 3.46443C16.3821 4.40209 16.9089 5.67383 16.909 6.99989C16.9089 8.32594 16.3821 9.59768 15.4445 10.5353C14.5068 11.473 13.2351 11.9998 11.9091 11.9998C10.583 11.9998 9.31127 11.473 8.37361 10.5353C7.43595 9.59768 6.90919 8.32594 6.90918 6.99989C6.90919 5.67383 7.43595 4.40209 8.37361 3.46443ZM14.5606 4.34827C13.8574 3.64503 12.9036 3.24997 11.9091 3.24997C10.9145 3.24997 9.96074 3.64503 9.25749 4.34827C8.55425 5.05152 8.15916 6.00534 8.15915 6.99989C8.15916 7.99443 8.55425 8.94818 9.25749 9.65142C9.96074 10.3547 10.9145 10.7498 11.9091 10.7498C12.9036 10.7498 13.8574 10.3547 14.5606 9.65142C15.2639 8.94818 15.659 7.99443 15.659 6.99989C15.659 6.00534 15.2639 5.05152 14.5606 4.34827ZM5.30271 15.754C7.12693 14.1433 9.47593 13.2531 11.9094 13.2502C12.2108 13.2524 12.5119 13.2683 12.8117 13.2978C13.0111 13.3174 13.1594 13.4877 13.1594 13.6882V14.1345C13.1594 14.3795 12.9411 14.5663 12.6973 14.5422C12.4355 14.5163 12.1727 14.5023 11.9094 14.5002C9.80726 14.5026 7.77618 15.2619 6.18785 16.6391C4.68692 17.9405 3.67617 19.7114 3.31605 21.6582C3.27988 21.8537 3.11221 22 2.91337 22H2.45361C2.21285 22 2.02604 21.7887 2.06692 21.5514C2.45297 19.3114 3.59205 17.2645 5.30271 15.754Z" fill="url(#paint0_linear_80_108)"/>
<path d="M15.4445 3.46443L15.7981 3.11089L15.798 3.11087L15.4445 3.46443ZM16.909 6.99989L17.409 6.99993L17.409 6.99985L16.909 6.99989ZM15.4445 10.5353L15.7981 10.8889L15.7981 10.8888L15.4445 10.5353ZM8.37361 10.5353L8.72717 10.1818L8.72716 10.1817L8.37361 10.5353ZM6.90918 6.99989L6.40918 6.99989L6.40918 6.99989L6.90918 6.99989ZM14.5606 4.34827L14.207 4.70181L14.2071 4.70184L14.5606 4.34827ZM9.25749 4.34827L8.90394 3.99471L8.90393 3.99472L9.25749 4.34827ZM8.15915 6.99989L7.65915 6.99988L7.65915 6.99989L8.15915 6.99989ZM9.25749 9.65142L9.61105 9.29787L9.61104 9.29787L9.25749 9.65142ZM14.5606 9.65142L14.2071 9.29785L14.207 9.29789L14.5606 9.65142ZM11.9094 13.2502L11.9131 12.7502L11.9089 12.7502L11.9094 13.2502ZM5.30271 15.754L4.97177 15.3792L4.97176 15.3792L5.30271 15.754ZM12.8117 13.2978L12.7628 13.7954L12.7628 13.7954L12.8117 13.2978ZM12.6973 14.5422L12.6481 15.0398L12.6482 15.0398L12.6973 14.5422ZM11.9094 14.5002L11.9134 14.0002L11.9089 14.0002L11.9094 14.5002ZM6.18785 16.6391L6.5154 17.0169L6.5154 17.0169L6.18785 16.6391ZM3.31605 21.6582L3.8077 21.7492L3.80771 21.7492L3.31605 21.6582ZM2.06692 21.5514L1.57418 21.4665L1.57417 21.4666L2.06692 21.5514ZM11.9091 1.5C10.4504 1.5 9.05149 2.07945 8.02006 3.11088L8.72716 3.81798C9.57105 2.97409 10.7156 2.5 11.9091 2.5V1.5ZM15.798 3.11087C14.7666 2.07945 13.3677 1.5 11.9091 1.5V2.5C13.1025 2.5 14.247 2.97409 15.091 3.81799L15.798 3.11087ZM17.409 6.99985C17.4089 5.54121 16.8294 4.14231 15.7981 3.11089L15.0909 3.81797C15.9348 4.66187 16.4089 5.80645 16.409 6.99993L17.409 6.99985ZM15.7981 10.8888C16.8294 9.85746 17.4089 8.45856 17.409 6.99993L16.409 6.99985C16.4089 8.19332 15.9348 9.3379 15.0909 10.1818L15.7981 10.8888ZM11.9091 12.4998C13.3677 12.4998 14.7666 11.9203 15.7981 10.8889L15.0909 10.1817C14.247 11.0257 13.1025 11.4998 11.9091 11.4998V12.4998ZM8.02005 10.8888C9.05147 11.9203 10.4504 12.4998 11.9091 12.4998V11.4998C10.7156 11.4998 9.57106 11.0257 8.72717 10.1818L8.02005 10.8888ZM6.40918 6.99989C6.40919 8.45854 6.98862 9.85747 8.02006 10.8889L8.72716 10.1817C7.88327 9.33789 7.40919 8.19334 7.40918 6.99989L6.40918 6.99989ZM8.02006 3.11088C6.98863 4.14231 6.40919 5.54122 6.40918 6.99989L7.40918 6.99989C7.40919 5.80644 7.88327 4.66187 8.72716 3.81798L8.02006 3.11088ZM11.9091 3.74997C12.771 3.74997 13.5976 4.09236 14.207 4.70181L14.9142 3.99473C14.1172 3.1977 13.0362 2.74997 11.9091 2.74997V3.74997ZM9.61104 4.70183C10.2205 4.09235 11.0471 3.74997 11.9091 3.74997V2.74997C10.7819 2.74997 9.70096 3.19771 8.90394 3.99471L9.61104 4.70183ZM8.65915 6.99989C8.65916 6.13795 9.00157 5.3113 9.61105 4.70182L8.90393 3.99472C8.10693 4.79174 7.65916 5.87273 7.65915 6.99988L8.65915 6.99989ZM9.61104 9.29787C9.00156 8.68839 8.65916 7.86181 8.65915 6.99988L7.65915 6.99989C7.65916 8.12705 8.10694 9.20797 8.90394 10.005L9.61104 9.29787ZM11.9091 10.2498C11.0471 10.2498 10.2205 9.90739 9.61105 9.29787L8.90393 10.005C9.70094 10.802 10.7819 11.2498 11.9091 11.2498V10.2498ZM14.207 9.29789C13.5976 9.90739 12.771 10.2498 11.9091 10.2498V11.2498C13.0362 11.2498 14.1172 10.802 14.9142 10.005L14.207 9.29789ZM15.159 6.99989C15.159 7.8618 14.8166 8.68837 14.2071 9.29785L14.9141 10.005C15.7112 9.20799 16.159 8.12705 16.159 6.99989H15.159ZM14.2071 4.70184C14.8166 5.31132 15.159 6.13795 15.159 6.99989H16.159C16.159 5.87272 15.7112 4.79172 14.9141 3.9947L14.2071 4.70184ZM11.9089 12.7502C9.35365 12.7533 6.8872 13.688 4.97177 15.3792L5.63364 16.1289C7.36665 14.5987 9.5982 13.753 11.91 13.7502L11.9089 12.7502ZM12.8607 12.8002C12.5459 12.7693 12.2296 12.7526 11.9131 12.7503L11.9058 13.7502C12.192 13.7523 12.478 13.7674 12.7628 13.7954L12.8607 12.8002ZM13.6594 13.6882C13.6594 13.2416 13.3268 12.8461 12.8607 12.8002L12.7628 13.7954C12.6955 13.7888 12.6594 13.7339 12.6594 13.6882H13.6594ZM13.6594 14.1345V13.6882H12.6594V14.1345H13.6594ZM12.6482 15.0398C13.1682 15.0912 13.6594 14.6929 13.6594 14.1345H12.6594C12.6594 14.103 12.6748 14.0768 12.6908 14.0628C12.7058 14.0497 12.726 14.0426 12.7465 14.0447L12.6482 15.0398ZM11.9055 15.0002C12.1537 15.0022 12.4014 15.0154 12.6481 15.0398L12.7466 14.0447C12.4697 14.0173 12.1918 14.0025 11.9134 14.0003L11.9055 15.0002ZM6.5154 17.0169C8.01297 15.7184 9.92798 15.0025 11.91 15.0002L11.9089 14.0002C9.68654 14.0028 7.53939 14.8055 5.86029 16.2614L6.5154 17.0169ZM3.80771 21.7492C4.14725 19.9136 5.10024 18.2439 6.5154 17.0169L5.8603 16.2614C4.27359 17.6371 3.20509 19.5092 2.82439 21.5673L3.80771 21.7492ZM2.91337 22.5C3.36524 22.5 3.72989 22.1698 3.8077 21.7492L2.82439 21.5673C2.82986 21.5377 2.85917 21.5 2.91337 21.5V22.5ZM2.45361 22.5H2.91337V21.5H2.45361V22.5ZM1.57417 21.4666C1.47797 22.025 1.91877 22.5 2.45361 22.5V21.5C2.50692 21.5 2.5741 21.5525 2.55966 21.6363L1.57417 21.4666ZM4.97176 15.3792C3.17556 16.9653 1.97954 19.1145 1.57418 21.4665L2.55965 21.6364C2.9264 19.5084 4.00853 17.5638 5.63365 16.1288L4.97176 15.3792Z" fill="url(#paint1_linear_80_108)"/>
</g>
<path fill-rule="evenodd" clip-rule="evenodd" d="M21.784 12.4374C21.8319 12.2701 21.658 12.1257 21.5023 12.2036L12.267 16.8212C12.1195 16.8949 12.1195 17.1053 12.267 17.179L14.335 18.2131C14.3825 18.2368 14.4185 18.2784 14.4353 18.3287L15.5064 21.542C15.5628 21.711 15.7953 21.7275 15.875 21.5681L16.8196 19.679C16.869 19.5802 16.9892 19.5401 17.088 19.5895L19.1935 20.6423C19.3055 20.6983 19.4408 20.6387 19.4752 20.5183L21.784 12.4374Z" fill="url(#paint2_linear_80_108)" stroke="url(#paint3_linear_80_108)"/>
<defs>
<linearGradient id="paint0_linear_80_108" x1="7.57976" y1="22" x2="7.57976" y2="13.2502" gradientUnits="userSpaceOnUse">
<stop stop-color="#FDA700"/>
<stop offset="1" stop-color="#FFDE00"/>
</linearGradient>
<linearGradient id="paint1_linear_80_108" x1="7.57976" y1="22" x2="7.57976" y2="13.2502" gradientUnits="userSpaceOnUse">
<stop stop-color="#FDA700"/>
<stop offset="1" stop-color="#FFDE00"/>
</linearGradient>
<linearGradient id="paint2_linear_80_108" x1="16.9091" y1="22" x2="16.9091" y2="12.0002" gradientUnits="userSpaceOnUse">
<stop stop-color="#FDA700"/>
<stop offset="1" stop-color="#FFDE00"/>
</linearGradient>
<linearGradient id="paint3_linear_80_108" x1="16.9091" y1="22" x2="16.9091" y2="12.0002" gradientUnits="userSpaceOnUse">
<stop stop-color="#FDA700"/>
<stop offset="1" stop-color="#FFDE00"/>
</linearGradient>
</defs>
</svg>
