<svg width="64" height="64" viewBox="0 0 64 64" fill="none" xmlns="http://www.w3.org/2000/svg">
<path d="M34.4706 51.8823C35.0229 51.8823 35.4706 51.4345 35.4706 50.8823V34.5293C35.4706 33.977 35.9183 33.5293 36.4706 33.5293H36.6352C37.5261 33.5293 37.9723 32.4522 37.3423 31.8222L33.1189 27.5988C32.7283 27.2082 32.0952 27.2082 31.7047 27.5988L27.4812 31.8222C26.8513 32.4522 27.2974 33.5293 28.1883 33.5293H28.3529C28.9052 33.5293 29.3529 33.977 29.3529 34.5293V50.8823C29.3529 51.4345 29.8007 51.8823 30.3529 51.8823H34.4706ZM41.5882 56.9999C41.5882 57.5522 41.1405 57.9999 40.5882 57.9999H24.2353C23.683 57.9999 23.2353 57.5522 23.2353 56.9999V40.647C23.2353 40.0947 22.7876 39.647 22.2353 39.647H13.4142C12.5233 39.647 12.0771 38.5698 12.7071 37.9399L31.7047 18.9423C32.0952 18.5518 32.7283 18.5518 33.1189 18.9423L52.1164 37.9399C52.7464 38.5698 52.3002 39.647 51.4093 39.647H42.5882C42.036 39.647 41.5882 40.0947 41.5882 40.647V56.9999Z" fill="url(#paint0_linear_80_93)"/>
<path opacity="0.4" d="M52.8235 12.1177C53.3758 12.1177 53.8235 11.6699 53.8235 11.1176V7C53.8235 6.4477 53.3758 6 52.8235 6H12C11.4477 6 11 6.4477 11 7V11.1177C11 11.6699 11.4477 12.1177 12 12.1177H52.8235Z" fill="url(#paint1_linear_80_93)"/>
<defs>
<linearGradient id="paint0_linear_80_93" x1="32.4118" y1="6" x2="32.4118" y2="58" gradientUnits="userSpaceOnUse">
<stop stop-color="#5570FF"/>
<stop offset="1" stop-color="#4DD3FF"/>
</linearGradient>
<linearGradient id="paint1_linear_80_93" x1="32.4118" y1="6" x2="32.4118" y2="58" gradientUnits="userSpaceOnUse">
<stop stop-color="#5570FF"/>
<stop offset="1" stop-color="#4DD3FF"/>
</linearGradient>
</defs>
</svg>
