<svg width="24" height="24" viewBox="0 0 24 24" fill="none" xmlns="http://www.w3.org/2000/svg">
<path opacity="0.4" d="M23 12C23 18.0753 18.0753 23 12 23C5.9247 23 1 18.0753 1 12C1 5.9247 5.9247 1 12 1C18.0753 1 23 5.9247 23 12Z" fill="url(#paint0_linear_99_237)"/>
<path d="M12.0364 19.8364C11.6705 19.8362 11.3197 19.6907 11.0609 19.432C10.8022 19.1733 10.6567 18.8224 10.6565 18.4565V14.3274C10.6565 13.7751 10.2088 13.3274 9.65653 13.3274H5.52739C5.34207 13.3339 5.15734 13.3031 4.98421 13.2367C4.81108 13.1703 4.6531 13.0697 4.51969 12.9409C4.38628 12.8121 4.28018 12.6578 4.20771 12.4871C4.13524 12.3164 4.0979 12.1329 4.0979 11.9475C4.0979 11.762 4.13524 11.5785 4.20771 11.4078C4.28018 11.2371 4.38628 11.0828 4.51969 10.954C4.6531 10.8252 4.81108 10.7247 4.98421 10.6582C5.15734 10.5918 5.34207 10.561 5.52739 10.5675H9.65653C10.2088 10.5675 10.6565 10.1198 10.6565 9.56752V5.43842C10.6691 5.08082 10.82 4.74222 11.0774 4.49372C11.3349 4.24522 11.6787 4.10632 12.0364 4.10632C12.3942 4.10632 12.738 4.24522 12.9954 4.49372C13.2528 4.74222 13.4037 5.08082 13.4164 5.43842V9.56752C13.4164 10.1198 13.8641 10.5675 14.4164 10.5675H18.5455C18.903 10.5802 19.2417 10.7311 19.4902 10.9885C19.7387 11.2459 19.8776 11.5897 19.8776 11.9475C19.8776 12.3052 19.7387 12.649 19.4902 12.9064C19.2417 13.1639 18.903 13.3148 18.5455 13.3274H14.4164C13.8641 13.3274 13.4164 13.7751 13.4164 14.3274V18.4565C13.4161 18.8224 13.2707 19.1733 13.0119 19.432C12.7532 19.6907 12.4023 19.8362 12.0364 19.8364Z" fill="url(#paint1_linear_99_237)" stroke="url(#paint2_linear_99_237)"/>
<defs>
<linearGradient id="paint0_linear_99_237" x1="12" y1="23" x2="12" y2="1" gradientUnits="userSpaceOnUse">
<stop stop-color="#9CFFAC"/>
<stop offset="1" stop-color="#9CFFAC"/>
</linearGradient>
<linearGradient id="paint1_linear_99_237" x1="16.2304" y1="7.72832" x2="7.7686" y2="16.1901" gradientUnits="userSpaceOnUse">
<stop stop-color="#00E0C1"/>
<stop offset="1" stop-color="#00B59C"/>
</linearGradient>
<linearGradient id="paint2_linear_99_237" x1="16.2304" y1="7.72832" x2="7.7686" y2="16.1901" gradientUnits="userSpaceOnUse">
<stop stop-color="#00E0C1"/>
<stop offset="1" stop-color="#00B59C"/>
</linearGradient>
</defs>
</svg>
