<svg width="24" height="24" viewBox="0 0 24 24" fill="none" xmlns="http://www.w3.org/2000/svg">
<path d="M14.3569 7.74081C14.3901 7.67443 14.4095 7.60201 14.414 7.52793C14.4184 7.45385 14.4079 7.37963 14.3829 7.30974C14.3579 7.23985 14.3191 7.17574 14.2687 7.12127C14.2183 7.06679 14.1573 7.02308 14.0896 6.99277L3.74692 2.38026C2.10124 1.64653 0.395064 3.2757 1.2102 4.80257L4.67756 11.2973C4.94708 11.8022 4.94708 12.3973 4.67756 12.9011L1.2102 19.3958C0.395064 20.9227 2.10124 22.553 3.74692 21.8182L7.6235 20.0889C8.08894 19.8816 8.46803 19.5193 8.69605 19.0636L14.3569 7.74081Z" fill="url(#paint0_linear_8_580)"/>
<path opacity="0.5" d="M15.8871 8.36996C15.9504 8.24348 16.0601 8.14628 16.1932 8.09855C16.3264 8.05082 16.4728 8.05622 16.6021 8.11364L21.9076 10.4788C23.3641 11.1278 23.3641 13.0694 21.9076 13.7184L12.1205 18.0834C12.017 18.1296 11.9017 18.1426 11.7905 18.1208C11.6793 18.099 11.5775 18.0433 11.4992 17.9614C11.4208 17.8796 11.3696 17.7755 11.3526 17.6634C11.3357 17.5513 11.3537 17.4368 11.4044 17.3354L15.8871 8.36996Z" fill="url(#paint1_linear_8_580)"/>
<defs>
<linearGradient id="paint0_linear_8_580" x1="13.9448" y1="12.0994" x2="1.843" y2="13.0175" gradientUnits="userSpaceOnUse">
<stop stop-color="#8D01A2"/>
<stop offset="1" stop-color="#FF00D2"/>
</linearGradient>
<linearGradient id="paint1_linear_8_580" x1="22.5916" y1="13.0987" x2="12.193" y2="14.4469" gradientUnits="userSpaceOnUse">
<stop stop-color="#8D01A2"/>
<stop offset="1" stop-color="#FF00D2"/>
</linearGradient>
</defs>
</svg>
