<svg width="24" height="24" viewBox="0 0 24 24" fill="none" xmlns="http://www.w3.org/2000/svg">
<path d="M1 5.4C1 3.3254 1 2.2892 1.6446 1.6446C2.2892 1 3.3254 1 5.4 1C7.4746 1 8.5108 1 9.1554 1.6446C9.8 2.2892 9.8 3.3254 9.8 5.4V18.6C9.8 20.6746 9.8 21.7108 9.1554 22.3554C8.5108 23 7.4746 23 5.4 23C3.3254 23 2.2892 23 1.6446 22.3554C1 21.7108 1 20.6746 1 18.6V5.4Z" fill="url(#paint0_linear_8_729)"/>
<path opacity="0.4" d="M14.2 5.4C14.2 3.3254 14.2 2.2892 14.8446 1.6446C15.4892 1 16.5254 1 18.6 1C20.6746 1 21.7108 1 22.3554 1.6446C23 2.2892 23 3.3254 23 5.4V18.6C23 20.6746 23 21.7108 22.3554 22.3554C21.7108 23 20.6746 23 18.6 23C16.5254 23 15.4892 23 14.8446 22.3554C14.2 21.7108 14.2 20.6746 14.2 18.6V5.4Z" fill="url(#paint1_linear_8_729)"/>
<defs>
<linearGradient id="paint0_linear_8_729" x1="5.4" y1="23" x2="5.4" y2="1" gradientUnits="userSpaceOnUse">
<stop stop-color="#5558FF"/>
<stop offset="1" stop-color="#00C0FF"/>
</linearGradient>
<linearGradient id="paint1_linear_8_729" x1="18.6" y1="23" x2="18.6" y2="1" gradientUnits="userSpaceOnUse">
<stop stop-color="#5558FF"/>
<stop offset="1" stop-color="#00C0FF"/>
</linearGradient>
</defs>
</svg>
