<svg width="64" height="64" viewBox="0 0 64 64" fill="none" xmlns="http://www.w3.org/2000/svg">
<path opacity="0.4" d="M4 54C4 50.6875 6.68731 48 9.99958 48H53.9965C57.3088 48 59.9961 50.6875 59.9961 54C59.9961 57.3125 57.3088 60 53.9965 60H9.99958C6.68731 60 4 57.3125 4 54Z" fill="url(#paint0_linear_101_76)"/>
<path d="M36.4227 38.05C35.2853 39.3 33.6854 40 31.998 40C30.3106 40 28.7107 39.3 27.5858 38.0625L5.58733 14.0625C3.97495 12.3 3.56247 9.775 4.51241 7.5875C5.46234 5.4 7.62469 4 9.99953 4H53.9965C56.3713 4 58.5461 5.3875 59.4961 7.575C60.446 9.7625 60.0335 12.3 58.4212 14.05L36.4227 38.05Z" fill="url(#paint1_linear_101_76)"/>
<defs>
<linearGradient id="paint0_linear_101_76" x1="31.998" y1="60" x2="31.998" y2="48" gradientUnits="userSpaceOnUse">
<stop stop-color="#A93AFF"/>
<stop offset="1" stop-color="#FF81FF"/>
</linearGradient>
<linearGradient id="paint1_linear_101_76" x1="32.0042" y1="4" x2="32.0042" y2="40" gradientUnits="userSpaceOnUse">
<stop stop-color="#A93AFF"/>
<stop offset="1" stop-color="#FF81FF"/>
</linearGradient>
</defs>
</svg>
