<svg width="16" height="16" viewBox="0 0 16 16" fill="none" xmlns="http://www.w3.org/2000/svg">
<path d="M11.64 1.47999C11.3763 1.28222 11 1.47037 11 1.79999V2.59999C11 2.8209 10.8209 2.99999 10.6 2.99999H9.74721C9.5957 2.99999 9.4572 3.08559 9.38944 3.2211L5.61056 10.7789C5.5428 10.9144 5.4043 11 5.25279 11H1.4C1.17909 11 1 11.1791 1 11.4V12.6C1 12.8209 1.17909 13 1.4 13H6.25279C6.4043 13 6.5428 12.9144 6.61056 12.7789L10.4146 5.17081C10.4669 5.06612 10.5739 4.99999 10.691 4.99999C10.8616 4.99999 11 5.13834 11 5.30901V6.19999C11 6.52961 11.3763 6.71776 11.64 6.51999L14.5733 4.31999C14.7867 4.15999 14.7867 3.83999 14.5733 3.67999L11.64 1.47999Z" fill="url(#paint0_linear_54_622)"/>
<g opacity="0.4">
<path d="M1 3.4C1 3.17909 1.17909 3 1.4 3H6.25279C6.4043 3 6.5428 3.0856 6.61056 3.22111L7.41056 4.82111C7.46686 4.93373 7.46686 5.06627 7.41056 5.17889L6.85777 6.28446C6.71036 6.57928 6.28964 6.57928 6.14223 6.28446L5.61056 5.22111C5.5428 5.0856 5.4043 5 5.25279 5H1.4C1.17909 5 1 4.82091 1 4.6V3.4Z" fill="url(#paint1_linear_54_622)"/>
<path d="M11 9.8C11 9.47038 11.3763 9.28223 11.64 9.48L14.5733 11.68C14.7867 11.84 14.7867 12.16 14.5733 12.32L11.64 14.52C11.3763 14.7178 11 14.5296 11 14.2V13.4C11 13.1791 10.8209 13 10.6 13H9.74721C9.5957 13 9.4572 12.9144 9.38944 12.7789L8.58944 11.1789C8.53314 11.0663 8.53314 10.9337 8.58944 10.8211L9.14223 9.71554C9.28964 9.42072 9.71036 9.42072 9.85777 9.71554L10.4146 10.8292C10.4669 10.9339 10.5739 11 10.691 11C10.8616 11 11 10.8616 11 10.691V9.8Z" fill="url(#paint2_linear_54_622)"/>
</g>
<defs>
<linearGradient id="paint0_linear_54_622" x1="3.5375" y1="13.3472" x2="16.1622" y2="2.33195" gradientUnits="userSpaceOnUse">
<stop stop-color="#FE0844"/>
<stop offset="1" stop-color="#FEB302"/>
</linearGradient>
<linearGradient id="paint1_linear_54_622" x1="3.5375" y1="13.3472" x2="16.1622" y2="2.33195" gradientUnits="userSpaceOnUse">
<stop stop-color="#FE0844"/>
<stop offset="1" stop-color="#FEB302"/>
</linearGradient>
<linearGradient id="paint2_linear_54_622" x1="3.5375" y1="13.3472" x2="16.1622" y2="2.33195" gradientUnits="userSpaceOnUse">
<stop stop-color="#FE0844"/>
<stop offset="1" stop-color="#FEB302"/>
</linearGradient>
</defs>
</svg>
