<svg width="24" height="24" viewBox="0 0 24 24" fill="none" xmlns="http://www.w3.org/2000/svg">
<path opacity="0.5" d="M20.1818 11.6365V13.0001C20.1818 17.2855 20.1818 19.4283 18.85 20.7592C17.52 22.091 15.3764 22.091 11.0909 22.091C6.80545 22.091 4.66273 22.091 3.33091 20.7592C2 19.4292 2 17.2855 2 13.0001C2 8.71463 2 6.57191 3.33091 5.24009C4.66364 3.90918 6.80545 3.90918 11.0909 3.90918H12.4545" stroke="url(#paint0_linear_83_110)" stroke-width="2" stroke-linecap="round"/>
<path fill-rule="evenodd" clip-rule="evenodd" d="M16.6363 5.72727C16.6363 4.77333 17.4096 4 18.3636 4C19.3175 4 20.0909 4.77333 20.0909 5.72727C20.0909 6.68122 19.3175 7.45455 18.3636 7.45455C17.4096 7.45455 16.6363 6.68122 16.6363 5.72727ZM18.3636 2C16.3051 2 14.6363 3.66876 14.6363 5.72727C14.6363 7.78579 16.3051 9.45455 18.3636 9.45455C20.4221 9.45455 22.0909 7.78579 22.0909 5.72727C22.0909 3.66876 20.4221 2 18.3636 2ZM13.3636 10.1818C12.8113 10.1818 12.3636 10.6295 12.3636 11.1818C12.3636 11.6891 12.7413 12.1082 13.2308 12.1731L12 13.404L10.6225 12.0265L10.6224 12.0264C10.2644 11.6685 9.77891 11.4675 9.27268 11.4675C8.76646 11.4675 8.28096 11.6685 7.92296 12.0264L7.92285 12.0265L5.8383 14.1111C5.44778 14.5016 5.44778 15.1348 5.8383 15.5253C6.22883 15.9158 6.86199 15.9158 7.25252 15.5253L9.27268 13.5051L10.6501 14.8826L10.6502 14.8827C11.0082 15.2406 11.4937 15.4416 12 15.4416C12.5062 15.4416 12.9917 15.2406 13.3497 14.8827L13.3498 14.8826L14.6451 13.5873C14.71 14.0768 15.129 14.4545 15.6363 14.4545C16.1886 14.4545 16.6363 14.0068 16.6363 13.4545V11.1818C16.6363 10.6295 16.1886 10.1818 15.6363 10.1818H13.3636Z" fill="url(#paint1_linear_83_110)"/>
<defs>
<linearGradient id="paint0_linear_83_110" x1="18.3636" y1="3.00009" x2="2.54546" y2="20.8183" gradientUnits="userSpaceOnUse">
<stop stop-color="#FB457A"/>
<stop offset="1" stop-color="#A500FF"/>
</linearGradient>
<linearGradient id="paint1_linear_83_110" x1="20.4363" y1="1.30909" x2="8.85156" y2="16.9341" gradientUnits="userSpaceOnUse">
<stop stop-color="#FB457A"/>
<stop offset="1" stop-color="#A500FF"/>
</linearGradient>
</defs>
</svg>
