<svg width="64" height="64" viewBox="0 0 64 64" fill="none" xmlns="http://www.w3.org/2000/svg">
<path opacity="0.4" d="M57 22.3925V48.25C56.996 51.8955 55.5461 55.3906 52.9683 57.9683C50.3905 60.5461 46.8955 61.996 43.25 62H20.75C17.1045 61.996 13.6094 60.5461 11.0317 57.9683C8.4539 55.3906 7.00397 51.8955 7 48.25V15.75C7.00397 12.1045 8.4539 8.60948 11.0317 6.03171C13.6094 3.45395 17.1045 2.00402 20.75 2.00005H36.6075C38.4139 1.99517 40.2033 2.34863 41.8721 3.03995C43.541 3.73127 45.0562 4.74673 46.33 6.02755L52.9725 12.67C54.2533 13.9438 55.2687 15.459 55.9601 17.1279C56.6514 18.7967 57.0048 20.5862 57 22.3925ZM49.5 48.25V24.5H39.5C38.1739 24.5 36.9021 23.9732 35.9644 23.0356C35.0268 22.0979 34.5 20.8261 34.5 19.5V9.50004H20.75C19.0924 9.50004 17.5027 10.1585 16.3306 11.3306C15.1585 12.5027 14.5 14.0924 14.5 15.75V48.25C14.5 49.9076 15.1585 51.4973 16.3306 52.6694C17.5027 53.8415 19.0924 54.5 20.75 54.5H43.25C44.9076 54.5 46.4973 53.8415 47.6694 52.6694C48.8415 51.4973 49.5 49.9076 49.5 48.25Z" fill="url(#paint0_linear_99_243)"/>
<path d="M39.5 43H25.5C23.567 43 22 44.567 22 46.5C22 48.433 23.567 50 25.5 50H39.5C41.433 50 43 48.433 43 46.5C43 44.567 41.433 43 39.5 43Z" fill="url(#paint1_linear_99_243)"/>
<path d="M39.5 32H25.5C23.567 32 22 33.567 22 35.5C22 37.433 23.567 39 25.5 39H39.5C41.433 39 43 37.433 43 35.5C43 33.567 41.433 32 39.5 32Z" fill="url(#paint2_linear_99_243)"/>
<defs>
<linearGradient id="paint0_linear_99_243" x1="32" y1="62" x2="32" y2="2" gradientUnits="userSpaceOnUse">
<stop stop-color="#A93AFF"/>
<stop offset="1" stop-color="#FF81FF"/>
</linearGradient>
<linearGradient id="paint1_linear_99_243" x1="33" y1="55" x2="33" y2="34" gradientUnits="userSpaceOnUse">
<stop stop-color="#A93AFF"/>
<stop offset="1" stop-color="#FF81FF"/>
</linearGradient>
<linearGradient id="paint2_linear_99_243" x1="33" y1="44" x2="33" y2="23" gradientUnits="userSpaceOnUse">
<stop stop-color="#A93AFF"/>
<stop offset="1" stop-color="#FF81FF"/>
</linearGradient>
</defs>
</svg>
