<svg width="32" height="32" viewBox="0 0 32 32" fill="none" xmlns="http://www.w3.org/2000/svg">
<path opacity="0.4" d="M3 5C3 3.89543 3.89543 3 5 3H20.0357C21.1403 3 22.0357 3.89543 22.0357 5V6.57143C22.0357 7.676 22.9311 8.57143 24.0357 8.57143H27C28.1046 8.57143 29 9.46686 29 10.5714V27C29 28.1046 28.1046 29 27 29H5C3.89543 29 3 28.1046 3 27V5Z" fill="url(#paint0_linear_38_137)"/>
<path d="M3.92857 2.25C3.00153 2.25 2.25 3.00153 2.25 3.92857V28.0714C2.25 28.9984 3.00148 29.75 3.92857 29.75H15.0714C15.9986 29.75 16.75 28.9984 16.75 28.0714V27.7618C16.75 26.8349 15.9985 26.0833 15.0714 26.0833H6.09524C5.99661 26.0833 5.91667 26.0034 5.91667 25.9047V6.09524C5.91667 5.9966 5.9966 5.91667 6.09524 5.91667H10.7381C10.8367 5.91667 10.9167 5.99666 10.9167 6.09524V8.57143C10.9167 9.49842 11.6681 10.25 12.5952 10.25H25.9047C26.0034 10.25 26.0833 10.3299 26.0833 10.4286V15.0714C26.0833 15.9985 26.8349 16.75 27.7618 16.75H28.0714C28.9984 16.75 29.75 15.9986 29.75 15.0714V8.2619C29.75 7.33481 28.9984 6.58333 28.0714 6.58333H23.4286C23.33 6.58333 23.25 6.50334 23.25 6.40476V3.92857C23.25 3.00148 22.4984 2.25 21.5714 2.25H3.92857Z" fill="url(#paint1_linear_38_137)"/>
<path d="M23.4286 17.4167C22.5017 17.4167 21.75 18.1681 21.75 19.0952V21.5714C21.75 21.67 21.67 21.75 21.5714 21.75H19.0952C18.1681 21.75 17.4167 22.5017 17.4167 23.4286V23.7382C17.4167 24.665 18.1682 25.4167 19.0952 25.4167H21.5714C21.6701 25.4167 21.75 25.4967 21.75 25.5953V28.0714C21.75 28.9984 22.5016 29.75 23.4286 29.75H23.7382C24.6652 29.75 25.4167 28.9983 25.4167 28.0714V25.5953C25.4167 25.4966 25.4967 25.4167 25.5953 25.4167H28.0714C28.9984 25.4167 29.75 24.6652 29.75 23.7382V23.4286C29.75 22.5016 28.9985 21.75 28.0714 21.75H25.5953C25.4967 21.75 25.4167 21.67 25.4167 21.5714V19.0952C25.4167 18.1681 24.6651 17.4167 23.7382 17.4167H23.4286Z" fill="url(#paint2_linear_38_137)"/>
<defs>
<linearGradient id="paint0_linear_38_137" x1="16" y1="28.2909" x2="16" y2="3.70909" gradientUnits="userSpaceOnUse">
<stop stop-color="#5570FF"/>
<stop offset="1" stop-color="#4DD3FF"/>
</linearGradient>
<linearGradient id="paint1_linear_38_137" x1="16" y1="29" x2="16" y2="3" gradientUnits="userSpaceOnUse">
<stop stop-color="#5570FF"/>
<stop offset="1" stop-color="#4DD3FF"/>
</linearGradient>
<linearGradient id="paint2_linear_38_137" x1="16" y1="29" x2="16" y2="3" gradientUnits="userSpaceOnUse">
<stop stop-color="#5570FF"/>
<stop offset="1" stop-color="#4DD3FF"/>
</linearGradient>
</defs>
</svg>
