<svg width="24" height="24" viewBox="0 0 24 24" fill="none" xmlns="http://www.w3.org/2000/svg">
<path opacity="0.3" d="M1 12C1 6.8146 1 4.2219 2.6104 2.6104C4.223 1 6.8146 1 12 1C17.1854 1 19.7781 1 21.3885 2.6104C23 4.223 23 6.8146 23 12C23 17.1854 23 19.7781 21.3885 21.3885C19.7792 23 17.1854 23 12 23C6.8146 23 4.2219 23 2.6104 21.3885C1 19.7792 1 17.1854 1 12Z" fill="url(#paint0_linear_8_464)"/>
<path d="M12.219 3.11719C12.1148 2.96094 11.8852 2.96094 11.781 3.1172L9.20236 6.9852C9.08576 7.1601 9.21114 7.39437 9.42134 7.39437H14.5787C14.7889 7.39437 14.9142 7.1601 14.7976 6.9852L12.219 3.11719ZM7.39437 9.42134C7.39437 9.21114 7.1601 9.08576 6.9852 9.20236L3.11719 11.781C2.96094 11.8852 2.96094 12.1148 3.1172 12.219L6.9852 14.7976C7.1601 14.9142 7.39437 14.7889 7.39437 14.5787V9.42134ZM17.0148 9.20236C16.8399 9.08576 16.6057 9.21114 16.6057 9.42134V14.5787C16.6057 14.7889 16.8399 14.9142 17.0148 14.7976L20.8829 12.219C21.0391 12.1148 21.0391 11.8852 20.8829 11.781L17.0148 9.20236ZM9.42134 16.6057C9.21114 16.6057 9.08576 16.8399 9.20236 17.0148L11.781 20.8829C11.8852 21.0391 12.1148 21.0391 12.219 20.8829L14.7976 17.0148C14.9142 16.8399 14.7889 16.6057 14.5787 16.6057H9.42134Z" fill="url(#paint1_linear_8_464)" stroke="url(#paint2_linear_8_464)"/>
<defs>
<linearGradient id="paint0_linear_8_464" x1="4.98749" y1="20.4027" x2="24.8263" y2="3.09319" gradientUnits="userSpaceOnUse">
<stop stop-color="#FE0844"/>
<stop offset="1" stop-color="#FEB302"/>
</linearGradient>
<linearGradient id="paint1_linear_8_464" x1="6.12782" y1="19.0364" x2="22.7406" y2="4.54145" gradientUnits="userSpaceOnUse">
<stop stop-color="#FE0844"/>
<stop offset="1" stop-color="#FEB302"/>
</linearGradient>
<linearGradient id="paint2_linear_8_464" x1="6.12782" y1="19.0364" x2="22.7406" y2="4.54145" gradientUnits="userSpaceOnUse">
<stop stop-color="#FE0844"/>
<stop offset="1" stop-color="#FEB302"/>
</linearGradient>
</defs>
</svg>
