<svg width="24" height="24" viewBox="0 0 24 24" fill="none" xmlns="http://www.w3.org/2000/svg">
<path opacity="0.4" d="M1 12C1 6.8146 1 4.2219 2.6104 2.6104C4.223 1 6.8146 1 12 1C17.1854 1 19.7781 1 21.3885 2.6104C23 4.223 23 6.8146 23 12C23 17.1854 23 19.7781 21.3885 21.3885C19.7792 23 17.1854 23 12 23C6.8146 23 4.2219 23 2.6104 21.3885C1 19.7792 1 17.1854 1 12Z" fill="url(#paint0_linear_8_464)"/>
<path fill-rule="evenodd" clip-rule="evenodd" d="M8.33354 4.32057C8.5388 4.11531 8.81717 4 9.10745 4C9.39771 4 9.67608 4.11531 9.88134 4.32057C10.0866 4.52581 10.2019 4.80419 10.2019 5.09446V6.18891C10.2007 7.25288 9.77757 8.27293 9.02524 9.02526C8.27291 9.77758 7.25286 10.2008 6.18891 10.2019H5.09446C4.80419 10.2019 4.52581 10.0866 4.32055 9.88135C4.11531 9.67611 4 9.39773 4 9.10746C4 8.8172 4.11531 8.53882 4.32055 8.33356C4.52581 8.12832 4.80419 8.01301 5.09446 8.01301H6.18891C6.67268 8.01301 7.13665 7.82082 7.47873 7.47874C7.82081 7.13666 8.01299 6.67269 8.01299 6.18891V5.09446C8.01299 4.80419 8.1283 4.52581 8.33354 4.32057ZM17.8111 13.4853H18.9055C19.1957 13.4853 19.4742 13.6006 19.6793 13.8058C19.8846 14.0111 20 14.2894 20 14.5797C20 14.87 19.8846 15.1484 19.6793 15.3536C19.4742 15.5589 19.1957 15.6742 18.9055 15.6742H17.8111C17.3273 15.6742 16.8633 15.8664 16.5212 16.2084C16.1791 16.5505 15.9869 17.0145 15.9869 17.4982V18.5927C15.9869 18.883 15.8716 19.1613 15.6664 19.3666C15.4611 19.5719 15.1828 19.6871 14.8925 19.6871C14.6022 19.6871 14.3238 19.5719 14.1186 19.3666C13.9133 19.1613 13.798 18.883 13.798 18.5927V17.4982C13.7992 16.4343 14.2224 15.4142 14.9747 14.6619C15.727 13.9096 16.7471 13.4864 17.8111 13.4853ZM18.9055 8.01301H17.8111C17.3273 8.01301 16.8633 7.82082 16.5212 7.47874C16.1791 7.13666 15.9869 6.67269 15.9869 6.18891V5.09446C15.9869 4.80419 15.8716 4.52581 15.6664 4.32057C15.4611 4.11531 15.1828 4 14.8925 4C14.6022 4 14.3238 4.11531 14.1186 4.32057C13.9133 4.52581 13.798 4.80419 13.798 5.09446V6.18891C13.7992 7.25288 14.2224 8.27293 14.9747 9.02526C15.727 9.77758 16.7471 10.2008 17.8111 10.2019H18.9055C19.1957 10.2019 19.4742 10.0866 19.6793 9.88135C19.8846 9.67611 20 9.39773 20 9.10746C20 8.8172 19.8846 8.53882 19.6793 8.33356C19.4742 8.12832 19.1957 8.01301 18.9055 8.01301ZM5.09446 13.4853H6.18891C7.25286 13.4864 8.27291 13.9096 9.02524 14.6619C9.77757 15.4142 10.2007 16.4343 10.2019 17.4982V18.5927C10.2019 18.883 10.0866 19.1613 9.88134 19.3666C9.67608 19.5719 9.39771 19.6871 9.10745 19.6871C8.81717 19.6871 8.5388 19.5719 8.33354 19.3666C8.1283 19.1613 8.01299 18.883 8.01299 18.5927V17.4982C8.01299 17.0145 7.82081 16.5505 7.47873 16.2084C7.13665 15.8664 6.67268 15.6742 6.18891 15.6742H5.09446C4.80419 15.6742 4.52581 15.5589 4.32055 15.3536C4.11531 15.1484 4 14.87 4 14.5797C4 14.2894 4.11531 14.0111 4.32055 13.8058C4.52581 13.6006 4.80419 13.4853 5.09446 13.4853Z" fill="url(#paint1_linear_8_464)" stroke="url(#paint2_linear_8_464)"/>
<defs>
<linearGradient id="paint0_linear_8_464" x1="4.98749" y1="20.4027" x2="24.8263" y2="3.09319" gradientUnits="userSpaceOnUse">
<stop stop-color="#FE0844"/>
<stop offset="1" stop-color="#FEB302"/>
</linearGradient>
<linearGradient id="paint1_linear_8_464" x1="6.89999" y1="17.8352" x2="21.0813" y2="5.21508" gradientUnits="userSpaceOnUse">
<stop stop-color="#FE0844"/>
<stop offset="1" stop-color="#FEB302"/>
</linearGradient>
<linearGradient id="paint2_linear_8_464" x1="6.89999" y1="17.8352" x2="21.0813" y2="5.21508" gradientUnits="userSpaceOnUse">
<stop stop-color="#FE0844"/>
<stop offset="1" stop-color="#FEB302"/>
</linearGradient>
</defs>
</svg>
