<svg width="24" height="24" viewBox="0 0 24 24" fill="none" xmlns="http://www.w3.org/2000/svg">
<path opacity="0.4" d="M2.6104 21.3885C4.223 23 6.8146 23 12 23C17.1854 23 19.7781 23 21.3885 21.3885C23 19.7792 23 17.1854 23 12C23 6.8146 23 4.2219 21.3885 2.6104C19.7792 1 17.1854 1 12 1C6.8146 1 4.2219 1 2.6104 2.6104C1 4.223 1 6.8146 1 12C1 17.1854 1 19.7781 2.6104 21.3885Z" fill="url(#paint0_linear_37_243)"/>
<path d="M13.816 10.5726C13.6297 10.7774 13.3697 10.8997 13.0931 10.9128C12.8166 10.9258 12.5461 10.8285 12.3414 10.6421C12.1366 10.4558 12.0142 10.1958 12.0012 9.9192C11.9881 9.64264 12.0855 9.37223 12.2718 9.16745L15.7498 5.34161C15.8476 5.23401 15.9668 5.14804 16.0998 5.08922C16.2328 5.03039 16.3766 5 16.522 5C16.6674 5 16.8112 5.03039 16.9441 5.08922C17.0771 5.14804 17.1963 5.23401 17.2941 5.34161L20.7721 9.16745C20.9585 9.37223 21.0558 9.64264 21.0428 9.9192C21.0297 10.1958 20.9073 10.4558 20.7026 10.6421C20.4978 10.8285 20.2274 10.9258 19.9508 10.9128C19.6743 10.8997 19.4142 10.7774 19.2279 10.5726L17.5654 8.74313V17.1739C17.5654 17.4506 17.4554 17.716 17.2598 17.9117C17.0641 18.1074 16.7987 18.2173 16.522 18.2173C16.2452 18.2173 15.9798 18.1074 15.7842 17.9117C15.5885 17.716 15.4785 17.4506 15.4785 17.1739V8.74313L13.816 10.5726Z" fill="url(#paint1_linear_37_243)"/>
<path opacity="0.4" d="M4.81605 12.6453C4.72379 12.5439 4.61246 12.4617 4.48841 12.4033C4.36437 12.345 4.23005 12.3116 4.09311 12.3051C3.81655 12.2921 3.54614 12.3894 3.34136 12.5758C3.13658 12.7621 3.01421 13.0222 3.00116 13.2987C2.98812 13.5753 3.08547 13.8457 3.2718 14.0505L6.74984 17.8763C6.84763 17.9839 6.96684 18.0699 7.0998 18.1287C7.23277 18.1875 7.37656 18.2179 7.52196 18.2179C7.66736 18.2179 7.81115 18.1875 7.94412 18.1287C8.07709 18.0699 8.19629 17.9839 8.29409 17.8763L11.7721 14.0505C11.9585 13.8457 12.0558 13.5753 12.0428 13.2987C12.0297 13.0222 11.9073 12.7621 11.7026 12.5758C11.4978 12.3894 11.2274 12.2921 10.9508 12.3051C10.6743 12.3182 10.4142 12.4406 10.2279 12.6453L8.56537 14.4748V6.04402C8.56537 5.76729 8.45544 5.5019 8.25976 5.30622C8.06409 5.11054 7.79869 5.00061 7.52196 5.00061C7.24523 5.00061 6.97984 5.11054 6.78416 5.30622C6.58848 5.5019 6.47855 5.76729 6.47855 6.04402V14.4748L4.81605 12.6453Z" fill="url(#paint2_linear_37_243)"/>
<defs>
<linearGradient id="paint0_linear_37_243" x1="12" y1="23" x2="12" y2="1" gradientUnits="userSpaceOnUse">
<stop stop-color="#02AA93"/>
<stop offset="1" stop-color="#67FF80"/>
</linearGradient>
<linearGradient id="paint1_linear_37_243" x1="16.522" y1="18.2173" x2="16.522" y2="5" gradientUnits="userSpaceOnUse">
<stop stop-color="#02AA93"/>
<stop offset="1" stop-color="#67FF80"/>
</linearGradient>
<linearGradient id="paint2_linear_37_243" x1="7.52196" y1="18.2179" x2="7.52196" y2="5.00061" gradientUnits="userSpaceOnUse">
<stop stop-color="#02AA93"/>
<stop offset="1" stop-color="#67FF80"/>
</linearGradient>
</defs>
</svg>
