<svg width="16" height="16" viewBox="0 0 16 16" fill="none" xmlns="http://www.w3.org/2000/svg">
<path opacity="0.4" d="M6.2 1C6.08954 1 6 1.08954 6 1.2V2.8C6 2.91046 5.91046 3 5.8 3H4.2C4.08954 3 4 3.08954 4 3.2V5H2.2C2.08954 5 2 5.08954 2 5.2V14.8C2 14.9105 2.08954 15 2.2 15H9.8C9.91046 15 10 14.9105 10 14.8V13H11.8C11.9105 13 12 12.9105 12 12.8V11.2C12 11.0895 12.0895 11 12.2 11H13.8C13.9105 11 14 10.9105 14 10.8V4.08284C14 4.0298 13.9789 3.97893 13.9414 3.94142L11.0586 1.05858C11.0211 1.02107 10.9702 1 10.9172 1H6.2ZM7 2.2C7 2.08954 7.08954 2 7.2 2H9.8C9.91046 2 10 2.08954 10 2.2V3.51716C10 3.69534 9.78457 3.78457 9.65858 3.65858L9.05858 3.05858C9.02107 3.02107 8.9702 3 8.91716 3H7.2C7.08954 3 7 2.91046 7 2.8V2.2ZM5 4.2C5 4.08954 5.08954 4 5.2 4H7.8C7.91046 4 8 4.08954 8 4.2V6L7.05858 5.05858C7.02107 5.02107 6.9702 5 6.91716 5H5V4.2ZM11.3414 5.34142C11.2154 5.21543 11.3047 5 11.4828 5H12.8C12.9105 5 13 5.08954 13 5.2V9.8C13 9.91046 12.9105 10 12.8 10H12.2C12.0895 10 12 9.91046 12 9.8V6.08284C12 6.0298 11.9789 5.97893 11.9414 5.94142L11.3414 5.34142ZM3 6.2C3 6.08954 3.08954 6 3.2 6H5.8C5.91046 6 6 6.08954 6 6.2V8.8C6 8.91046 6.08954 9 6.2 9H8.8C8.91046 9 9 9.08954 9 9.2V13.8C9 13.9105 8.91046 14 8.8 14H3.2C3.08954 14 3 13.9105 3 13.8V6.2ZM9 7H10.8C10.9105 7 11 7.08954 11 7.2V11.8C11 11.9105 10.9105 12 10.8 12H10V8.08284C10 8.0298 9.97893 7.97893 9.94142 7.94142L9 7Z" fill="url(#paint0_linear_80_81)"/>
<path fill-rule="evenodd" clip-rule="evenodd" d="M4 5H2.2C2.08954 5 2 5.08954 2 5.2V14.8C2 14.9105 2.08954 15 2.2 15H9.8C9.91046 15 10 14.9105 10 14.8V13V12V8.08284C10 8.0298 9.97893 7.97893 9.94142 7.94142L9 7L8 6L7.05858 5.05858C7.02107 5.02107 6.9702 5 6.91716 5H5H4ZM3 6.2C3 6.08954 3.08954 6 3.2 6H5.8C5.91046 6 6 6.08954 6 6.2V8.8C6 8.91046 6.08954 9 6.2 9H8.8C8.91046 9 9 9.08954 9 9.2V13.8C9 13.9105 8.91046 14 8.8 14H3.2C3.08954 14 3 13.9105 3 13.8V6.2Z" fill="url(#paint1_linear_80_81)"/>
<defs>
<linearGradient id="paint0_linear_80_81" x1="3.11628" y1="7.99999" x2="11.9535" y2="7.99999" gradientUnits="userSpaceOnUse">
<stop stop-color="#5570FF"/>
<stop offset="1" stop-color="#4DD3FF"/>
</linearGradient>
<linearGradient id="paint1_linear_80_81" x1="3.11628" y1="7.99999" x2="11.9535" y2="7.99999" gradientUnits="userSpaceOnUse">
<stop stop-color="#5570FF"/>
<stop offset="1" stop-color="#4DD3FF"/>
</linearGradient>
</defs>
</svg>
