<svg width="32" height="32" viewBox="0 0 32 32" fill="none" xmlns="http://www.w3.org/2000/svg">
<path opacity="0.4" d="M22.1133 1H27.1922C29.2956 1 31 2.71878 31 4.83994V9.96179C31 12.083 29.2956 13.8017 27.1922 13.8017H22.1133C20.0099 13.8017 18.3055 12.083 18.3055 9.96179V4.83994C18.3055 2.71878 20.0099 1 22.1133 1" fill="url(#paint0_linear_5_77)"/>
<path fill-rule="evenodd" clip-rule="evenodd" d="M4.80779 1H9.88674C11.9901 1 13.6945 2.71878 13.6945 4.83994V9.96179C13.6945 12.083 11.9901 13.8017 9.88674 13.8017H4.80779C2.70438 13.8017 1 12.083 1 9.96179V4.83994C1 2.71878 2.70438 1 4.80779 1ZM4.80779 18.1983H9.88674C11.9901 18.1983 13.6945 19.9171 13.6945 22.0382V27.1601C13.6945 29.2798 11.9901 31 9.88674 31H4.80779C2.70438 31 1 29.2798 1 27.1601V22.0382C1 19.9171 2.70438 18.1983 4.80779 18.1983ZM27.1922 18.1983H22.1133C20.0099 18.1983 18.3055 19.9171 18.3055 22.0382V27.1601C18.3055 29.2798 20.0099 31 22.1133 31H27.1922C29.2956 31 31 29.2798 31 27.1601V22.0382C31 19.9171 29.2956 18.1983 27.1922 18.1983Z" fill="url(#paint1_linear_5_77)"/>
<defs>
<linearGradient id="paint0_linear_5_77" x1="30.5711" y1="1.36591" x2="25.5474" y2="13.8749" gradientUnits="userSpaceOnUse">
<stop stop-color="#FE0F7C"/>
<stop offset="1" stop-color="#DF0066"/>
</linearGradient>
<linearGradient id="paint1_linear_5_77" x1="29.9865" y1="1.85749" x2="18.2851" y2="31.2394" gradientUnits="userSpaceOnUse">
<stop stop-color="#FE0F7C"/>
<stop offset="1" stop-color="#DF0066"/>
</linearGradient>
</defs>
</svg>
