<svg width="24" height="24" viewBox="0 0 24 24" fill="none" xmlns="http://www.w3.org/2000/svg">
<path d="M22.2725 5.61518C22.1161 5.45991 21.8636 5.46036 21.7078 5.61618L12.261 15.063C12.1049 15.219 11.8519 15.2192 11.6956 15.0633L8.30602 11.6818C8.14975 11.5259 7.89675 11.5261 7.74067 11.6822L6.97183 12.451C6.81562 12.6072 6.81562 12.8605 6.97183 13.0167L11.6956 17.7405C11.8518 17.8967 12.1051 17.8967 12.2613 17.7405L23.0495 6.95237C23.2061 6.79577 23.2056 6.54173 23.0485 6.38569L22.2725 5.61518Z" fill="url(#paint0_linear_36_97)" stroke="url(#paint1_linear_36_97)"/>
<g opacity="0.4">
<path d="M17.6948 6.38565C17.851 6.54186 17.851 6.79513 17.6948 6.95134L12.2613 12.3848C12.1051 12.541 11.8518 12.541 11.6956 12.3848L10.9271 11.6163C10.7709 11.4601 10.7709 11.2068 10.9271 11.0506L16.3606 5.61714C16.5168 5.46094 16.7701 5.46094 16.9263 5.61715L17.6948 6.38565Z" fill="url(#paint2_linear_36_97)"/>
<path d="M1.61716 13.0177C1.46056 12.8611 1.46101 12.6071 1.61817 12.451L2.39388 11.6808C2.55035 11.5254 2.80304 11.526 2.95882 11.682L7.67462 16.4063C7.8306 16.5625 7.83048 16.8156 7.67438 16.9717L6.90562 17.7405C6.74941 17.8967 6.49614 17.8967 6.33993 17.7405L1.61716 13.0177Z" fill="url(#paint3_linear_36_97)"/>
<path fill-rule="evenodd" clip-rule="evenodd" d="M17.2799 5.26361C17.2799 5.26361 17.2799 5.26361 17.2799 5.26361L18.0484 6.0321C18.3998 6.38357 18.3998 6.95342 18.0484 7.30489L12.6149 12.7383C12.2634 13.0898 11.6935 13.0898 11.3421 12.7383L10.5736 11.9698C10.2221 11.6184 10.2221 11.0485 10.5736 10.697L16.0071 5.26359C16.3585 4.91213 16.9284 4.91214 17.2799 5.26361ZM16.6435 6.0414L11.3514 11.3334L11.9785 11.9605L17.2706 6.6685L16.6435 6.0414ZM2.04158 11.326C2.3937 10.9763 2.96219 10.9777 3.31262 11.3287L8.02844 16.053C8.02846 16.053 8.02842 16.053 8.02844 16.053C8.3794 16.4045 8.37914 16.974 8.02794 17.3252C8.02793 17.3252 8.02795 17.3252 8.02794 17.3252L7.25918 18.094C6.90771 18.4455 6.33785 18.4455 5.98638 18.094L1.2636 13.3712C0.911215 13.0188 0.912318 12.4473 1.26581 12.0962L2.04158 11.326C2.0416 11.3259 2.04157 11.326 2.04158 11.326ZM2.67543 12.1058L7.25016 16.6888L6.62277 17.3162L2.04167 12.7351L2.67543 12.1058ZM7.32083 16.6181C7.32083 16.6181 7.32084 16.6181 7.32083 16.6181Z" fill="url(#paint4_linear_36_97)"/>
</g>
<defs>
<linearGradient id="paint0_linear_36_97" x1="1.33654" y1="11.4909" x2="23.3369" y2="11.4909" gradientUnits="userSpaceOnUse">
<stop stop-color="#A93AFF"/>
<stop offset="1" stop-color="#FF81FF"/>
</linearGradient>
<linearGradient id="paint1_linear_36_97" x1="1.33654" y1="11.4909" x2="23.3369" y2="11.4909" gradientUnits="userSpaceOnUse">
<stop stop-color="#A93AFF"/>
<stop offset="1" stop-color="#FF81FF"/>
</linearGradient>
<linearGradient id="paint2_linear_36_97" x1="0.826515" y1="11.4757" x2="24.1756" y2="11.4757" gradientUnits="userSpaceOnUse">
<stop stop-color="#A93AFF"/>
<stop offset="1" stop-color="#FF81FF"/>
</linearGradient>
<linearGradient id="paint3_linear_36_97" x1="0.826515" y1="11.4757" x2="24.1756" y2="11.4757" gradientUnits="userSpaceOnUse">
<stop stop-color="#A93AFF"/>
<stop offset="1" stop-color="#FF81FF"/>
</linearGradient>
<linearGradient id="paint4_linear_36_97" x1="1.33654" y1="11.4909" x2="23.3369" y2="11.4909" gradientUnits="userSpaceOnUse">
<stop stop-color="#A93AFF"/>
<stop offset="1" stop-color="#FF81FF"/>
</linearGradient>
</defs>
</svg>
