<svg width="16" height="16" viewBox="0 0 16 16" fill="none" xmlns="http://www.w3.org/2000/svg">
<g clip-path="url(#clip0_19_119)">
<path opacity="0.4" fill-rule="evenodd" clip-rule="evenodd" d="M1.50001 0.699951C1.05819 0.699951 0.700012 1.05813 0.700012 1.49995V6.33328C0.700012 6.77512 1.05819 7.13328 1.50001 7.13328H5.16668C5.27714 7.13328 5.36668 7.22283 5.36668 7.33328V12.1667C5.36668 12.6084 5.72483 12.9667 6.16668 12.9667H8.66668C8.77716 12.9667 8.86668 13.0562 8.86668 13.1667V14.5C8.86668 14.9417 9.22483 15.3 9.66668 15.3H14.5C14.9418 15.3 15.3 14.9417 15.3 14.5V9.66662C15.3 9.22477 14.9418 8.86662 14.5 8.86662H9.66668C9.22485 8.86662 8.86668 9.22479 8.86668 9.66662V11C8.86668 11.1104 8.77712 11.2 8.66668 11.2H7.33334C7.2229 11.2 7.13334 11.1104 7.13334 11V4.99995C7.13334 4.8895 7.22289 4.79995 7.33334 4.79995H8.66668C8.77714 4.79995 8.86668 4.8895 8.86668 4.99995V6.33328C8.86668 6.77512 9.22485 7.13328 9.66668 7.13328H14.5C14.9418 7.13328 15.3 6.77514 15.3 6.33328V1.49995C15.3 1.05811 14.9418 0.699951 14.5 0.699951H9.66668C9.22484 0.699951 8.86668 1.05813 8.86668 1.49995V2.83328C8.86668 2.94374 8.77714 3.03328 8.66668 3.03328H7.33334C7.22288 3.03328 7.13334 2.94374 7.13334 2.83328V1.49995C7.13334 1.05813 6.77518 0.699951 6.33334 0.699951H1.50001ZM2.46668 2.66662C2.46668 2.55616 2.55622 2.46662 2.66668 2.46662H5.16668C5.27714 2.46662 5.36668 2.55616 5.36668 2.66662V5.16662C5.36668 5.27708 5.27714 5.36662 5.16668 5.36662H2.66668C2.55622 5.36662 2.46668 5.27708 2.46668 5.16662V2.66662ZM10.6333 2.66662C10.6333 2.55618 10.7229 2.46662 10.8333 2.46662H13.3333C13.4438 2.46662 13.5333 2.55614 13.5333 2.66662V5.16662C13.5333 5.2771 13.4438 5.36662 13.3333 5.36662H10.8333C10.7229 5.36662 10.6333 5.27706 10.6333 5.16662V2.66662Z" fill="url(#paint0_linear_19_119)"/>
<rect x="8.79999" y="8.80005" width="6.6" height="6.6" rx="1" fill="url(#paint1_linear_19_119)"/>
</g>
<defs>
<linearGradient id="paint0_linear_19_119" x1="3.53751" y1="13.3472" x2="16.1622" y2="2.33191" gradientUnits="userSpaceOnUse">
<stop stop-color="#FE0844"/>
<stop offset="1" stop-color="#FEB302"/>
</linearGradient>
<linearGradient id="paint1_linear_19_119" x1="9.99624" y1="14.6209" x2="15.9479" y2="9.42797" gradientUnits="userSpaceOnUse">
<stop stop-color="#FE0844"/>
<stop offset="1" stop-color="#FEB302"/>
</linearGradient>
<clipPath id="clip0_19_119">
<rect width="16" height="16" fill="white"/>
</clipPath>
</defs>
</svg>
