<svg width="64" height="64" viewBox="0 0 64 64" fill="none" xmlns="http://www.w3.org/2000/svg">
<path d="M4.0131 6.76989C3.84883 5.27749 5.25563 3.85576 6.7659 4.01176C12.7284 4.01536 18.6947 4.01536 24.6571 4.01176C25.9997 3.88416 27.4599 5.03629 27.3599 6.42603C27.3529 10.1668 27.3632 13.9111 27.3533 17.6519C27.353 17.7495 27.3627 17.847 27.3657 17.9445C27.3893 18.7287 26.6649 19.2595 26.039 19.6171C24.8178 20.1347 23.3004 19.0606 23.3468 17.756C23.3384 15.1972 23.332 12.6384 23.344 10.0796C23.3492 8.97023 22.4546 8.06478 21.3453 8.06267C17.5892 8.05553 13.8331 8.05722 10.077 8.06356C8.97076 8.06543 8.07664 8.96541 8.08024 10.0717C8.09236 13.7925 8.09372 17.5151 8.07872 21.2379C8.07428 22.3393 8.95947 23.2384 10.0608 23.2393C12.6399 23.2415 15.2203 23.212 17.7984 23.2544C19.0874 23.2403 20.1442 24.7327 19.6192 25.9238C19.2444 26.5442 18.7088 27.2956 17.8804 27.2107C14.0603 27.239 10.2399 27.2176 6.4195 27.2176C5.0235 27.317 3.8847 25.8528 4.0167 24.5342C4.02737 18.6103 4.02737 12.6902 4.0131 6.76989Z" fill="url(#paint0_linear_87_94)"/>
<path d="M38.1726 4.16683C38.6803 3.97163 39.2418 4.02136 39.7747 4.00003C45.7546 4.02843 51.7311 3.98576 57.7075 4.02496C58.9627 4.02136 60.0321 5.1819 59.9855 6.41337C59.9998 12.571 60.0106 18.7287 59.9821 24.8862C59.9998 26.2455 58.6658 27.3671 57.3175 27.2109C51.241 27.2074 45.1646 27.2287 39.0881 27.2038C37.8185 27.2711 36.6491 26.1462 36.6597 24.8862C36.6274 18.8386 36.6597 12.7911 36.6454 6.7435C36.5418 5.66803 37.1387 4.5643 38.1726 4.16683Z" fill="url(#paint1_linear_87_94)"/>
<path d="M45.1549 37.1608C45.568 36.7844 46.1043 36.5452 46.6631 36.5345C50.201 36.4668 53.744 36.4978 57.2845 36.5234C57.7842 36.527 58.2668 36.7156 58.6684 37.0128C59.3207 37.4954 60.0072 37.996 59.975 38.857C60.0001 45.025 59.9824 51.2005 59.9858 57.3685C60.0891 58.1028 59.6121 58.6084 59.1015 59.075C58.7035 59.4387 58.1819 59.6551 57.6428 59.6615C51.4149 59.7357 45.1809 59.7411 38.9499 59.6585C38.4403 59.6518 37.9452 59.4579 37.5761 59.1065C37.074 58.6286 36.6167 58.0965 36.6425 57.3757C36.6285 53.6334 36.6353 49.8911 36.6389 46.1489C36.632 45.0258 37.7481 44.0646 38.8809 44.2164C38.9959 44.2318 39.1114 44.2482 39.2257 44.2679C40.103 44.4192 40.6984 45.3106 40.6949 46.1558C40.7089 48.6651 40.7008 51.172 40.6986 53.6802C40.6976 54.7838 41.5926 55.6778 42.6963 55.678C46.4517 55.6785 50.2056 55.6799 53.9612 55.6766C55.0647 55.6757 55.9585 54.7807 55.9575 53.6771C55.9543 50.0341 55.9449 46.3897 55.9588 42.7467C55.9631 41.6424 55.0739 40.7411 53.9695 40.7389C51.4941 40.7339 49.0187 40.7458 46.5432 40.7402C45.1902 40.8663 43.9082 39.4275 44.3796 38.1359C44.544 37.7414 44.8424 37.4456 45.1549 37.1608Z" fill="url(#paint2_linear_87_94)"/>
<path opacity="0.4" d="M5.46826 36.7134C5.99053 36.4935 6.57386 36.5077 7.12813 36.4935C12.9737 36.5077 18.8191 36.4865 24.6647 36.5041C26.092 36.3694 27.4515 37.5789 27.3548 39.0154C27.3656 45.0481 27.3584 51.0809 27.3584 57.1101C27.4692 58.4294 26.3675 59.7168 25.008 59.7028C18.8156 59.7273 12.6196 59.7204 6.42706 59.706C5.04613 59.7521 3.88706 58.4612 4.00879 57.117C4.00879 51.0737 3.99799 45.0302 4.01586 38.9869C3.97293 38.0258 4.56693 37.0822 5.46826 36.7134Z" fill="url(#paint3_linear_87_94)"/>
<defs>
<linearGradient id="paint0_linear_87_94" x1="15.6831" y1="27.2254" x2="15.6831" y2="4.00002" gradientUnits="userSpaceOnUse">
<stop stop-color="#FD3A84"/>
<stop offset="1" stop-color="#FFA68D"/>
</linearGradient>
<linearGradient id="paint1_linear_87_94" x1="48.3167" y1="27.2254" x2="48.3167" y2="4.00003" gradientUnits="userSpaceOnUse">
<stop stop-color="#02AA93"/>
<stop offset="1" stop-color="#67FF80"/>
</linearGradient>
<linearGradient id="paint2_linear_87_94" x1="48.317" y1="59.719" x2="48.317" y2="36.4935" gradientUnits="userSpaceOnUse">
<stop stop-color="#5570FF"/>
<stop offset="1" stop-color="#4DD3FF"/>
</linearGradient>
<linearGradient id="paint3_linear_87_94" x1="15.6831" y1="59.7189" x2="15.6831" y2="36.4935" gradientUnits="userSpaceOnUse">
<stop stop-color="#FDA700"/>
<stop offset="1" stop-color="#FFDE00"/>
</linearGradient>
</defs>
</svg>
