<svg width="24" height="24" viewBox="0 0 24 24" fill="none" xmlns="http://www.w3.org/2000/svg">
<path opacity="0.5" d="M23 12C23 18.0753 18.0753 23 12 23C5.9247 23 1 18.0753 1 12C1 5.9247 5.9247 1 12 1C18.0753 1 23 5.9247 23 12Z" fill="url(#paint0_linear_8_312)"/>
<path d="M6.40381 6.43947C6.66271 6.1809 7.01366 6.03566 7.37957 6.03566C7.74547 6.03566 8.09642 6.1809 8.35532 6.43947L11.2751 9.35922C11.6656 9.74974 12.2988 9.74974 12.6893 9.35922L15.609 6.43947C15.7354 6.30381 15.8879 6.195 16.0572 6.11953C16.2266 6.04407 16.4095 6.00349 16.5949 6.00021C16.7803 5.99694 16.9644 6.03105 17.1363 6.10049C17.3083 6.16994 17.4645 6.27331 17.5956 6.40442C17.7267 6.53554 17.8301 6.69172 17.8995 6.86365C17.969 7.03558 18.0031 7.21974 17.9998 7.40514C17.9965 7.59054 17.9559 7.77338 17.8805 7.94275C17.805 8.11213 17.6962 8.26457 17.5605 8.39098L14.6408 11.3107C14.2503 11.7012 14.2503 12.3344 14.6408 12.7249L17.5605 15.6447C17.8044 15.9064 17.9372 16.2526 17.9309 16.6103C17.9246 16.9681 17.7797 17.3094 17.5267 17.5623C17.2737 17.8153 16.9324 17.9602 16.5747 17.9666C16.217 17.9729 15.8708 17.8401 15.609 17.5962L12.6893 14.6764C12.2988 14.2859 11.6656 14.2859 11.2751 14.6764L8.35532 17.5962C8.09357 17.8401 7.74737 17.9729 7.38965 17.9666C7.03193 17.9602 6.69063 17.8153 6.43765 17.5623C6.18467 17.3094 6.03975 16.9681 6.03344 16.6103C6.02713 16.2526 6.15991 15.9064 6.40381 15.6447L9.32356 12.7249C9.71408 12.3344 9.71408 11.7012 9.32356 11.3107L6.40381 8.39098C6.14524 8.13208 6 7.78113 6 7.41522C6 7.04932 6.14524 6.69837 6.40381 6.43947Z" fill="url(#paint1_linear_8_312)"/>
<defs>
<linearGradient id="paint0_linear_8_312" x1="21.2353" y1="18.6175" x2="14.6344" y2="-0.681698" gradientUnits="userSpaceOnUse">
<stop stop-color="#FF3649"/>
<stop offset="1" stop-color="#FF3678"/>
</linearGradient>
<linearGradient id="paint1_linear_8_312" x1="17.0374" y1="15.583" x2="13.4548" y2="5.07917" gradientUnits="userSpaceOnUse">
<stop stop-color="#FF3649"/>
<stop offset="1" stop-color="#FF3678"/>
</linearGradient>
</defs>
</svg>
