<svg width="24" height="24" viewBox="0 0 24 24" fill="none" xmlns="http://www.w3.org/2000/svg">
<path d="M12 16.8889C13.841 16.8889 15.3334 15.3965 15.3334 13.5556C15.3334 11.7146 13.841 10.2222 12 10.2222C10.1591 10.2222 8.66669 11.7146 8.66669 13.5556C8.66669 15.3965 10.1591 16.8889 12 16.8889Z" stroke="url(#paint0_linear_8_217)" stroke-width="2"/>
<path opacity="0.5" d="M9.77778 21.3333H14.2222C17.3433 21.3333 18.9033 21.3333 20.0244 20.5844C20.5099 20.26 20.9267 19.8432 21.2511 19.3578C22 18.2367 22 16.6778 22 13.5555C22 10.4344 22 8.87444 21.2511 7.75333C20.9268 7.26783 20.5099 6.85101 20.0244 6.52666C18.9033 5.77777 17.3444 5.77777 14.2222 5.77777H9.77778C6.65667 5.77777 5.09667 5.77777 3.97556 6.52666C3.49006 6.85101 3.07323 7.26783 2.74889 7.75333C2 8.87444 2 10.4333 2 13.5533V13.5555C2 16.6767 2 18.2367 2.74889 19.3578C3.07323 19.8433 3.49006 20.2601 3.97556 20.5844C5.09667 21.3333 6.65556 21.3333 9.77778 21.3333Z" stroke="url(#paint1_linear_8_217)" stroke-width="2"/>
<path d="M18.6666 10.2222H18.1111" stroke="url(#paint2_linear_8_217)" stroke-width="2" stroke-linecap="round"/>
<path opacity="0.5" d="M14.7778 3H9.22223" stroke="url(#paint3_linear_8_217)" stroke-width="2" stroke-linecap="round"/>
<defs>
<linearGradient id="paint0_linear_8_217" x1="12" y1="16.8889" x2="12" y2="10.2222" gradientUnits="userSpaceOnUse">
<stop stop-color="#FD5900"/>
<stop offset="1" stop-color="#FFDE00"/>
</linearGradient>
<linearGradient id="paint1_linear_8_217" x1="12" y1="21.3333" x2="12" y2="5.77777" gradientUnits="userSpaceOnUse">
<stop stop-color="#FD5900"/>
<stop offset="1" stop-color="#FFDE00"/>
</linearGradient>
<linearGradient id="paint2_linear_8_217" x1="18.3889" y1="11.2222" x2="18.3889" y2="10.2222" gradientUnits="userSpaceOnUse">
<stop stop-color="#FD5900"/>
<stop offset="1" stop-color="#FFDE00"/>
</linearGradient>
<linearGradient id="paint3_linear_8_217" x1="12" y1="4" x2="12" y2="3" gradientUnits="userSpaceOnUse">
<stop stop-color="#FD5900"/>
<stop offset="1" stop-color="#FFDE00"/>
</linearGradient>
</defs>
</svg>
