<svg width="32" height="32" viewBox="0 0 32 32" fill="none" xmlns="http://www.w3.org/2000/svg">
<path opacity="0.4" d="M30.2518 11.6397C30.2255 11.6134 30.1975 11.5899 30.1688 11.5678C26.3903 7.58802 21.2946 5.5 15.9999 5.5C13.292 5.5 10.6761 6.03647 8.22497 7.09445C5.4601 8.28788 3.6283 9.75957 1.74813 11.6397C1.41236 11.9755 1.42226 12.5146 1.74813 12.8404L4.1696 15.262C4.51335 15.6057 5.0709 15.5895 5.39563 15.2355C8.1412 12.2426 11.9072 10.5943 15.9999 10.5943C20.0926 10.5943 23.8586 12.2426 26.6042 15.2355C26.9307 15.5915 27.4885 15.6038 27.8302 15.262L30.2518 12.8404C30.2598 12.8325 30.2665 12.824 30.274 12.8159C30.2793 12.8101 30.2847 12.8044 30.2895 12.7985C30.582 12.465 30.57 11.9578 30.2518 11.6397ZM16 19.0847C14.1569 19.0847 12.4506 19.9117 11.3185 21.3537C11.0532 21.6917 11.0822 22.1745 11.386 22.4783L15.3996 26.492C15.7311 26.8235 16.2689 26.8233 16.6003 26.492L20.6139 22.4783C20.9177 22.1745 20.9467 21.6917 20.6814 21.3537C19.5494 19.9117 17.8431 19.0847 16 19.0847ZM16 12.2924C12.3705 12.2924 8.97637 13.7825 6.5351 16.4883C6.23227 16.8239 6.24553 17.3378 6.5651 17.6574L8.96163 20.054C9.30975 20.4022 9.8786 20.3811 10.2009 20.0127C11.6614 18.3438 13.7751 17.3866 16 17.3866C18.2249 17.3866 20.3385 18.3438 21.799 20.0127C22.1219 20.3818 22.6907 20.4017 23.0384 20.054L25.4347 17.6574C25.7545 17.3378 25.7678 16.8239 25.4648 16.4883C23.0237 13.7827 19.6298 12.2924 16 12.2924Z" fill="url(#paint0_linear_38_77)"/>
<path d="M28.9368 17.4866H26.75C26.4737 17.4866 26.25 17.7104 26.25 17.9866V25.75C26.25 26.0263 26.4737 26.25 26.75 26.25H28.9368C29.2128 26.25 29.4368 26.0263 29.4368 25.75V17.9866C29.4368 17.7104 29.2128 17.4866 28.9368 17.4866Z" fill="url(#paint1_linear_38_77)"/>
<path d="M29.4368 13.8074C29.4415 14.0195 29.4038 14.2305 29.326 14.428C29.248 14.6254 29.1315 14.8053 28.9833 14.9571C28.8348 15.1088 28.6575 15.2295 28.462 15.3118C28.2665 15.3942 28.0563 15.4366 27.844 15.4367C27.6318 15.4367 27.4218 15.3944 27.226 15.3122C27.0305 15.2299 26.8533 15.1093 26.7048 14.9577C26.5563 14.8059 26.4398 14.6261 26.3618 14.4287C26.2838 14.2313 26.246 14.0204 26.2508 13.8082C26.26 13.3918 26.4318 12.9957 26.7295 12.7044C27.027 12.4133 27.4268 12.2501 27.8433 12.25C28.2598 12.2499 28.6595 12.4129 28.9575 12.7039C29.2553 12.995 29.4273 13.391 29.4368 13.8074Z" fill="url(#paint2_linear_38_77)"/>
<path d="M28.9368 17.4866H26.75C26.4737 17.4866 26.25 17.7104 26.25 17.9866V25.75C26.25 26.0263 26.4737 26.25 26.75 26.25H28.9368C29.2128 26.25 29.4368 26.0263 29.4368 25.75V17.9866C29.4368 17.7104 29.2128 17.4866 28.9368 17.4866Z" stroke="url(#paint3_linear_38_77)"/>
<path d="M29.4368 13.8074C29.4415 14.0195 29.4038 14.2305 29.326 14.428C29.248 14.6254 29.1315 14.8053 28.9833 14.9571C28.8348 15.1088 28.6575 15.2295 28.462 15.3118C28.2665 15.3942 28.0563 15.4366 27.844 15.4367C27.6318 15.4367 27.4218 15.3944 27.226 15.3122C27.0305 15.2299 26.8533 15.1093 26.7048 14.9577C26.5563 14.8059 26.4398 14.6261 26.3618 14.4287C26.2838 14.2313 26.246 14.0204 26.2508 13.8082C26.26 13.3918 26.4318 12.9957 26.7295 12.7044C27.027 12.4133 27.4268 12.2501 27.8433 12.25C28.2598 12.2499 28.6595 12.4129 28.9575 12.7039C29.2553 12.995 29.4273 13.391 29.4368 13.8074Z" stroke="url(#paint4_linear_38_77)"/>
<defs>
<linearGradient id="paint0_linear_38_77" x1="16" y1="26.7405" x2="16" y2="5.5" gradientUnits="userSpaceOnUse">
<stop stop-color="#FD5900"/>
<stop offset="1" stop-color="#FFDE00"/>
</linearGradient>
<linearGradient id="paint1_linear_38_77" x1="27.8435" y1="26.25" x2="27.8435" y2="12.25" gradientUnits="userSpaceOnUse">
<stop stop-color="#FDA700"/>
<stop offset="1" stop-color="#FFDE00"/>
</linearGradient>
<linearGradient id="paint2_linear_38_77" x1="27.8435" y1="26.25" x2="27.8435" y2="12.25" gradientUnits="userSpaceOnUse">
<stop stop-color="#FDA700"/>
<stop offset="1" stop-color="#FFDE00"/>
</linearGradient>
<linearGradient id="paint3_linear_38_77" x1="27.8435" y1="26.25" x2="27.8435" y2="12.25" gradientUnits="userSpaceOnUse">
<stop stop-color="#FDA700"/>
<stop offset="1" stop-color="#FFDE00"/>
</linearGradient>
<linearGradient id="paint4_linear_38_77" x1="27.8435" y1="26.25" x2="27.8435" y2="12.25" gradientUnits="userSpaceOnUse">
<stop stop-color="#FDA700"/>
<stop offset="1" stop-color="#FFDE00"/>
</linearGradient>
</defs>
</svg>
