<svg width="64" height="64" viewBox="0 0 64 64" fill="none" xmlns="http://www.w3.org/2000/svg">
<path fill-rule="evenodd" clip-rule="evenodd" d="M61.4865 21.703C61.4319 21.6484 61.3741 21.5998 61.3145 21.554C53.4973 13.32 42.9544 9 31.9998 9C26.3973 9 20.9852 10.11 15.9137 12.2988C10.1933 14.768 6.4034 17.8129 2.51336 21.703C1.81867 22.3977 1.83917 23.5129 2.51336 24.1871L7.52332 29.1972C8.23452 29.9083 9.38804 29.8748 10.0599 29.1424C15.7404 22.9502 23.5322 19.5399 31.9998 19.5399C40.4674 19.5399 48.2593 22.9502 53.9398 29.1424C54.6155 29.879 55.7693 29.9043 56.4764 29.1972L61.4864 24.1871C61.4966 24.1769 61.5059 24.1662 61.5152 24.1555C61.5209 24.149 61.5265 24.1425 61.5323 24.1362C61.5355 24.1327 61.5388 24.1292 61.542 24.1257C61.5497 24.1173 61.5574 24.1089 61.5647 24.1004C62.1695 23.4104 62.1447 22.361 61.4865 21.703ZM31.9999 24.5178C24.4905 24.5178 17.4683 27.6008 12.4174 33.1991C11.7908 33.8933 11.8183 34.9567 12.4794 35.6179L17.4378 40.5764C18.158 41.2968 19.335 41.2532 20.0019 40.4909C23.0236 37.038 27.3966 35.0577 31.9999 35.0577C36.6032 35.0577 40.9762 37.038 43.9979 40.4909C44.666 41.2546 45.8428 41.2956 46.5621 40.5764L51.5203 35.6179C52.1816 34.9567 52.209 33.8933 51.5824 33.1991C46.5317 27.6013 39.5099 24.5178 31.9999 24.5178ZM22.3141 43.2652C24.6563 40.282 28.1866 38.5709 31.9999 38.5709C35.8132 38.5709 39.3435 40.282 41.6855 43.2652C42.2345 43.9646 42.1745 44.9636 41.546 45.5922L33.242 53.8962C32.5564 54.5819 31.4435 54.5822 30.7577 53.8962L22.4537 45.5922C21.8252 44.9636 21.7652 43.9646 22.3141 43.2652Z" fill="url(#paint0_linear_69_565)"/>
<defs>
<linearGradient id="paint0_linear_69_565" x1="7.35715" y1="11.1429" x2="32" y2="55.0714" gradientUnits="userSpaceOnUse">
<stop stop-color="#F9D423" stop-opacity="0"/>
<stop offset="0.169488" stop-color="#FAB82C"/>
<stop offset="0.515624" stop-color="#FF4E50"/>
<stop offset="0.991304" stop-color="#8A2387"/>
</linearGradient>
</defs>
</svg>
