<svg width="64" height="64" viewBox="0 0 64 64" fill="none" xmlns="http://www.w3.org/2000/svg">
<path fill-rule="evenodd" clip-rule="evenodd" d="M12.4174 33.1991C17.4683 27.6009 24.4905 24.5178 31.9999 24.5178C39.5099 24.5178 46.5317 27.6013 51.5824 33.1991C52.209 33.8934 52.1816 34.9568 51.5203 35.6179L46.5621 40.5764C45.8428 41.2956 44.666 41.2546 43.9979 40.4909C40.9762 37.038 36.6032 35.0577 31.9999 35.0577C27.3966 35.0577 23.0236 37.038 20.0019 40.4909C19.335 41.2532 18.158 41.2968 17.4378 40.5764L12.4794 35.6179C11.8183 34.9568 11.7908 33.8934 12.4174 33.1991ZM31.9999 38.5709C28.1866 38.5709 24.6563 40.282 22.3141 43.2652C21.7652 43.9646 21.8252 44.9636 22.4537 45.5922L30.7577 53.8962C31.4435 54.5822 32.5564 54.5819 33.242 53.8962L41.546 45.5922C42.1745 44.9636 42.2345 43.9646 41.6855 43.2652C39.3435 40.282 35.8132 38.5709 31.9999 38.5709Z" fill="url(#paint0_linear_69_559)"/>
<path opacity="0.4" d="M61.3145 21.554C61.3741 21.5998 61.4319 21.6484 61.4865 21.703C62.1447 22.361 62.1695 23.4104 61.5647 24.1004C61.5544 24.1125 61.5432 24.1243 61.5323 24.1362C61.5168 24.1531 61.5028 24.1708 61.4864 24.1871L56.4764 29.1972C55.7693 29.9043 54.6155 29.879 53.9398 29.1424C48.2593 22.9502 40.4674 19.5399 31.9998 19.5399C23.5322 19.5399 15.7404 22.9502 10.0599 29.1424C9.38804 29.8748 8.23452 29.9083 7.52332 29.1972L2.51336 24.1871C1.83917 23.5129 1.81867 22.3977 2.51336 21.703C6.4034 17.8129 10.1933 14.768 15.9137 12.2988C20.9852 10.11 26.3973 9 31.9998 9C42.9544 9 53.4973 13.32 61.3145 21.554Z" fill="url(#paint1_linear_69_559)"/>
<path d="M51.4348 30C47.5809 30 44.1304 33.1484 44.1304 36.966V40.4348H42.7385C41.7755 40.4348 41 41.0258 41 41.9694V52.2962C41 53.2413 41.7755 54 42.7385 54H60.1311C61.0941 54 61.8696 53.2413 61.8696 52.2962V41.9694C61.8696 41.0256 61.094 40.4003 60.1311 40.4348H58.7391V36.966C58.7391 33.1499 55.2882 30 51.4348 30ZM51.4348 34.1739C53.169 34.1739 54.5652 35.5816 54.5652 37.3288V40.4348H48.3043V37.3288C48.3043 35.5816 49.7005 34.1739 51.4348 34.1739Z" fill="url(#paint2_linear_69_559)"/>
<defs>
<linearGradient id="paint0_linear_69_559" x1="33.0714" y1="41.6786" x2="32" y2="20.25" gradientUnits="userSpaceOnUse">
<stop stop-color="#FE0844"/>
<stop offset="1" stop-color="#FEB302"/>
</linearGradient>
<linearGradient id="paint1_linear_69_559" x1="12.875" y1="27.2665" x2="25.7722" y2="-5.33276" gradientUnits="userSpaceOnUse">
<stop stop-color="#FE0844"/>
<stop offset="1" stop-color="#FEB302"/>
</linearGradient>
<linearGradient id="paint2_linear_69_559" x1="61.8077" y1="30.1521" x2="38.2556" y2="50.4618" gradientUnits="userSpaceOnUse">
<stop stop-color="#FE7970"/>
<stop offset="1" stop-color="#DC3282"/>
</linearGradient>
</defs>
</svg>
