<svg width="64" height="64" viewBox="0 0 64 64" fill="none" xmlns="http://www.w3.org/2000/svg">
<path d="M31.9999 24.5178C24.4905 24.5178 17.4683 27.6009 12.4174 33.1991C11.7908 33.8934 11.8183 34.9568 12.4794 35.6179L17.4378 40.5764C18.158 41.2968 19.335 41.2532 20.0019 40.4909C23.0236 37.038 27.3966 35.0577 31.9999 35.0577C36.6032 35.0577 40.9762 37.038 43.9979 40.4909C44.666 41.2546 45.8428 41.2956 46.5621 40.5764L51.5203 35.6179C52.1816 34.9568 52.209 33.8934 51.5824 33.1991C46.5317 27.6013 39.5099 24.5178 31.9999 24.5178Z" fill="url(#paint0_radial_69_576)"/>
<path d="M22.3141 43.2653C24.6563 40.282 28.1866 38.5709 31.9999 38.5709C35.8132 38.5709 39.3435 40.282 41.6855 43.2653C42.2345 43.9646 42.1745 44.9636 41.546 45.5922L33.242 53.8962C32.5564 54.5819 31.4435 54.5822 30.7577 53.8962L22.4537 45.5922C21.8252 44.9636 21.7652 43.9646 22.3141 43.2653Z" fill="url(#paint1_radial_69_576)"/>
<path d="M61.3145 21.554C61.3741 21.5998 61.4319 21.6484 61.4865 21.703C62.1447 22.361 62.1695 23.4104 61.5647 24.1004C61.5544 24.1125 61.5432 24.1243 61.5323 24.1362C61.5168 24.1531 61.5028 24.1708 61.4864 24.1871L56.4764 29.1972C55.7693 29.9043 54.6155 29.879 53.9398 29.1424C48.2593 22.9502 40.4674 19.5399 31.9998 19.5399C23.5322 19.5399 15.7404 22.9502 10.0599 29.1424C9.38804 29.8748 8.23452 29.9083 7.52332 29.1972L2.51336 24.1871C1.83917 23.5129 1.81867 22.3977 2.51336 21.703C6.4034 17.8129 10.1933 14.768 15.9137 12.2988C20.9852 10.11 26.3973 9 31.9998 9C42.9544 9 53.4973 13.32 61.3145 21.554Z" fill="url(#paint2_radial_69_576)"/>
<defs>
<radialGradient id="paint0_radial_69_576" cx="0" cy="0" r="1" gradientUnits="userSpaceOnUse" gradientTransform="translate(31.9999 40.576) rotate(-95.9358) scale(16.1447 62.9553)">
<stop offset="0.393422" stop-color="#02AA93"/>
<stop offset="1" stop-color="#67FF80"/>
</radialGradient>
<radialGradient id="paint1_radial_69_576" cx="0" cy="0" r="1" gradientUnits="userSpaceOnUse" gradientTransform="translate(31.9998 53.9186) rotate(-93.1268) scale(15.3705 31.7364)">
<stop offset="0.393422" stop-color="#02AA93"/>
<stop offset="1" stop-color="#67FF80"/>
</radialGradient>
<radialGradient id="paint2_radial_69_576" cx="0" cy="0" r="1" gradientUnits="userSpaceOnUse" gradientTransform="translate(32 29.0683) rotate(-97.101) scale(20.2234 94.0493)">
<stop offset="0.393422" stop-color="#02AA93"/>
<stop offset="1" stop-color="#67FF80"/>
</radialGradient>
</defs>
</svg>
